<svg xmlns="http://www.w3.org/2000/svg" viewBox="0 0 150 100"><defs><style>.cls-1{fill:none;stroke:#010101;stroke-linecap:round;stroke-linejoin:round;stroke-width:0.25px;}</style></defs><g id="Layer_16" data-name="Layer 16"><polyline class="cls-1" points="86.705 78.135 86.574 78.149 86.365 78.148 86.106 78.147 85.833 78.146 85.51 78.145 85.316 78.145 85.253 78.2 85.227 78.222 84.989 78.428 84.631 78.75 84.246 79.091 83.844 79.46 83.419 79.863 82.965 80.308 82.474 80.801 81.947 81.348 81.366 81.925 80.689 82.511 79.869 83.085 78.724 83.657 76.831 84.181 75 84.312 73.169 84.181 71.276 83.657 70.132 83.085 69.312 82.511 68.635 81.925 68.054 81.348 67.526 80.801 67.036 80.308 66.582 79.863 66.156 79.46 65.754 79.091 65.37 78.75 65.011 78.428 64.773 78.222 64.747 78.2 64.684 78.145 64.491 78.145 64.168 78.146 63.894 78.147 63.636 78.148 63.427 78.149 63.296 78.135"/><polyline class="cls-1" points="60.322 77.985 62.661 78.112 63.126 78.13 63.296 78.135 63.396 78.216 63.634 78.444 63.892 78.766 64.166 79.108 64.489 79.477 64.821 79.88 65.273 80.324 65.815 80.817 66.41 81.364 67.079 81.941 67.869 82.526 68.862 83.1 70.294 83.672 72.639 84.195 74.761 84.313 74.942 84.318 75 84.318 75.059 84.318 75.24 84.313 77.361 84.195 79.706 83.672 81.139 83.1 82.131 82.526 82.922 81.941 83.59 81.364 84.185 80.817 84.727 80.324 85.179 79.88 85.512 79.477 85.835 79.108 86.108 78.766 86.367 78.444 86.604 78.216 86.705 78.135 86.875 78.13 87.34 78.112 89.678 77.985"/><polygon class="cls-1" points="78.62 87.544 82.234 87.516 85.835 87.462 89.418 87.376 92.976 87.255 96.504 87.091 99.994 86.881 103.442 86.617 105.172 86.454 106.073 86.369 106.193 86.358 106.585 86.224 107.571 85.893 109.104 85.425 111.161 84.882 113.68 84.373 116.302 83.918 118.827 83.494 121.019 83.04 122.283 82.715 123.017 82.481 123.122 82.427 123.765 82.112 123.873 82.064 124.397 81.705 125.13 81.143 125.982 80.509 127.014 79.791 127.881 79.201 128.515 78.829 128.739 78.611 128.8 78.532 128.877 78.437 130.323 76.871 131.737 74.777 132.897 72.553 133.293 71.56 133.322 71.499 133.712 70.462 134.126 69.26 134.507 68.122 134.645 67.553 135.294 65.053 135.721 62.734 136.035 60.803 136.34 58.451 136.583 55.893 136.624 55.168 136.631 55.047 136.56 54.693 136.403 53.989 136.209 52.975 136.016 51.52 135.958 50.728 135.92 49.769 135.989 48.038 136.128 46.727 136.267 45.769 136.461 44.866 136.596 44.472 136.624 44.355 136.583 43.63 136.34 41.073 136.035 38.72 135.721 36.79 135.294 34.471 134.637 31.938 134.507 31.403 134.126 30.264 133.712 29.061 133.322 28.027 133.288 27.954 132.897 26.972 131.737 24.749 130.323 22.655 128.983 21.219 128.8 20.993 128.739 20.915 128.515 20.701 127.881 20.331 127.014 19.743 125.982 19.026 125.13 18.391 124.397 17.827 123.873 17.466 123.765 17.417 123.122 17.099 123.017 17.045 122.283 16.808 121.019 16.481 118.827 16.023 116.302 15.597 113.68 15.142 111.161 14.632 109.104 14.092 107.571 13.627 106.585 13.3 106.193 13.17 106.073 13.159 105.172 13.074 103.442 12.911 99.994 12.648 99.655 12.627 99.522 12.619 99.509 12.618 99.199 12.6 96.504 12.437 92.976 12.274 90.571 12.191 90.398 12.186 90.398 12.198 90.398 12.321 90.398 12.499 90.133 12.652 89.492 12.706 85.876 12.61 82.264 12.549 78.636 12.516 75 12.507 71.364 12.516 67.736 12.549 64.125 12.61 60.508 12.706 59.868 12.652 59.602 12.499 59.602 12.321 59.602 12.198 59.602 12.186 59.43 12.191 57.024 12.274 53.497 12.437 50.801 12.6 50.491 12.618 50.479 12.619 50.346 12.627 50.006 12.648 46.559 12.911 44.829 13.074 43.928 13.159 43.808 13.17 43.415 13.3 42.43 13.627 40.897 14.092 38.84 14.632 36.321 15.142 33.698 15.597 31.174 16.023 28.981 16.481 27.718 16.808 26.983 17.045 26.879 17.099 26.235 17.417 26.128 17.466 25.603 17.827 24.871 18.391 24.019 19.026 22.987 19.743 22.119 20.331 21.486 20.701 21.262 20.915 21.2 20.993 21.018 21.219 19.678 22.655 18.263 24.749 17.103 26.972 16.712 27.954 16.679 28.027 16.288 29.061 15.875 30.264 15.494 31.403 15.364 31.938 14.706 34.471 14.279 36.79 13.966 38.72 13.661 41.073 13.417 43.63 13.376 44.355 13.405 44.472 13.539 44.866 13.734 45.769 13.872 46.727 14.012 48.038 14.081 49.769 14.042 50.728 13.985 51.52 13.792 52.975 13.598 53.989 13.441 54.693 13.37 55.047 13.376 55.168 13.417 55.893 13.661 58.451 13.966 60.803 14.279 62.734 14.706 65.053 15.355 67.553 15.494 68.122 15.875 69.26 16.288 70.462 16.679 71.499 16.708 71.56 17.103 72.553 18.263 74.777 19.678 76.871 21.124 78.437 21.2 78.532 21.262 78.611 21.486 78.829 22.119 79.201 22.987 79.791 24.019 80.509 24.871 81.143 25.603 81.705 26.128 82.064 26.235 82.112 26.879 82.427 26.983 82.481 27.718 82.715 28.981 83.04 31.174 83.494 33.698 83.918 36.321 84.373 38.84 84.882 40.897 85.425 42.43 85.893 43.415 86.224 43.808 86.358 43.928 86.369 44.829 86.454 46.559 86.617 50.006 86.881 53.497 87.091 57.024 87.255 60.583 87.376 64.165 87.462 67.767 87.516 71.38 87.544 74.759 87.551 74.941 87.551 75.059 87.551 75.242 87.551 78.62 87.544"/><line class="cls-1" x1="63.566" y1="71.267" x2="86.435" y2="71.267"/><path class="cls-1" d="M113.966,54.886q.119-.47.214-.945l-.079-.016-1.448-.291-.024,0a1.241,1.241,0,0,1-.636-.306l-.005,0c-.023-.021-.044-.043-.066-.065s-.035-.038-.051-.058a.878.878,0,0,1-.092-.135.47.47,0,0,1-.046-.116.272.272,0,0,1-.005-.107,16.688,16.688,0,0,0,.213-3.2v-.009a.258.258,0,0,1,.006-.052.315.315,0,0,1,.016-.05.485.485,0,0,1,.063-.108.891.891,0,0,1,.1-.115,1.259,1.259,0,0,1,.133-.108l.008-.006a1.241,1.241,0,0,1,.667-.216l1.5-.1.081-.005a19.209,19.209,0,0,0-.983-4.985l-.077.026-1.422.48a1.241,1.241,0,0,1-.7.053h-.006q-.045-.01-.089-.024t-.079-.027a.884.884,0,0,1-.138-.066.481.481,0,0,1-.1-.075.282.282,0,0,1-.059-.086l0-.009a16.714,16.714,0,0,0-1.414-2.88l-.006-.011a.691.691,0,0,1,.064-.534l0-.006a1.241,1.241,0,0,1,.472-.524l1.249-.832.067-.045a19.209,19.209,0,0,0-3.344-3.826l-.053.061-.992,1.127a1.241,1.241,0,0,1-.582.4l-.007,0c-.03.009-.059.017-.089.024l-.076.015a.878.878,0,0,1-.163.012.471.471,0,0,1-.123-.018.273.273,0,0,1-.1-.049,16.671,16.671,0,0,0-2.664-1.787l-.011-.006c-.149-.091-.2-.351-.212-.494v-.007a1.241,1.241,0,0,1,.147-.69l.666-1.345.036-.073a19.373,19.373,0,0,0-2.651-1.078"/><path class="cls-1" d="M98.826,31.529l-.206,1.025-.005.027a1.241,1.241,0,0,1-.3.632l-.007.007c-.021.023-.043.045-.065.066s-.038.035-.058.051a.879.879,0,0,1-.135.092.471.471,0,0,1-.116.046.273.273,0,0,1-.107.005A16.865,16.865,0,0,0,78.487,47.236a14.811,14.811,0,0,0-.174,1.635c-.008.163-.045.656-.027.822a5.089,5.089,0,0,0,.42.7c.615.908,1.22,1.823,1.83,2.734,1.221,1.823,2.429,3.654,3.646,5.479q.913,1.369,1.823,2.74c.6.915,1.2,1.835,1.824,2.739.155.226.312.451.464.68s.3.461.455.685a3.742,3.742,0,0,0,.248.328,1.845,1.845,0,0,0,.373.169q.387.139.779.265a15.355,15.355,0,0,0,3.217.662"/><path class="cls-1" d="M51.175,31.529l.206,1.025.005.027a1.241,1.241,0,0,0,.3.632l.007.007c.021.023.043.045.065.066s.038.035.058.051a.879.879,0,0,0,.135.092.471.471,0,0,0,.116.046.273.273,0,0,0,.107.005A16.865,16.865,0,0,1,71.514,47.236a14.809,14.809,0,0,1,.174,1.635c.008.163.045.656.027.822a5.089,5.089,0,0,1-.42.7c-.615.908-1.22,1.823-1.83,2.734-1.221,1.823-2.429,3.654-3.646,5.479Q64.906,59.979,64,61.35c-.6.915-1.2,1.835-1.824,2.739-.155.226-.312.451-.464.68s-.3.461-.455.685a3.744,3.744,0,0,1-.248.328,1.845,1.845,0,0,1-.373.169q-.387.139-.779.265a15.355,15.355,0,0,1-3.217.662"/><path class="cls-1" d="M36.035,54.886q-.119-.47-.214-.945l.079-.016,1.448-.291.024,0a1.241,1.241,0,0,0,.636-.306l.005,0c.023-.021.044-.043.066-.065s.035-.038.051-.058a.877.877,0,0,0,.092-.135.47.47,0,0,0,.046-.116.272.272,0,0,0,.005-.107,16.688,16.688,0,0,1-.213-3.2v-.009a.258.258,0,0,0-.006-.052.316.316,0,0,0-.016-.05.485.485,0,0,0-.063-.108.892.892,0,0,0-.1-.115,1.259,1.259,0,0,0-.133-.108l-.008-.006a1.241,1.241,0,0,0-.667-.216l-1.5-.1-.081-.005a19.21,19.21,0,0,1,.983-4.985l.077.026,1.422.48a1.241,1.241,0,0,0,.7.053h.006q.045-.01.089-.024t.079-.027a.884.884,0,0,0,.138-.066.481.481,0,0,0,.1-.075.282.282,0,0,0,.059-.086l0-.009a16.715,16.715,0,0,1,1.414-2.88l.006-.011a.691.691,0,0,0-.064-.534l0-.006a1.241,1.241,0,0,0-.472-.524l-1.249-.832-.067-.045A19.209,19.209,0,0,1,42.045,35.5l.053.061.992,1.127a1.241,1.241,0,0,0,.582.4l.007,0c.03.009.059.017.089.024l.076.015a.878.878,0,0,0,.163.012.471.471,0,0,0,.123-.018.273.273,0,0,0,.1-.049,16.671,16.671,0,0,1,2.664-1.787l.011-.006c.149-.091.2-.351.212-.494v-.007a1.241,1.241,0,0,0-.147-.69L46.3,32.742l-.036-.073a19.373,19.373,0,0,1,2.651-1.078"/><polygon class="cls-1" points="134.126 30.264 133.712 29.061 133.322 28.027 133.293 27.965 132.92 27.167 132.534 26.844 132.195 27.03 131.999 27.653 131.963 28.626 132.186 29.892 132.616 31.128 133.186 32.158 133.805 32.878 134.334 33.168 134.681 32.997 134.746 32.386 134.5 31.413 134.126 30.264"/><polygon class="cls-1" points="15.875 30.264 16.288 29.061 16.679 28.027 16.708 27.965 17.08 27.167 17.466 26.844 17.805 27.03 18.002 27.653 18.038 28.626 17.815 29.892 17.384 31.128 16.814 32.158 16.195 32.878 15.667 33.168 15.32 32.997 15.255 32.386 15.5 31.413 15.875 30.264"/><path class="cls-1" d="M98.651,63.963l.409.923a1.9,1.9,0,0,0,1.561,1.034,3.417,3.417,0,0,0,1.9-.343,3.3,3.3,0,0,0,1.352-1.181,1.859,1.859,0,0,0,.206-1.734l-.4-.9"/><polygon class="cls-1" points="95.974 65.763 95.516 64.896 93.459 65.903 93.658 66.351 94.116 67.218 96.173 66.212 95.974 65.763"/><path class="cls-1" d="M93.566,66.144a.513.513,0,0,0-.261.6l.165.371.01.021.775,1.466"/><path class="cls-1" d="M105.547,64.854l.093-.048.35-.723q3.572-1.846,7.087-3.8l.521.073.815-.456"/><polyline class="cls-1" points="113.361 63.212 106.987 66.331 106.752 66.799 103.969 68.161"/><path class="cls-1" d="M118.631,52.545l.316.225a.346.346,0,0,1,.111.125l.263.5"/><polyline class="cls-1" points="119.326 53.391 120.596 55.795 120.629 55.869 120.93 56.44 120.948 56.477 121.199 57.045"/><polyline class="cls-1" points="30.675 53.391 29.405 55.795 29.372 55.869 29.07 56.44 29.053 56.477 28.801 57.045"/><path class="cls-1" d="M31.37,52.545l-.316.225a.346.346,0,0,0-.111.125l-.263.5"/><polyline class="cls-1" points="36.639 63.212 43.014 66.331 43.249 66.799 46.032 68.161"/><path class="cls-1" d="M44.454,64.854l-.093-.048-.35-.723q-3.572-1.846-7.087-3.8l-.521.073-.815-.456"/><path class="cls-1" d="M56.434,66.144a.513.513,0,0,1,.261.6l-.165.371-.01.021-.775,1.466"/><polygon class="cls-1" points="54.027 65.763 54.485 64.896 56.541 65.903 56.342 66.351 55.884 67.218 53.828 66.212 54.027 65.763"/><path class="cls-1" d="M51.35,63.963l-.409.923a1.9,1.9,0,0,1-1.561,1.034,3.417,3.417,0,0,1-1.9-.343,3.3,3.3,0,0,1-1.352-1.181,1.859,1.859,0,0,1-.206-1.734l.4-.9"/><path class="cls-1" d="M51.453,62.968a1.628,1.628,0,0,1-1.171,1.905,3.234,3.234,0,0,1-2.389-.231,3.1,3.1,0,0,1-1.572-1.632A1.61,1.61,0,0,1,47,60.993"/><path class="cls-1" d="M51.345,63.333l-.227.513a1.724,1.724,0,0,1-1.414.936,3.094,3.094,0,0,1-1.721-.31,2.99,2.99,0,0,1-1.224-1.07,1.683,1.683,0,0,1-.187-1.57l.22-.5"/><path class="cls-1" d="M48.215,63.947a2.966,2.966,0,0,1-1.257-1.124,1.629,1.629,0,0,1-.1-1.629,1.788,1.788,0,0,1,1.421-.83,3.115,3.115,0,0,1,1.658.318A2.966,2.966,0,0,1,51.2,61.806a1.629,1.629,0,0,1,.1,1.629,1.788,1.788,0,0,1-1.421.83A3.114,3.114,0,0,1,48.215,63.947Z"/><path class="cls-1" d="M48.567,63.281a1.632,1.632,0,0,1-.744-.665.964.964,0,0,1-.058-.964,1.058,1.058,0,0,1,.841-.491,1.725,1.725,0,0,1,.981.188,1.632,1.632,0,0,1,.744.665.964.964,0,0,1,.058.964,1.058,1.058,0,0,1-.841.491A1.725,1.725,0,0,1,48.567,63.281Z"/><polyline class="cls-1" points="52.227 63.11 50.111 67.116 44.634 64.437"/><polyline class="cls-1" points="51.47 62.739 52.227 63.11 51.796 64.082 49.68 68.089 44.203 65.409 44.634 64.437 46.75 60.43 47.311 60.704"/><path class="cls-1" d="M30.57,57.04l-.921-.451c-.147-.072-.307-.249-.214-.425l1.873-3.546c.093-.175.336-.156.483-.084L33,53.127q2.752,1.621,5.541,3.175l.225.488q3.379,1.876,6.81,3.654l.8-.128.337.173"/><line class="cls-1" x1="61.814" y1="86.954" x2="62.01" y2="86.745"/><line class="cls-1" x1="61.814" y1="86.439" x2="62.01" y2="86.745"/><line class="cls-1" x1="61.279" y1="86.172" x2="61.814" y2="86.439"/><line class="cls-1" x1="61.279" y1="87.078" x2="61.814" y2="86.954"/><line class="cls-1" x1="60.549" y1="87.096" x2="61.279" y2="87.078"/><line class="cls-1" x1="60.549" y1="86.047" x2="61.279" y2="86.172"/><line class="cls-1" x1="59.818" y1="87.032" x2="60.549" y2="87.096"/><line class="cls-1" x1="59.818" y1="86.123" x2="60.549" y2="86.047"/><line class="cls-1" x1="59.283" y1="86.873" x2="59.818" y2="87.032"/><line class="cls-1" x1="59.283" y1="86.355" x2="59.818" y2="86.123"/><line class="cls-1" x1="59.088" y1="86.651" x2="59.283" y2="86.873"/><line class="cls-1" x1="59.088" y1="86.481" x2="59.283" y2="86.355"/><line class="cls-1" x1="59.088" y1="86.481" x2="59.088" y2="86.651"/><polyline class="cls-1" points="62.191 18.336 57.021 18.466 53.092 18.612 49.801 18.771 46.324 18.995 42.822 19.315 39.054 19.844 35.323 20.817 31.687 22.529"/><polygon class="cls-1" points="16.045 49.774 16.164 48.591 16.518 47.566 16.995 46.898 17.577 46.654 18.097 46.902 18.488 47.574 18.72 48.567 18.8 49.785 18.72 51.002 18.488 51.993 18.097 52.661 17.577 52.905 16.995 52.657 16.518 51.986 16.165 50.968 16.045 49.774"/><polygon class="cls-1" points="16.288 70.462 16.679 71.499 17.028 72.254 17.412 72.58 17.749 72.4 17.95 71.777 17.981 70.814 17.748 69.631 17.33 68.431 16.779 67.442 16.195 66.662 15.672 66.473 15.342 66.651 15.277 67.233 15.494 68.122 15.875 69.26 16.288 70.462"/><polygon class="cls-1" points="18.644 61.677 18.662 63.338 18.434 64.627 18.09 65.368 17.608 65.951 17.049 66.333 16.435 66.394 15.762 66.001 15.231 65.259 14.78 64.095 14.318 62.734 14.242 60.831 14.303 59.232 14.592 58.312 15.029 57.641 15.553 57.229 16.105 57.091 16.649 57.244 17.244 57.807 17.799 58.728 18.309 59.993 18.644 61.677"/><polygon class="cls-1" points="17.799 40.832 17.244 41.75 16.649 42.309 16.105 42.458 15.553 42.316 15.029 41.901 14.592 41.226 14.303 40.302 14.242 38.7 14.442 36.94 14.78 35.436 15.231 34.275 15.762 33.536 16.435 33.147 17.049 33.212 17.608 33.598 18.09 34.185 18.434 34.929 18.662 36.222 18.644 37.885 18.309 39.568 17.799 40.832"/><path class="cls-1" d="M98.547,62.968a1.628,1.628,0,0,0,1.171,1.905,3.234,3.234,0,0,0,2.389-.231,3.1,3.1,0,0,0,1.572-1.632A1.61,1.61,0,0,0,103,60.993"/><polygon class="cls-1" points="48.514 16.862 48.687 16.322 49.256 15.8 50.079 15.537 50.938 15.692 51.509 16.104 51.686 16.621 51.513 17.153 50.951 17.644 50.118 17.874 49.291 17.781 48.693 17.363 48.514 16.862"/><path class="cls-1" d="M98.655,63.333l.227.513a1.724,1.724,0,0,0,1.414.936,3.094,3.094,0,0,0,1.721-.31,2.99,2.99,0,0,0,1.224-1.07,1.683,1.683,0,0,0,.187-1.57l-.22-.5"/><polygon class="cls-1" points="132.202 40.832 132.757 41.75 133.352 42.309 133.895 42.458 134.447 42.316 134.972 41.901 135.409 41.226 135.697 40.302 135.759 38.7 135.559 36.94 135.221 35.436 134.769 34.275 134.239 33.536 133.565 33.147 132.951 33.212 132.393 33.598 131.91 34.185 131.567 34.929 131.339 36.222 131.357 37.885 131.692 39.568 132.202 40.832"/><polygon class="cls-1" points="131.357 61.677 131.339 63.338 131.567 64.627 131.91 65.368 132.393 65.951 132.951 66.333 133.565 66.394 134.239 66.001 134.769 65.259 135.221 64.095 135.682 62.734 135.759 60.831 135.697 59.232 135.409 58.312 134.972 57.641 134.447 57.229 133.895 57.091 133.352 57.244 132.757 57.807 132.202 58.728 131.692 59.993 131.357 61.677"/><polygon class="cls-1" points="133.712 70.462 133.322 71.499 132.973 72.254 132.588 72.58 132.252 72.4 132.051 71.777 132.019 70.814 132.252 69.631 132.671 68.431 133.222 67.442 133.805 66.662 134.328 66.473 134.659 66.651 134.723 67.233 134.507 68.122 134.126 69.26 133.712 70.462"/><path class="cls-1" d="M53.886,67.172c.211.1.439.358.3.608s-.474.214-.68.113"/><path class="cls-1" d="M53.505,67.893c-.211-.1-.439-.358-.3-.608s.474-.214.68-.113"/><line class="cls-1" x1="51.874" y1="63.906" x2="54.364" y2="65.124"/><line class="cls-1" x1="52.864" y1="67.965" x2="54.092" y2="68.565"/><line class="cls-1" x1="52.574" y1="68.515" x2="52.864" y2="67.965"/><polygon class="cls-1" points="133.955 49.774 133.836 48.591 133.483 47.566 133.006 46.898 132.424 46.654 131.904 46.902 131.512 47.574 131.281 48.567 131.201 49.785 131.281 51.002 131.512 51.993 131.904 52.661 132.424 52.905 133.006 52.657 133.483 51.986 133.835 50.968 133.955 49.774"/><path class="cls-1" d="M101.786,63.947a2.966,2.966,0,0,0,1.257-1.124,1.629,1.629,0,0,0,.1-1.629,1.788,1.788,0,0,0-1.421-.83,3.115,3.115,0,0,0-1.658.318A2.966,2.966,0,0,0,98.8,61.806a1.629,1.629,0,0,0-.1,1.629,1.788,1.788,0,0,0,1.421.83A3.114,3.114,0,0,0,101.786,63.947Z"/><path class="cls-1" d="M101.434,63.281a1.632,1.632,0,0,0,.744-.665.964.964,0,0,0,.058-.964,1.058,1.058,0,0,0-.841-.491,1.725,1.725,0,0,0-.981.188,1.632,1.632,0,0,0-.744.665.964.964,0,0,0-.058.964,1.058,1.058,0,0,0,.841.491A1.725,1.725,0,0,0,101.434,63.281Z"/><polyline class="cls-1" points="38.757 39.362 38.237 40.143 37.141 42.373 36.613 43.937"/><polyline class="cls-1" points="35.757 48.889 35.71 49.632 35.871 52.102 36.218 53.861"/><polyline class="cls-1" points="55.77 68.56 57.172 68.469 59.611 67.985 61.631 67.3 61.966 67.187 62.188 66.855 62.74 66.03 72.947 50.762 73.499 49.936 73.705 49.628 73.683 49.286 73.542 47.148 73.057 44.71 72.258 42.356 71.158 40.124 69.776 38.057 68.136 36.187 66.266 34.548 64.198 33.168 61.967 32.069 59.675 31.292"/><path class="cls-1" d="M56.719,66.668a.56.56,0,0,0,.119-.44l-.069-.578a.305.305,0,0,1,.256-.338c.569-.088,1.134-.2,1.7-.317l.343-.072.228-.049.141-.031c.083-.019.165-.039.248-.057s.192-.038.287-.061c.047-.011.093-.023.139-.038l.07-.025.005,0a.065.065,0,0,0,.021-.013.089.089,0,0,0,.012-.016q.024-.037.046-.076c.029-.049.056-.1.082-.149.092-.178.172-.362.262-.542.044-.088.091-.176.139-.262.065-.115.132-.228.2-.341q.148-.244.3-.485c.179-.28.363-.556.549-.831.338-.5.684-.994,1.024-1.492q.211-.308.419-.618.477-.709.946-1.423a.305.305,0,0,1,.482-.035.731.731,0,0,0,1.154-.082l.845-1.27a.731.731,0,0,0-.376-1.1.305.305,0,0,1-.157-.459l.476-.711c.283-.421.567-.84.85-1.261q.245-.365.487-.732.205-.312.408-.626c.259-.4.512-.808.773-1.21l.1-.154.16-.244q.075-.114.151-.226c.1-.141.194-.28.3-.414q.065-.083.133-.163c.1-.118.2-.231.3-.35.036-.043.071-.087.1-.132l.023-.031,0,0,.008-.015a.074.074,0,0,0,0-.025q0-.039-.007-.078c-.006-.044-.014-.088-.024-.132-.014-.062-.03-.124-.044-.186s-.025-.114-.038-.171q-.011-.048-.022-.1c-.019-.08-.039-.16-.058-.239-.037-.152-.075-.3-.11-.457-.049-.211-.1-.423-.142-.634-.041-.186-.082-.371-.124-.556q-.05-.218-.1-.435c-.06-.247-.124-.494-.194-.739-.058-.2-.121-.4-.189-.6a.305.305,0,0,1,.266-.4.745.745,0,0,0,.607-1.085L69.535,42a.746.746,0,0,0-1.213-.161.305.305,0,0,1-.481-.04c-.3-.458-.614-.9-.954-1.328a14.63,14.63,0,0,0-2.16-2.2,15.78,15.78,0,0,0-1.337-.989,15.411,15.411,0,0,0-2.722-1.437,15.205,15.205,0,0,0-1.521-.522,15.571,15.571,0,0,0-1.582-.364.305.305,0,0,1-.222-.432.731.731,0,0,0-.613-1.045l-1.522-.1a.724.724,0,0,0-.17.009.731.731,0,0,0-.57.95.305.305,0,0,1-.275.4,15.6,15.6,0,0,0-3.172.482,15.339,15.339,0,0,0-5.667,2.826A15.465,15.465,0,0,0,44.167,39.1a15.227,15.227,0,0,0-1.079,1.167.305.305,0,0,1-.49-.028.7.7,0,0,0-1.166,0l-.825,1.283a.7.7,0,0,0,.44,1.056.305.305,0,0,1,.207.439,15.449,15.449,0,0,0-1.573,9.306,15.152,15.152,0,0,0,.311,1.558,15.685,15.685,0,0,0,.481,1.549.305.305,0,0,1-.264.41.675.675,0,0,0-.561.964l.3.641"/><path class="cls-1" d="M93.281,66.668a.56.56,0,0,1-.119-.44l.069-.578a.305.305,0,0,0-.256-.338c-.569-.088-1.134-.2-1.7-.317l-.343-.072-.228-.049-.141-.031c-.083-.019-.165-.039-.248-.057s-.192-.038-.287-.061c-.047-.011-.093-.023-.139-.038l-.07-.025-.005,0a.065.065,0,0,1-.021-.013.089.089,0,0,1-.012-.016q-.024-.037-.046-.076c-.029-.049-.056-.1-.082-.149-.092-.178-.172-.362-.262-.542-.044-.088-.091-.176-.139-.262-.065-.115-.132-.228-.2-.341q-.148-.244-.3-.485c-.179-.28-.363-.556-.549-.831-.338-.5-.684-.994-1.024-1.492q-.211-.308-.419-.618-.477-.709-.946-1.423a.305.305,0,0,0-.482-.035.731.731,0,0,1-1.154-.082l-.845-1.27a.731.731,0,0,1,.376-1.1.305.305,0,0,0,.157-.459l-.476-.711c-.283-.421-.567-.84-.85-1.261q-.245-.365-.487-.732-.205-.312-.408-.626c-.259-.4-.512-.808-.773-1.21l-.1-.154-.16-.244q-.075-.114-.151-.226c-.1-.141-.194-.28-.3-.414q-.065-.083-.133-.163c-.1-.118-.2-.231-.3-.35-.036-.043-.071-.087-.1-.132l-.023-.031,0,0-.008-.015a.074.074,0,0,1,0-.025q0-.039.007-.078c.006-.044.014-.088.024-.132.014-.062.03-.124.044-.186s.025-.114.038-.171q.011-.048.022-.1c.019-.08.039-.16.058-.239.037-.152.075-.3.11-.457.049-.211.1-.423.142-.634.041-.186.082-.371.124-.556q.05-.218.1-.435c.06-.247.124-.494.194-.739.058-.2.121-.4.189-.6a.305.305,0,0,0-.266-.4.745.745,0,0,1-.607-1.085l.7-1.356a.746.746,0,0,1,1.213-.161.305.305,0,0,0,.481-.04c.3-.458.614-.9.954-1.328a14.63,14.63,0,0,1,2.16-2.2,15.78,15.78,0,0,1,1.337-.989,15.411,15.411,0,0,1,2.722-1.437,15.205,15.205,0,0,1,1.521-.522,15.571,15.571,0,0,1,1.582-.364.305.305,0,0,0,.222-.432.731.731,0,0,1,.613-1.045l1.522-.1a.724.724,0,0,1,.17.009.731.731,0,0,1,.57.95.305.305,0,0,0,.275.4,15.6,15.6,0,0,1,3.172.482,15.339,15.339,0,0,1,5.667,2.826,15.466,15.466,0,0,1,1.185,1.042,15.228,15.228,0,0,1,1.079,1.167.305.305,0,0,0,.49-.028.7.7,0,0,1,1.166,0l.825,1.283a.7.7,0,0,1-.44,1.056.305.305,0,0,0-.207.439,15.449,15.449,0,0,1,1.573,9.306,15.151,15.151,0,0,1-.311,1.558,15.683,15.683,0,0,1-.481,1.549.305.305,0,0,0,.264.41.675.675,0,0,1,.561.964l-.3.641"/><polyline class="cls-1" points="94.231 68.56 92.829 68.469 90.39 67.985 88.369 67.3 88.034 67.187 87.812 66.855 87.26 66.03 77.053 50.762 76.501 49.936 76.296 49.628 76.318 49.286 76.458 47.148 76.943 44.71 77.742 42.356 78.843 40.124 80.225 38.057 81.865 36.187 83.735 34.548 85.803 33.168 88.034 32.069 90.326 31.292"/><polyline class="cls-1" points="114.243 48.889 114.291 49.632 114.129 52.102 113.782 53.861"/><polyline class="cls-1" points="111.243 39.362 111.763 40.143 112.859 42.373 113.387 43.937"/><polyline class="cls-1" points="97.773 63.11 99.889 67.116 105.366 64.437"/><polyline class="cls-1" points="98.531 62.739 97.773 63.11 98.204 64.082 100.32 68.089 105.797 65.409 105.366 64.437 103.25 60.43 102.69 60.704"/><polygon class="cls-1" points="101.486 16.862 101.313 16.322 100.744 15.8 99.921 15.537 99.062 15.692 98.492 16.104 98.315 16.621 98.488 17.153 99.05 17.644 99.883 17.874 100.71 17.781 101.307 17.363 101.486 16.862"/><polyline class="cls-1" points="87.81 18.336 92.98 18.466 96.909 18.612 100.199 18.771 103.676 18.995 107.179 19.315 110.947 19.844 114.677 20.817 118.313 22.529"/><line class="cls-1" x1="90.912" y1="86.481" x2="90.912" y2="86.651"/><line class="cls-1" x1="90.912" y1="86.481" x2="90.717" y2="86.355"/><line class="cls-1" x1="90.912" y1="86.651" x2="90.717" y2="86.873"/><line class="cls-1" x1="90.717" y1="86.355" x2="90.182" y2="86.123"/><line class="cls-1" x1="90.717" y1="86.873" x2="90.182" y2="87.032"/><line class="cls-1" x1="90.182" y1="86.123" x2="89.452" y2="86.047"/><line class="cls-1" x1="90.182" y1="87.032" x2="89.452" y2="87.096"/><line class="cls-1" x1="89.452" y1="86.047" x2="88.721" y2="86.172"/><line class="cls-1" x1="89.452" y1="87.096" x2="88.721" y2="87.078"/><line class="cls-1" x1="88.721" y1="87.078" x2="88.186" y2="86.954"/><line class="cls-1" x1="88.721" y1="86.172" x2="88.186" y2="86.439"/><line class="cls-1" x1="88.186" y1="86.439" x2="87.991" y2="86.745"/><line class="cls-1" x1="88.186" y1="86.954" x2="87.991" y2="86.745"/><path class="cls-1" d="M119.431,57.04l.921-.451c.147-.072.307-.249.214-.425l-1.873-3.546c-.093-.175-.336-.156-.483-.084L117,53.127q-2.752,1.621-5.541,3.175l-.225.488q-3.379,1.876-6.81,3.654l-.8-.128-.337.173"/><polyline class="cls-1" points="101.162 31.593 102.584 32.077 104.813 33.178 106.88 34.562 107.952 35.503"/><polyline class="cls-1" points="48.838 31.593 47.417 32.077 45.187 33.178 43.121 34.562 42.049 35.503"/><path class="cls-1" d="M96.114,67.172c-.211.1-.439.358-.3.608s.474.214.68.113"/><path class="cls-1" d="M96.5,67.893c.211-.1.439-.358.3-.608s-.474-.214-.68-.113"/><line class="cls-1" x1="98.126" y1="63.906" x2="95.636" y2="65.124"/><line class="cls-1" x1="97.136" y1="67.965" x2="95.909" y2="68.565"/><line class="cls-1" x1="97.427" y1="68.515" x2="97.136" y2="67.965"/><polyline class="cls-1" points="85.316 78.145 85.154 78.144 84.726 78.143 84.183 78.142 83.588 78.141 82.92 78.14 82.129 78.138 81.137 78.137 79.705 78.136 77.36 78.134 75 78.134 72.64 78.134 70.296 78.136 68.864 78.137 67.871 78.138 67.081 78.14 66.412 78.141 65.817 78.142 65.275 78.143 64.846 78.144 64.684 78.145"/><polyline class="cls-1" points="62.277 68.641 62.617 67.42 63.453 66.459 65.775 63.794 67.308 62.035 69.072 60.01 71.098 57.685 73.209 55.261 75 54.346 76.792 55.261 78.903 57.685 80.929 60.01 82.693 62.035 84.226 63.794 86.547 66.459 87.383 67.42 87.723 68.641"/><polyline class="cls-1" points="75.985 31.116 76.019 31.125 76.76 31.84 77.046 32.846 77.046 35.638 76.76 36.644 76.019 37.359 75 37.631 75 37.631 75 37.631 73.981 37.359 73.241 36.644 72.955 35.638 72.955 32.846 73.241 31.84 73.981 31.125 74.015 31.116"/><polygon class="cls-1" points="75 18.205 78.955 18.218 81.772 18.246 83.284 18.262 86.799 18.319 88.026 18.339 92.884 18.462 96.937 18.612 100.227 18.771 103.704 18.995 107.207 19.315 110.975 19.845 114.705 20.817 118.341 22.529 121.338 25.124 123.36 28.536 124.278 31.407 124.879 33.846 125.389 36.637 125.873 41.475 126.098 45.748 126.178 49.869 126.102 53.362 125.963 56.322 125.764 59.299 125.389 63.093 124.559 67.632 123.256 71.504 121.338 74.583 121.04 74.999 118.334 77.236 114.602 78.732 110.545 79.564 106.356 80.049 102.3 80.389 98.752 80.633 96.122 80.792 94.131 80.571 92.359 79.737 92.216 79.376 91.872 79.39 91.391 79.411 90.665 79.444 90.177 78.946 89.089 76.85 87.346 73.24 86.435 71.267 86.018 69.783 86.477 68.779 87.617 68.64 90.019 68.657 92.26 68.635 94.495 68.601 96.647 68.547 99.137 68.445 101.902 68.294 104.675 68.115 107.367 67.794 109.806 67.074 111.659 65.937 113.047 64.001 113.827 62.041 114.398 59.97 114.803 58.112 114.947 57.042 115.967 57.04 117.766 57.037 118.365 57.037 119.09 57.039 119.649 57.04 120.307 57.042 120.964 57.044 121.622 57.046 122.18 57.048 122.906 57.05 122.977 55.571 123.061 53.401 123.133 49.872 123.056 45.717 122.842 41.401 122.386 36.518 122.002 34.235 116.845 34.235 114.808 32.989 113.386 32.502 111.697 32.176 108.728 31.928 105.777 31.76 102.803 31.642 99.685 31.549 96.496 31.476 92.718 31.347 87.909 31.236 83.236 31.165 78.944 31.125 75 31.113 71.057 31.125 66.765 31.165 62.091 31.236 57.283 31.347 53.505 31.476 50.315 31.549 47.198 31.642 44.224 31.76 41.272 31.928 38.303 32.176 36.614 32.502 35.193 32.989 33.156 34.235 27.998 34.235 27.615 36.518 27.158 41.401 26.945 45.717 26.868 49.872 26.94 53.401 27.023 55.571 27.095 57.05 27.82 57.048 28.379 57.046 29.037 57.044 29.694 57.042 30.351 57.04 30.91 57.039 31.636 57.037 32.235 57.037 34.033 57.04 35.054 57.042 35.197 58.112 35.603 59.97 36.174 62.041 36.953 64.001 38.342 65.937 40.194 67.074 42.633 67.794 45.326 68.115 48.099 68.294 50.864 68.445 53.354 68.547 55.505 68.601 57.74 68.635 59.982 68.657 62.383 68.64 63.524 68.779 63.982 69.783 63.566 71.267 62.654 73.24 60.911 76.85 59.824 78.946 59.336 79.444 58.61 79.411 58.129 79.39 57.785 79.376 57.642 79.737 55.869 80.571 53.878 80.792 51.248 80.633 47.701 80.389 43.644 80.049 39.455 79.564 35.399 78.732 31.667 77.236 28.961 74.999 28.663 74.583 26.744 71.504 25.441 67.632 24.612 63.093 24.236 59.299 24.038 56.322 23.899 53.362 23.823 49.869 23.902 45.748 24.128 41.475 24.612 36.637 25.121 33.846 25.723 31.407 26.641 28.536 28.663 25.124 31.659 22.529 35.295 20.817 39.026 19.845 42.794 19.315 46.296 18.995 49.773 18.771 53.064 18.612 57.117 18.462 61.974 18.339 63.202 18.319 66.716 18.262 68.228 18.246 71.045 18.218 75 18.205"/></g></svg>