<?xml version="1.0" encoding="UTF-8" standalone="no"?>
<svg width="272px" height="272px" viewBox="0 0 272 272" version="1.1" xmlns="http://www.w3.org/2000/svg" xmlns:xlink="http://www.w3.org/1999/xlink" xmlns:sketch="http://www.bohemiancoding.com/sketch/ns">
    <!-- Generator: Sketch 3.4.4 (17249) - http://www.bohemiancoding.com/sketch -->
    <title>pc-01</title>
    <desc>Created with Sketch.</desc>
    <defs>
        <radialGradient cx="50%" cy="50%" fx="50%" fy="50%" r="49.9996183%" id="radialGradient-1">
            <stop stop-color="#75C69E" offset="0%"></stop>
            <stop stop-color="#76C7A0" offset="33.86%"></stop>
            <stop stop-color="#7AC8A5" offset="54.22%"></stop>
            <stop stop-color="#80CBAF" offset="71.01%"></stop>
            <stop stop-color="#89CFBD" offset="85.76%"></stop>
            <stop stop-color="#93D4D0" offset="99.21%"></stop>
            <stop stop-color="#94D5D1" offset="100%"></stop>
        </radialGradient>
    </defs>
    <g id="Page-1" stroke="none" stroke-width="1" fill="none" fill-rule="evenodd" sketch:type="MSPage">
        <g id="pc-01" sketch:type="MSArtboardGroup">
            <g id="pc-iris-+-pc-pupil" sketch:type="MSLayerGroup" transform="translate(4.000000, 5.000000)">
                <path d="M263.002,131.003 C263.002,203.35 204.353,262 132.002,262 C59.648,262 0.998,203.35 0.998,131.003 C0.998,58.651 59.648,0 132.002,0 C204.353,0 263.002,58.651 263.002,131.003 L263.002,131.003 Z" id="iris" fill="url(#radialGradient-1)" sketch:type="MSShapeGroup"></path>
                <path d="M58.15,131.003 C58.15,90.28 91.28,57.15 132.002,57.15 C172.725,57.15 205.855,90.28 205.855,131.003 C205.854,171.724 172.725,204.853 132.002,204.853 C91.28,204.853 58.15,171.724 58.15,131.003 Z" id="pupil" stroke="#FFFFFF" stroke-width="12" fill="#080707" sketch:type="MSShapeGroup"></path>
            </g>
        </g>
    </g>
</svg>