<svg xmlns="http://www.w3.org/2000/svg" width="323.14961" height="323.14961" viewBox="0 0 323.14961 323.14961">
  <defs>
    <style>
      .cls-1 {
        fill: #e5e5e5;
      }

      .cls-2, .cls-4, .cls-6 {
        fill: none;
      }

      .cls-2, .cls-4 {
        stroke: #010101;
        stroke-linecap: round;
        stroke-linejoin: round;
      }

      .cls-2 {
        stroke-width: 0.75px;
      }

      .cls-3, .cls-5 {
        fill: #97d2ad;
      }

      .cls-4, .cls-6 {
        stroke-width: 0.5px;
      }

      .cls-5 {
        stroke: #231f20;
      }

      .cls-5, .cls-6 {
        stroke-miterlimit: 10;
      }

      .cls-6 {
        stroke: #000;
      }
    </style>
  </defs>
  <title>community</title>
  <g id="_2.community" data-name="2.community">
    <g id="bg-2" data-name="bg">
      <circle class="cls-1" cx="161.5747" cy="161.56864" r="109.73966"/>
    </g>
    <g id="network">
      <line class="cls-2" x1="177.96364" y1="161.5748" x2="206.92416" y2="161.5748"/>
      <line class="cls-2" x1="96.08418" y1="134.50433" x2="119.00702" y2="157.38077"/>
      <line class="cls-2" x1="115.36532" y1="178.12463" x2="56.83318" y2="178.12463"/>
      <path class="cls-2" d="M165.78049,206.08177a13.12738,13.12738,0,0,1-4.20579-10.1533"/>
      <line class="cls-2" x1="161.5747" y1="177.96354" x2="161.5747" y2="195.92847"/>
      <path class="cls-2" d="M161.5747,116.29545a13.12691,13.12691,0,0,0-4.20559-10.1533"/>
      <line class="cls-2" x1="161.5747" y1="145.18586" x2="161.5747" y2="116.29545"/>
      <line class="cls-2" x1="161.5747" y1="145.18586" x2="161.5747" y2="125.65651"/>
      <path class="cls-2" d="M161.5747,125.65651a13.12738,13.12738,0,0,1,4.20579-10.1533"/>
      <line class="cls-2" x1="127.85423" y1="76.62705" x2="157.36912" y2="106.14215"/>
      <path class="cls-2" d="M119.007,157.38077a13.13047,13.13047,0,0,0,10.14175,4.194"/>
      <line class="cls-2" x1="145.18596" y1="161.5748" x2="129.14877" y2="161.5748"/>
      <line class="cls-2" x1="144.13193" y1="56.96802" x2="144.13193" y2="86.95725"/>
      <line class="cls-2" x1="148.33772" y1="97.11055" x2="157.36912" y2="106.14215"/>
      <path class="cls-2" d="M144.13193,86.95725a13.12709,13.12709,0,0,0,4.20579,10.1533"/>
      <path class="cls-2" d="M206.92416,161.5748a13.12761,13.12761,0,0,1,10.1533,4.20559"/>
      <path class="cls-2" d="M150.20507,237.15886a13.12761,13.12761,0,0,1,4.20559,10.1533"/>
      <line class="cls-2" x1="150.20507" y1="237.15886" x2="122.54477" y2="209.49856"/>
      <path class="cls-2" d="M122.54477,209.49856a13.1279,13.1279,0,0,1-4.20559-10.1533"/>
      <path class="cls-2" d="M177.28,47.05786a6.564,6.564,0,0,1,2.10279-5.07665"/>
      <line class="cls-2" x1="165.78049" y1="115.5032" x2="188.77972" y2="92.50398"/>
      <line class="cls-2" x1="177.28" y1="101.02983" x2="177.28" y2="47.05786"/>
      <line class="cls-2" x1="165.78049" y1="115.5032" x2="175.17721" y2="106.10648"/>
      <path class="cls-2" d="M177.28,101.02983a6.564,6.564,0,0,1-2.10279,5.07665"/>
      <line class="cls-2" x1="179.3828" y1="41.98121" x2="187.84706" y2="33.51716"/>
      <path class="cls-2" d="M137.7188,159.472a6.56424,6.56424,0,0,0,5.07665,2.10279"/>
      <line class="cls-2" x1="137.7188" y1="159.47201" x2="134.88029" y2="156.6333"/>
      <path class="cls-2" d="M130.6747,146.48a13.12691,13.12691,0,0,0,4.20559,10.1533"/>
      <line class="cls-2" x1="130.6747" y1="146.48" x2="130.6747" y2="122.49158"/>
      <path class="cls-2" d="M126.46891,112.33827a13.12709,13.12709,0,0,1,4.20579,10.1533"/>
      <path class="cls-2" d="M115.36532,178.12463a6.564,6.564,0,0,0,5.07665-2.10279"/>
      <line class="cls-2" x1="118.33918" y1="181.09848" x2="118.33918" y2="242.58848"/>
      <path class="cls-2" d="M118.33918,181.09848a6.56366,6.56366,0,0,1,2.10279-5.07665"/>
      <line class="cls-2" x1="132.78621" y1="163.6776" x2="120.44197" y2="176.02183"/>
      <path class="cls-2" d="M132.78621,163.6776a6.56366,6.56366,0,0,1,5.07665-2.10279"/>
      <line class="cls-2" x1="154.41066" y1="279.71783" x2="154.41066" y2="247.31216"/>
      <path class="cls-2" d="M217.07746,209.9044a13.1279,13.1279,0,0,0,4.20559,10.1533"/>
      <line class="cls-2" x1="221.28305" y1="220.05771" x2="250.91161" y2="249.68626"/>
      <path class="cls-2" d="M189.50895,155.83113a5.74353,5.74353,0,0,1-5.74347,5.74368"/>
      <line class="cls-2" x1="189.50895" y1="144.13507" x2="189.50895" y2="155.83113"/>
      <line class="cls-2" x1="189.50895" y1="144.13507" x2="189.50895" y2="133.82798"/>
      <path class="cls-2" d="M189.50895,133.828a13.12732,13.12732,0,0,1,4.20559-10.1533"/>
      <line class="cls-2" x1="217.07746" y1="185.26152" x2="217.07746" y2="209.9044"/>
      <path class="cls-2" d="M212.87188,175.10822a13.12761,13.12761,0,0,1,4.20559,10.1533"/>
      <line class="cls-2" x1="203.54405" y1="165.78039" x2="212.87188" y2="175.10822"/>
      <path class="cls-2" d="M203.54405,165.78039a13.12761,13.12761,0,0,0-10.1533-4.20559"/>
      <line class="cls-2" x1="219.17783" y1="98.21138" x2="193.71453" y2="123.67468"/>
      <line class="cls-2" x1="206.92416" y1="161.5748" x2="223.59272" y2="161.5748"/>
      <path class="cls-2" d="M233.74582,157.36922a13.12718,13.12718,0,0,1-10.1531,4.20559"/>
      <line class="cls-2" x1="233.74582" y1="157.36922" x2="262.67108" y2="128.44416"/>
      <line class="cls-2" x1="79.20834" y1="65.0777" x2="126.46891" y2="112.33827"/>
      <line class="cls-2" x1="246.55385" y1="195.25678" x2="217.07746" y2="165.78039"/>
      <line class="cls-2" x1="181.20537" y1="221.50664" x2="165.78049" y2="206.08177"/>
    </g>
    <g id="node-color">
      <path class="cls-3" d="M55.47587,175.27457a3.70282,3.70282,0,0,0-5.22821,5.20309,3.212,3.212,0,0,0,.20606.25753,3.724,3.724,0,1,0,5.31149-5.22112A3.49991,3.49991,0,0,0,55.47587,175.27457Z"/>
      <path class="cls-3" d="M186.79039,30.54107a3.7028,3.7028,0,0,1,7.376-.01783,3.235,3.235,0,0,1,.03647.328,3.72389,3.72389,0,1,1-7.44751.06383A3.4525,3.4525,0,0,1,186.79039,30.54107Z"/>
      <circle class="cls-3" cx="257.41825" cy="256.19281" r="9.20158" transform="translate(-105.75758 257.6842) rotate(-45.09858)"/>
    </g>
    <g id="nodes">
      <path class="cls-4" d="M128.94021,73.26755a3.7028,3.7028,0,0,0-7.376-.01783,3.23461,3.23461,0,0,0-.03627.328,3.72389,3.72389,0,1,0,7.44751.06383A3.40231,3.40231,0,0,0,128.94021,73.26755Z"/>
      <path class="cls-4" d="M249.50259,194.22727a3.7028,3.7028,0,0,1,.01783,7.376,3.16574,3.16574,0,0,1-.328.03647,3.72389,3.72389,0,0,1-.06383-7.44751A3.45247,3.45247,0,0,1,249.50259,194.22727Z"/>
      <path class="cls-4" d="M187.47144,89.024a3.7028,3.7028,0,0,1,7.376-.01783,3.23461,3.23461,0,0,1,.03627.328,3.72389,3.72389,0,1,1-7.44751.06383A3.40228,3.40228,0,0,1,187.47144,89.024Z"/>
      <path class="cls-4" d="M122.02792,246.86049a3.7028,3.7028,0,0,1-7.376.01783,3.17812,3.17812,0,0,1-.03647-.328,3.72389,3.72389,0,1,1,7.44751-.06383A3.45729,3.45729,0,0,1,122.02792,246.86049Z"/>
      <path class="cls-4" d="M95.86929,128.47657a3.70283,3.70283,0,0,0-5.22821,5.20309,3.2601,3.2601,0,0,0,.20627.25753,3.7239,3.7239,0,1,0,5.31129-5.22112A3.46667,3.46667,0,0,0,95.86929,128.47657Z"/>
      <path class="cls-4" d="M147.82048,52.66479a3.7028,3.7028,0,0,0-7.376-.01783,3.22185,3.22185,0,0,0-.03627.328,3.72389,3.72389,0,0,0,7.44751.06383A3.50431,3.50431,0,0,0,147.82048,52.66479Z"/>
      <path class="cls-4" d="M180.19858,224.83892a3.7028,3.7028,0,0,0,7.376.01783,3.23462,3.23462,0,0,0,.03627-.328,3.72389,3.72389,0,1,0-7.44751-.06383A3.50928,3.50928,0,0,0,180.19858,224.83892Z"/>
      <circle class="cls-4" cx="72.70174" cy="58.57105" r="9.20173" transform="translate(-20.10481 68.72265) rotate(-45.09858)"/>
      <path class="cls-4" d="M158.13117,283.78382a3.7028,3.7028,0,0,1-7.376.01783,3.16537,3.16537,0,0,1-.03627-.328,3.72389,3.72389,0,1,1,7.44751-.06383A3.50428,3.50428,0,0,1,158.13117,283.78382Z"/>
      <circle class="cls-4" cx="225.68432" cy="91.70489" r="9.20173" transform="translate(1.41959 186.82865) rotate(-45.09858)"/>
      <path class="cls-4" d="M261.61442,125.46807a3.7028,3.7028,0,0,1,7.376-.01783,3.22219,3.22219,0,0,1,.03647.328,3.72389,3.72389,0,0,1-7.44751.06383A3.44771,3.44771,0,0,1,261.61442,125.46807Z"/>
      <circle class="cls-5" cx="161.5748" cy="161.5747" r="16.38882" transform="translate(-60.42263 107.44577) rotate(-31.29711)"/>
      <path class="cls-6" d="M55.47587,175.27457a3.70282,3.70282,0,0,0-5.22821,5.20309,3.212,3.212,0,0,0,.20606.25753,3.724,3.724,0,1,0,5.31149-5.22112A3.49991,3.49991,0,0,0,55.47587,175.27457Z"/>
      <path class="cls-6" d="M186.79039,30.54107a3.7028,3.7028,0,0,1,7.376-.01783,3.235,3.235,0,0,1,.03647.328,3.72389,3.72389,0,1,1-7.44751.06383A3.4525,3.4525,0,0,1,186.79039,30.54107Z"/>
      <circle class="cls-6" cx="257.41825" cy="256.19281" r="9.20158" transform="translate(-105.75758 257.6842) rotate(-45.09858)"/>
    </g>
  </g>
</svg>
