<svg id="_1.modular" data-name="1.modular" xmlns="http://www.w3.org/2000/svg" width="323.14961" height="323.14961" viewBox="0 0 323.14961 323.14961">
  <defs>
    <style>
      .cls-1 {
        fill: #e5e5e5;
      }

      .cls-2, .cls-3 {
        fill: none;
      }

      .cls-2 {
        stroke: #010101;
        stroke-linecap: round;
        stroke-linejoin: round;
        stroke-width: 0.75px;
      }

      .cls-3 {
        stroke: #97d2ad;
        stroke-miterlimit: 10;
        stroke-width: 2px;
      }

      .cls-4 {
        fill: #97d2ad;
      }
    </style>
  </defs>
  <title>modular</title>
  <g id="bg">
    <circle class="cls-1" cx="161.57481" cy="161.5748" r="109.80892" transform="translate(-66.92647 161.57481) rotate(-45)"/>
  </g>
  <g id="mod-cube">
    <line class="cls-2" x1="185.06529" y1="247.89318" x2="185.06529" y2="268.84168"/>
    <line class="cls-2" x1="208.55567" y1="77.76001" x2="232.04625" y2="101.25059"/>
    <line class="cls-2" x1="232.04625" y1="101.25059" x2="232.04625" y2="134.471"/>
    <line class="cls-2" x1="232.04625" y1="101.25059" x2="244.1291" y2="89.16773"/>
    <line class="cls-2" x1="161.57471" y1="110.98062" x2="185.06529" y2="134.471"/>
    <line class="cls-2" x1="138.08433" y1="134.471" x2="161.57471" y2="110.98062"/>
    <line class="cls-2" x1="161.57471" y1="157.96158" x2="185.06529" y2="134.471"/>
    <line class="cls-2" x1="185.06529" y1="134.471" x2="185.06529" y2="167.69161"/>
    <line class="cls-2" x1="161.57471" y1="77.76001" x2="185.06529" y2="54.26963"/>
    <line class="cls-2" x1="208.55567" y1="77.76001" x2="208.55567" y2="110.98062"/>
    <line class="cls-2" x1="185.06529" y1="101.25059" x2="208.55567" y2="77.76001"/>
    <line class="cls-2" x1="161.57471" y1="77.76001" x2="185.06529" y2="54.26963"/>
    <line class="cls-2" x1="185.06529" y1="54.26963" x2="208.55567" y2="77.76001"/>
    <line class="cls-2" x1="208.55567" y1="77.76001" x2="208.55567" y2="110.98062"/>
    <line class="cls-2" x1="208.55567" y1="191.18219" x2="232.04625" y2="167.69161"/>
    <line class="cls-2" x1="232.04625" y1="134.471" x2="232.04625" y2="167.69161"/>
    <line class="cls-2" x1="185.06529" y1="247.89318" x2="201.16894" y2="263.99683"/>
    <line class="cls-2" x1="208.55567" y1="224.4026" x2="230.89253" y2="246.73946"/>
    <line class="cls-2" x1="232.04625" y1="214.67257" x2="232.04625" y2="245.78734"/>
    <line class="cls-2" x1="232.04625" y1="214.67257" x2="232.04625" y2="245.78734"/>
    <line class="cls-2" x1="232.04625" y1="214.67257" x2="232.04625" y2="245.78734"/>
    <line class="cls-2" x1="255.53662" y1="191.18219" x2="255.53662" y2="218.40037"/>
    <line class="cls-2" x1="104.5608" y1="67.72706" x2="114.59395" y2="77.76001"/>
    <line class="cls-2" x1="79.02051" y1="89.16773" x2="91.10337" y2="101.25059"/>
    <line class="cls-2" x1="53.24761" y1="143.59641" x2="67.61299" y2="157.96158"/>
    <line class="cls-2" x1="67.61299" y1="191.18219" x2="67.61299" y2="218.40037"/>
    <line class="cls-2" x1="92.25709" y1="246.73946" x2="114.59395" y2="224.4026"/>
    <line class="cls-2" x1="91.10337" y1="214.67257" x2="91.10337" y2="245.78734"/>
    <line class="cls-2" x1="91.10337" y1="214.67257" x2="91.10337" y2="245.78734"/>
    <line class="cls-2" x1="91.10337" y1="214.67257" x2="91.10337" y2="245.78734"/>
    <line class="cls-2" x1="138.08433" y1="247.89318" x2="138.08433" y2="268.84168"/>
    <line class="cls-2" x1="161.57471" y1="157.96158" x2="161.57471" y2="191.18219"/>
    <line class="cls-2" x1="138.08433" y1="134.471" x2="161.57471" y2="157.96158"/>
    <line class="cls-2" x1="138.08433" y1="54.26963" x2="161.57471" y2="77.76001"/>
    <line class="cls-2" x1="161.57471" y1="77.76001" x2="185.06529" y2="101.25059"/>
    <line class="cls-2" x1="185.06529" y1="101.25059" x2="185.06529" y2="134.471"/>
    <line class="cls-2" x1="185.06529" y1="134.471" x2="208.55567" y2="157.96158"/>
    <line class="cls-2" x1="208.55567" y1="157.96158" x2="208.55567" y2="191.18219"/>
    <line class="cls-2" x1="232.04625" y1="134.471" x2="232.04625" y2="167.69161"/>
    <line class="cls-2" x1="232.04625" y1="134.471" x2="255.53662" y2="157.96158"/>
    <line class="cls-2" x1="232.04625" y1="134.471" x2="232.04625" y2="167.69161"/>
    <line class="cls-2" x1="255.53662" y1="157.96158" x2="255.53662" y2="191.18219"/>
    <line class="cls-2" x1="91.10337" y1="134.471" x2="91.10337" y2="167.69161"/>
    <line class="cls-2" x1="91.10337" y1="134.471" x2="114.59395" y2="157.96158"/>
    <line class="cls-2" x1="91.10337" y1="134.471" x2="91.10337" y2="167.69161"/>
    <line class="cls-2" x1="114.59395" y1="157.96158" x2="114.59395" y2="191.18219"/>
    <line class="cls-2" x1="67.61299" y1="157.96158" x2="67.61299" y2="191.18219"/>
    <line class="cls-2" x1="114.59395" y1="77.76001" x2="114.59395" y2="110.98062"/>
    <line class="cls-2" x1="114.59395" y1="77.76001" x2="138.08433" y2="101.25059"/>
    <line class="cls-2" x1="114.59395" y1="77.76001" x2="114.59395" y2="110.98062"/>
    <line class="cls-2" x1="138.08433" y1="101.25059" x2="138.08433" y2="134.471"/>
    <line class="cls-2" x1="91.10337" y1="101.25059" x2="91.10337" y2="134.471"/>
    <line class="cls-2" x1="208.55567" y1="77.76001" x2="208.55567" y2="110.98062"/>
    <line class="cls-2" x1="208.55567" y1="77.76001" x2="208.55567" y2="110.98062"/>
    <line class="cls-2" x1="114.59395" y1="191.18219" x2="114.59395" y2="224.4026"/>
    <line class="cls-2" x1="138.08433" y1="167.69161" x2="161.57471" y2="191.18219"/>
    <line class="cls-2" x1="232.04625" y1="167.69161" x2="255.53662" y2="191.18219"/>
    <line class="cls-2" x1="232.04625" y1="167.69161" x2="255.53662" y2="191.18219"/>
    <line class="cls-2" x1="91.10337" y1="167.69161" x2="114.59395" y2="191.18219"/>
    <line class="cls-2" x1="91.10337" y1="167.69161" x2="114.59395" y2="191.18219"/>
    <line class="cls-2" x1="67.61299" y1="110.98062" x2="91.10337" y2="134.471"/>
    <line class="cls-2" x1="67.61299" y1="110.98062" x2="91.10337" y2="134.471"/>
    <line class="cls-2" x1="208.55567" y1="110.98062" x2="232.04625" y2="134.471"/>
    <line class="cls-2" x1="208.55567" y1="110.98062" x2="232.04625" y2="134.471"/>
    <line class="cls-2" x1="138.08433" y1="247.89318" x2="161.57471" y2="271.38356"/>
    <line class="cls-2" x1="52.76193" y1="176.33113" x2="67.61299" y2="191.18219"/>
    <line class="cls-2" x1="60.92632" y1="117.66709" x2="67.61299" y2="110.98062"/>
    <line class="cls-2" x1="60.92632" y1="117.66709" x2="67.61299" y2="110.98062"/>
    <line class="cls-2" x1="60.92632" y1="117.66709" x2="67.61299" y2="110.98062"/>
    <line class="cls-2" x1="67.61299" y1="104.74923" x2="67.61299" y2="110.98062"/>
    <line class="cls-2" x1="67.61299" y1="104.74923" x2="67.61299" y2="110.98062"/>
    <line class="cls-2" x1="58.73194" y1="200.06303" x2="67.61299" y2="191.18219"/>
    <line class="cls-2" x1="58.73194" y1="200.06303" x2="67.61299" y2="191.18219"/>
    <line class="cls-2" x1="121.98067" y1="263.99683" x2="138.08433" y2="247.89318"/>
    <line class="cls-2" x1="121.98067" y1="263.99683" x2="138.08433" y2="247.89318"/>
    <line class="cls-2" x1="121.98067" y1="263.99683" x2="138.08433" y2="247.89318"/>
    <line class="cls-2" x1="255.53662" y1="191.18219" x2="264.41767" y2="200.06303"/>
    <line class="cls-2" x1="255.53662" y1="191.18219" x2="270.38767" y2="176.33113"/>
    <line class="cls-2" x1="255.53662" y1="110.98062" x2="262.22329" y2="117.66709"/>
    <line class="cls-2" x1="255.53662" y1="191.18219" x2="270.38767" y2="176.33113"/>
    <line class="cls-2" x1="255.53662" y1="157.96158" x2="269.90199" y2="143.59641"/>
    <line class="cls-2" x1="255.53662" y1="191.18219" x2="270.38767" y2="176.33113"/>
    <line class="cls-2" x1="208.55567" y1="77.76001" x2="218.58881" y2="67.72706"/>
    <line class="cls-2" x1="208.55567" y1="77.76001" x2="218.58881" y2="67.72706"/>
    <line class="cls-2" x1="208.55567" y1="77.76001" x2="218.58881" y2="67.72706"/>
    <line class="cls-2" x1="255.53662" y1="104.74923" x2="255.53662" y2="110.98062"/>
    <line class="cls-2" x1="255.53662" y1="104.74923" x2="255.53662" y2="110.98062"/>
    <line class="cls-2" x1="104.5608" y1="67.72706" x2="114.59395" y2="77.76001"/>
    <line class="cls-2" x1="208.55567" y1="77.76001" x2="208.55567" y2="62.32378"/>
    <line class="cls-2" x1="161.57471" y1="77.76001" x2="161.57471" y2="51.76585"/>
    <line class="cls-2" x1="114.59395" y1="77.76001" x2="114.59395" y2="62.32378"/>
    <line class="cls-2" x1="185.06529" y1="134.471" x2="208.55567" y2="110.98062"/>
    <line class="cls-2" x1="138.08433" y1="247.89318" x2="161.57471" y2="224.4026"/>
    <line class="cls-2" x1="114.59395" y1="224.4026" x2="138.08433" y2="247.89318"/>
    <line class="cls-2" x1="161.57471" y1="271.38356" x2="185.06529" y2="247.89318"/>
    <line class="cls-2" x1="232.04625" y1="214.67257" x2="255.53662" y2="191.18219"/>
    <line class="cls-2" x1="208.55567" y1="191.18219" x2="232.04625" y2="214.67257"/>
    <line class="cls-2" x1="138.08433" y1="214.67257" x2="138.08433" y2="247.89318"/>
    <line class="cls-2" x1="161.57471" y1="271.38356" x2="185.06529" y2="247.89318"/>
    <line class="cls-2" x1="138.08433" y1="214.67257" x2="161.57471" y2="191.18219"/>
    <line class="cls-2" x1="161.57471" y1="271.38356" x2="185.06529" y2="247.89318"/>
    <line class="cls-2" x1="138.08433" y1="214.67257" x2="138.08433" y2="247.89318"/>
    <line class="cls-2" x1="91.10337" y1="214.67257" x2="114.59395" y2="191.18219"/>
    <line class="cls-2" x1="114.59395" y1="191.18219" x2="138.08433" y2="214.67257"/>
    <line class="cls-2" x1="138.08433" y1="214.67257" x2="138.08433" y2="247.89318"/>
    <line class="cls-2" x1="67.61299" y1="191.18219" x2="91.10337" y2="214.67257"/>
    <line class="cls-2" x1="114.59395" y1="77.76001" x2="138.08433" y2="54.26963"/>
    <line class="cls-2" x1="114.59395" y1="77.76001" x2="138.08433" y2="54.26963"/>
    <line class="cls-2" x1="232.04625" y1="134.471" x2="255.53662" y2="110.98062"/>
    <line class="cls-2" x1="232.04625" y1="134.471" x2="255.53662" y2="110.98062"/>
    <line class="cls-2" x1="91.10337" y1="101.25059" x2="114.59395" y2="77.76001"/>
    <line class="cls-2" x1="138.08433" y1="134.471" x2="161.57471" y2="110.98062"/>
    <line class="cls-2" x1="114.59395" y1="77.76001" x2="138.08433" y2="54.26963"/>
    <line class="cls-2" x1="138.08433" y1="101.25059" x2="161.57471" y2="77.76001"/>
    <line class="cls-2" x1="161.57471" y1="77.76001" x2="161.57471" y2="110.98062"/>
    <line class="cls-2" x1="67.61299" y1="110.98062" x2="91.10337" y2="134.471"/>
    <line class="cls-2" x1="67.61299" y1="191.18219" x2="91.10337" y2="167.69161"/>
    <line class="cls-2" x1="67.61299" y1="157.96158" x2="91.10337" y2="134.471"/>
    <line class="cls-2" x1="67.61299" y1="191.18219" x2="91.10337" y2="167.69161"/>
    <line class="cls-2" x1="114.59395" y1="110.98062" x2="138.08433" y2="134.471"/>
    <line class="cls-2" x1="114.59395" y1="191.18219" x2="138.08433" y2="167.69161"/>
    <line class="cls-2" x1="91.10337" y1="134.471" x2="114.59395" y2="110.98062"/>
    <line class="cls-2" x1="114.59395" y1="157.96158" x2="138.08433" y2="134.471"/>
    <line class="cls-2" x1="138.08433" y1="134.471" x2="138.08433" y2="167.69161"/>
    <line class="cls-2" x1="232.04625" y1="134.471" x2="255.53662" y2="110.98062"/>
    <line class="cls-2" x1="208.55567" y1="110.98062" x2="232.04625" y2="134.471"/>
    <line class="cls-2" x1="208.55567" y1="191.18219" x2="232.04625" y2="167.69161"/>
    <line class="cls-2" x1="208.55567" y1="157.96158" x2="232.04625" y2="134.471"/>
  </g>
  <g id="Layer_18" data-name="Layer 18">
    <polygon class="cls-3" points="185.065 167.692 208.556 191.182 208.556 224.403 185.065 247.893 161.575 224.403 161.575 191.182 185.065 167.692"/>
  </g>
  <g id="Layer_17" data-name="Layer 17">
    <g>
      <polygon class="cls-4" points="232.046 261.654 255.537 238.163 279.027 261.654 279.027 294.874 255.537 318.365 232.046 294.874 232.046 261.654"/>
      <line class="cls-4" x1="255.53662" y1="285.1439" x2="279.0272" y2="261.65353"/>
      <line class="cls-4" x1="232.04625" y1="261.65353" x2="255.53662" y2="285.1439"/>
    </g>
  </g>
  <g id="cube">
    <g>
      <line class="cls-2" x1="255.53662" y1="285.1439" x2="255.53662" y2="318.36452"/>
      <polygon class="cls-2" points="232.046 261.654 255.537 238.163 279.027 261.654 279.027 294.874 255.537 318.365 232.046 294.874 232.046 261.654"/>
      <line class="cls-2" x1="255.53662" y1="285.1439" x2="279.0272" y2="261.65353"/>
      <line class="cls-2" x1="232.04625" y1="261.65353" x2="255.53662" y2="285.1439"/>
    </g>
  </g>
</svg>
