<svg xmlns="http://www.w3.org/2000/svg" width="323.14961" height="323.16266" viewBox="0 0 323.14961 323.16266">
  <defs>
    <style>
      .cls-1 {
        fill: #e5e5e5;
      }

      .cls-2 {
        fill: none;
        stroke: #010101;
        stroke-linecap: round;
        stroke-linejoin: round;
      }

      .cls-3 {
        fill: #97d2ad;
        stroke: #000;
        stroke-miterlimit: 10;
        stroke-width: 0.1px;
      }
    </style>
  </defs>
  <title>service</title>
  <g id="_3.support" data-name="3.support">
    <g id="bg-3" data-name="bg">
      <path class="cls-1" d="M227.67167,253.46366v21.72616a5.74343,5.74343,0,0,1-9.80459,4.06132l-11.7534-11.75259a8.615,8.615,0,0,0-8.88875-2.05639,109.8092,109.8092,0,1,1,33.62686-18.663A7.74418,7.74418,0,0,0,227.67167,253.46366Z"/>
    </g>
    <g id="loop">
      <path class="cls-2" d="M192.62991,130.52623l-31.055,31.05521L130.5197,130.52623a43.91866,43.91866,0,1,0,0,62.11021q.98048-.98048,1.96076-1.96076,14.54733-14.547,29.09445-29.09425l29.09425,29.09425,1.96076,1.96076a43.91853,43.91853,0,1,0,0-62.11021Z"/>
    </g>
    <g id="arrow">
      <path class="cls-3" d="M99.70784,210.36673a4.87291,4.87291,0,0,1-.48629-9.73368q2.55484,2.312,5.10988,4.6238Q102.01974,207.81168,99.70784,210.36673Z"/>
      <path class="cls-3" d="M223.41462,122.52819a4.87283,4.87283,0,0,1,.54079-9.73064q2.29741,2.5676,4.595,5.13561Q225.98253,120.23058,223.41462,122.52819Z"/>
    </g>
  </g>
</svg>
