<?xml version="1.0" encoding="utf-8"?>
<!-- Generator: Adobe Illustrator 16.0.0, SVG Export Plug-In . SVG Version: 6.00 Build 0)  -->
<!DOCTYPE svg PUBLIC "-//W3C//DTD SVG 1.1//EN" "http://www.w3.org/Graphics/SVG/1.1/DTD/svg11.dtd">
<svg version="1.1" id="Layer_1" xmlns="http://www.w3.org/2000/svg" xmlns:xlink="http://www.w3.org/1999/xlink" x="0px" y="0px"
	 width="300px" height="300px" viewBox="0 0 300 300" enable-background="new 0 0 300 300" xml:space="preserve">
<g>
	<linearGradient id="SVGID_1_" gradientUnits="userSpaceOnUse" x1="271.6484" y1="149.999" x2="39.2588" y2="149.999">
		<stop  offset="0" style="stop-color:#DCDDDE"/>
		<stop  offset="0.2024" style="stop-color:#D8DCDC"/>
		<stop  offset="0.365" style="stop-color:#D1DAD9"/>
		<stop  offset="0.5137" style="stop-color:#C6D7D5"/>
		<stop  offset="0.6543" style="stop-color:#B6D3CF"/>
		<stop  offset="0.7891" style="stop-color:#9ECEC8"/>
		<stop  offset="0.9177" style="stop-color:#7DC7BF"/>
		<stop  offset="1" style="stop-color:#61C5BA"/>
	</linearGradient>
	<path fill="url(#SVGID_1_)" d="M39.259,44.08c0-22,15.589-31,34.641-20L257.359,130c19.052,11,19.052,29,0,40L73.899,275.92
		c-19.052,11-34.641,2-34.641-20V44.08z"/>
</g>
<g opacity="0.95">
	<path d="M78.09,88.312c0-11,7.794-15.5,17.32-10L202.256,140c9.526,5.5,9.526,14.5,0,20L95.41,221.688c-9.526,5.5-17.32,1-17.32-10
		V88.312z"/>
</g>
<text transform="matrix(1 0 0 1 82.1504 161)" opacity="0.9" fill="#FFFFFF" font-family="'Quicksand-Bold'" font-size="40" letter-spacing="-2">PUPIL</text>
</svg>
