<?xml version="1.0" encoding="utf-8"?>
<!-- Generator: Adobe Illustrator 16.0.0, SVG Export Plug-In . SVG Version: 6.00 Build 0)  -->
<!DOCTYPE svg PUBLIC "-//W3C//DTD SVG 1.1//EN" "http://www.w3.org/Graphics/SVG/1.1/DTD/svg11.dtd">
<svg version="1.1" id="Layer_1" xmlns="http://www.w3.org/2000/svg" xmlns:xlink="http://www.w3.org/1999/xlink" x="0px" y="0px"
	 width="400px" height="267.91px" viewBox="0 0 400 267.91" enable-background="new 0 0 400 267.91" xml:space="preserve">
<path fill="#5B5B5B" d="M13.472,17.91c-0.331,0-0.601,0.27-0.601,0.601s0.27,0.601,0.601,0.601c3.534,0,6.399,3.064,6.399,6.6
	v94.734c0,3.535,2.866,6.4,6.4,6.4h162.516c3.534,0,6.4-2.865,6.4-6.4V24.31c0-3.535-2.866-6.4-6.4-6.4H13.472z"/>
<path fill="#5B5B5B" d="M386.529,135.38c0.331,0,0.6,0.269,0.6,0.6s-0.269,0.601-0.6,0.601c-3.535,0-6.4,3.065-6.4,6.6v99.201
	c0,3.534-2.865,6.4-6.4,6.4H217.823c-3.534,0-6.399-2.866-6.399-6.4V141.78c0-3.534,2.865-6.399,6.399-6.399H386.529z"/>
<text transform="matrix(1 0 0 1 350.8359 163.7798)" fill="#FFFFFF" font-family="'Quicksand-Bold'" font-size="30">6</text>
<path fill="#FFFFFF" d="M323.768,202.905c0.418-1.594,0.727-3.229,0.934-4.897l-6.198-2.515c0.051-0.728,0.085-1.46,0.085-2.2
	c0-0.903-0.047-1.794-0.121-2.677l6.176-2.505c-0.23-1.678-0.57-3.319-1.014-4.921l-6.695,0.05c-0.517-1.526-1.146-2.999-1.88-4.41
	l4.743-4.676c-0.86-1.462-1.817-2.859-2.86-4.188l-6.17,2.609c-1.034-1.174-2.151-2.271-3.347-3.279l2.594-6.14
	c-1.359-1.03-2.792-1.965-4.285-2.807l-4.7,4.769c-1.366-0.67-2.787-1.245-4.256-1.715l0.048-6.668
	c-1.65-0.432-3.35-0.749-5.081-0.956l-2.519,6.205c-0.666-0.041-1.336-0.069-2.012-0.069c-0.836,0-1.661,0.041-2.481,0.105
	l-2.509-6.184c-1.743,0.231-3.447,0.577-5.105,1.037l0.049,6.694c-1.413,0.478-2.78,1.051-4.094,1.716l-4.688-4.757
	c-1.517,0.874-2.967,1.849-4.34,2.918l2.603,6.16c-1.111,0.966-2.153,2.008-3.12,3.12l-6.16-2.604
	c-1.068,1.374-2.043,2.824-2.916,4.341l4.755,4.688c-0.665,1.314-1.239,2.682-1.716,4.094l-6.695-0.049
	c-0.459,1.659-0.806,3.363-1.035,5.104l6.183,2.509c-0.064,0.821-0.107,1.648-0.107,2.485c0,0.675,0.029,1.343,0.071,2.009
	l-6.207,2.519c0.208,1.732,0.524,3.429,0.958,5.081l6.667-0.049c0.47,1.471,1.045,2.893,1.716,4.258l-4.769,4.701
	c0.842,1.492,1.777,2.926,2.807,4.284l6.139-2.595c1.009,1.197,2.105,2.314,3.279,3.348l-2.607,6.17
	c1.328,1.043,2.726,2,4.188,2.861l4.675-4.744c1.411,0.734,2.885,1.363,4.411,1.88l-0.049,6.695c1.601,0.442,3.241,0.783,4.92,1.015
	l2.506-6.176c0.882,0.073,1.772,0.121,2.674,0.121c0.742,0,1.476-0.035,2.203-0.086l2.516,6.198
	c1.668-0.207,3.305-0.517,4.896-0.934l-0.048-6.67c1.584-0.505,3.108-1.138,4.573-1.877l4.688,4.756
	c1.44-0.829,2.821-1.747,4.133-2.752l-2.599-6.148c1.259-1.074,2.431-2.246,3.505-3.506l6.149,2.599
	c1.005-1.312,1.923-2.693,2.752-4.134l-4.756-4.687c0.739-1.464,1.371-2.99,1.878-4.574L323.768,202.905z M293.541,207.91h-13.05
	l-6.524-11.5l6.524-11.5h13.05l6.525,11.5L293.541,207.91z"/>
<text transform="matrix(1 0 0 1 89.7588 93.855)" fill="#FFFFFF" font-family="'Quicksand-Bold'" font-size="80" letter-spacing="-4">?</text>
</svg>
