<?xml version="1.0" encoding="utf-8"?>
<!-- Generator: Adobe Illustrator 16.0.0, SVG Export Plug-In . SVG Version: 6.00 Build 0)  -->
<!DOCTYPE svg PUBLIC "-//W3C//DTD SVG 1.1//EN" "http://www.w3.org/Graphics/SVG/1.1/DTD/svg11.dtd">
<svg version="1.1" id="Layer_1" xmlns="http://www.w3.org/2000/svg" xmlns:xlink="http://www.w3.org/1999/xlink" x="0px" y="0px"
	 width="800px" height="500px" viewBox="0 0 800 500" enable-background="new 0 0 800 500" xml:space="preserve">
<path fill="#666666" d="M6.858,18.803c-0.331,0-0.601,0.269-0.601,0.6c0,0.331,0.27,0.6,0.601,0.6c3.534,0,6.399,3.065,6.399,6.6
	v41.534c0,3.535,2.866,6.4,6.4,6.4h64.7c3.534,0,6.399-2.865,6.399-6.4V25.203c0-3.535-2.865-6.4-6.399-6.4H6.858z"/>
<g>
	<path fill="#FFFFFF" d="M27.017,60.736V37.14c0-1.24,0.96-2.199,2.2-2.199c1.239,0,2.239,0.959,2.239,2.199v9.599h10.358V37.14
		c0-1.24,0.96-2.199,2.199-2.199c1.24,0,2.24,0.959,2.24,2.199v23.596c0,1.24-1,2.2-2.24,2.2c-1.239,0-2.199-0.96-2.199-2.2v-9.598
		H31.456v9.598c0,1.24-1,2.2-2.239,2.2C27.977,62.936,27.017,61.976,27.017,60.736z"/>
	<path fill="#FFFFFF" d="M56.896,37.94c0,1.2-0.92,2.199-2.16,2.199c-1.2,0-2.159-1-2.159-2.199v-0.84c0-1.2,0.959-2.16,2.159-2.16
		c1.24,0,2.16,0.959,2.16,2.16V37.94z M56.896,45.179v15.597c0,1.2-0.92,2.16-2.16,2.16c-1.2,0-2.159-0.96-2.159-2.16V45.179
		c0-1.28,0.959-2.2,2.159-2.2C55.977,42.979,56.896,43.899,56.896,45.179z"/>
	<path fill="#FFFFFF" d="M70.977,53.298V37.14c0-1.2,0.999-2.199,2.199-2.199s2.16,1,2.16,2.199v16.158
		c0,1.24-0.96,2.199-2.16,2.199S70.977,54.538,70.977,53.298z M73.176,62.936c-1.2,0-2.199-0.96-2.199-2.2v-0.8
		c0-1.2,0.999-2.2,2.199-2.2s2.16,1,2.16,2.2v0.8C75.336,61.976,74.376,62.936,73.176,62.936z"/>
</g>
<path fill="#666666" d="M6.858,94.536c-0.331,0-0.601,0.269-0.601,0.6c0,0.332,0.27,0.6,0.601,0.6c3.534,0,6.399,3.065,6.399,6.6
	v94.734c0,3.535,2.866,6.4,6.4,6.4H607.6c3.534,0,6.4-2.865,6.4-6.4v-96.134c0-3.535-2.866-6.4-6.4-6.4H6.858z"/>
<g>
	<path fill="#FFFFFF" d="M25.965,111.273c0-1.24,0.96-2.199,2.199-2.199c1.2,0,2.24,0.959,2.24,2.199v23.596
		c0,1.24-1.04,2.2-2.24,2.2c-1.239,0-2.199-0.96-2.199-2.2V111.273z"/>
	<path fill="#FFFFFF" d="M49.083,134.87c0,1.24-0.999,2.2-2.239,2.2c-1,0-1.84-0.72-2.119-1.64c-0.04-0.16-0.08-0.36-0.08-0.56
		v-23.596c0-1.24,0.999-2.199,2.199-2.199c1.24,0,2.239,0.959,2.239,2.199v6.959c1.28-0.68,2.72-1.16,4.279-1.16
		c4.84,0,8.719,3.959,8.719,8.758v9.039c0,1.24-0.96,2.2-2.199,2.2c-1.24,0-2.2-0.96-2.2-2.2v-9.039
		c0-2.359-1.919-4.279-4.319-4.319c-2.359,0.04-4.239,1.96-4.279,4.319V134.87z"/>
	<path fill="#FFFFFF" d="M85.28,127.111v7.839c0,1.16-0.96,2.12-2.12,2.12c-1.039,0-1.84-0.76-2.079-1.72
		c-1.52,1.08-3.319,1.72-5.319,1.72c-2.72,0-5.079-1.12-6.799-2.919c-1.72-1.84-2.72-4.319-2.72-7.039c0-2.759,1-5.239,2.72-7.039
		c1.72-1.84,4.079-3,6.799-3c2,0,3.8,0.68,5.319,1.76c0.239-1,1.04-1.76,2.079-1.76c1.16,0,2.12,0.96,2.12,2.16V127.111z
		 M81.041,127.111c0-1.68-0.601-3.119-1.56-4.119c-0.96-1.08-2.32-1.64-3.72-1.64c-1.439,0-2.8,0.56-3.72,1.64
		c-0.96,1-1.52,2.439-1.52,4.119c0,1.64,0.56,3.08,1.52,4.12c0.92,1,2.28,1.56,3.72,1.56c1.399,0,2.76-0.56,3.72-1.56
		C80.44,130.19,81.041,128.751,81.041,127.111z"/>
	<path fill="#FFFFFF" d="M105.721,120.272l-6.559,15.518c-0.04,0.12-0.12,0.24-0.16,0.28c0,0.04-0.04,0.04-0.04,0.04
		c-0.08,0.08-0.16,0.2-0.24,0.28c0,0.04-0.04,0.04-0.04,0.04c-0.08,0.12-0.159,0.16-0.239,0.24c0,0-0.04,0-0.04,0.04
		c-0.08,0.08-0.16,0.16-0.28,0.2c0,0,0,0-0.08,0c0,0,0,0,0,0.04c-0.12,0-0.24,0.04-0.319,0.08c-0.04,0-0.04,0-0.08,0
		c-0.16,0.04-0.28,0.04-0.4,0.04c-0.08,0-0.2,0-0.36-0.04c-0.039,0-0.039,0-0.079,0c-0.12-0.04-0.2-0.08-0.32-0.08
		c0-0.04,0-0.04,0-0.04c-0.08,0-0.08,0-0.08,0c-0.12-0.04-0.2-0.12-0.36-0.2c0-0.04-0.039-0.04-0.039-0.04
		c-0.08-0.08-0.16-0.12-0.24-0.24c-0.04,0-0.04,0-0.08-0.04c-0.04-0.08-0.12-0.2-0.2-0.28c-0.04,0-0.04,0-0.04-0.04
		c-0.08-0.04-0.12-0.16-0.16-0.28l-6.479-15.518c-0.479-1.08,0.04-2.239,1.16-2.719c0.959-0.48,2.199,0.08,2.679,1.16l4.6,10.878
		l4.64-10.878c0.439-1.08,1.64-1.64,2.679-1.16C105.681,118.033,106.201,119.192,105.721,120.272z"/>
	<path fill="#FFFFFF" d="M108.203,127.071c0.04-5.439,4.279-9.998,9.759-9.998c5.199,0,9.318,3.879,9.639,9.278c0,0.04,0,0.12,0,0.2
		c0,0.08,0,0.28-0.04,0.36c-0.12,0.96-0.96,1.6-2.08,1.6h-12.718c0.2,0.92,0.64,1.959,1.359,2.64c0.84,0.96,2.439,1.68,3.84,1.8
		c1.439,0.12,3.159-0.24,4.159-1c0.84-0.88,2.479-0.76,2.999-0.12c0.521,0.56,0.92,1.76,0,2.6c-1.959,1.8-4.318,2.64-7.158,2.64
		C112.482,137.029,108.243,132.51,108.203,127.071z M112.562,125.111h11.318c-0.4-1.6-2.439-3.959-5.919-4.239
		C114.562,121.032,112.883,123.472,112.562,125.111z"/>
	<path fill="#FFFFFF" d="M158.079,127.111v7.839c0,1.16-0.96,2.12-2.12,2.12c-1.039,0-1.84-0.76-2.079-1.72
		c-1.52,1.08-3.319,1.72-5.319,1.72c-2.72,0-5.079-1.12-6.799-2.919c-1.72-1.84-2.72-4.319-2.72-7.039c0-2.759,1-5.239,2.72-7.039
		c1.72-1.84,4.079-3,6.799-3c2,0,3.8,0.68,5.319,1.76c0.239-1,1.04-1.76,2.079-1.76c1.16,0,2.12,0.96,2.12,2.16V127.111z
		 M153.84,127.111c0-1.68-0.601-3.119-1.56-4.119c-0.96-1.08-2.32-1.64-3.72-1.64c-1.439,0-2.8,0.56-3.72,1.64
		c-0.96,1-1.52,2.439-1.52,4.119c0,1.64,0.56,3.08,1.52,4.12c0.92,1,2.28,1.56,3.72,1.56c1.399,0,2.76-0.56,3.72-1.56
		C153.239,130.19,153.84,128.751,153.84,127.111z"/>
	<path fill="#FFFFFF" d="M186.879,142.429v-7.039c-1.521,1.04-3.36,1.68-5.359,1.68c-5.399,0-9.719-4.479-9.719-9.999
		c0-5.479,4.319-9.998,9.719-9.998c2.039,0,3.879,0.68,5.438,1.68c0.16-0.92,1.04-1.68,2.12-1.68c1.2,0,2.159,0.96,2.159,2.16v7.838
		c0,0.04,0,0.04,0,0.04v15.318c0,1.119-0.959,2.119-2.159,2.119C187.838,144.548,186.879,143.548,186.879,142.429z M181.52,121.392
		c-1.4,0-2.72,0.64-3.76,1.72c-0.96,0.959-1.64,2.439-1.64,3.959c0,1.64,0.68,3.08,1.64,4.04c1.04,1.12,2.359,1.68,3.76,1.68
		c1.439,0,2.8-0.56,3.719-1.68c1.04-0.96,1.641-2.399,1.641-4.04c0-1.52-0.601-3-1.641-3.959
		C184.319,122.032,182.959,121.392,181.52,121.392z"/>
	<path fill="#FFFFFF" d="M205.039,137.069c-4.559,0-8.318-3.759-8.318-8.318v-9.559c0-1.12,0.96-2.12,2.12-2.12
		c1.199,0,2.119,1,2.119,2.12v9.559c0,2.279,1.8,4.079,4.079,4.079c2.32,0,4.159-1.8,4.199-4.079v-9.559c0-1.12,0.88-2.12,2.08-2.12
		c1.12,0,2.159,1,2.159,2.12v9.559C213.478,133.31,209.639,137.069,205.039,137.069z"/>
	<path fill="#FFFFFF" d="M217.84,127.071c0.04-5.439,4.279-9.998,9.759-9.998c5.199,0,9.318,3.879,9.639,9.278c0,0.04,0,0.12,0,0.2
		c0,0.08,0,0.28-0.04,0.36c-0.12,0.96-0.96,1.6-2.08,1.6h-12.718c0.2,0.92,0.64,1.959,1.359,2.64c0.84,0.96,2.439,1.68,3.84,1.8
		c1.439,0.12,3.159-0.24,4.159-1c0.84-0.88,2.479-0.76,2.999-0.12c0.521,0.56,0.92,1.76,0,2.6c-1.959,1.8-4.318,2.64-7.158,2.64
		C222.119,137.029,217.88,132.51,217.84,127.071z M222.199,125.111h11.318c-0.4-1.6-2.439-3.959-5.919-4.239
		C224.199,121.032,222.52,123.472,222.199,125.111z"/>
	<path fill="#FFFFFF" d="M240.24,131.35c0.72-0.959,2.119-1.08,2.999-0.32c1.04,0.88,2.84,1.8,4.399,1.76
		c1.08,0,2.08-0.36,2.72-0.76c0.56-0.48,0.72-0.88,0.72-1.2c0-0.2-0.04-0.28-0.12-0.4c-0.04-0.12-0.2-0.28-0.52-0.48
		c-0.561-0.4-1.76-0.84-3.199-1.12h-0.04c-1.24-0.24-2.44-0.56-3.479-1.04c-1.08-0.52-2.04-1.24-2.76-2.32
		c-0.44-0.72-0.68-1.6-0.68-2.52c0-1.84,1.04-3.399,2.359-4.399c1.399-0.959,3.079-1.479,4.919-1.479c2.76,0,4.72,1.32,5.999,2.2
		c0.96,0.64,1.24,1.959,0.64,2.959c-0.64,0.96-1.959,1.24-2.959,0.56c-1.28-0.84-2.399-1.479-3.68-1.479c-1,0-1.88,0.32-2.399,0.72
		c-0.52,0.36-0.64,0.72-0.64,0.92c0,0.16,0,0.2,0.08,0.32c0.04,0.08,0.159,0.24,0.439,0.4c0.521,0.36,1.56,0.72,2.92,0.96l0.04,0.04
		h0.04c1.319,0.24,2.56,0.6,3.719,1.16c1.08,0.48,2.16,1.24,2.84,2.36c0.479,0.8,0.76,1.72,0.76,2.64c0,1.959-1.08,3.599-2.52,4.639
		c-1.439,1-3.239,1.6-5.199,1.6c-3.119-0.04-5.519-1.48-7.119-2.76C239.64,133.59,239.521,132.23,240.24,131.35z"/>
	<path fill="#FFFFFF" d="M268.078,119.272c0,1.2-1.04,2.2-2.239,2.2h-1v11.158c1.239,0,2.199,1,2.199,2.24s-0.96,2.2-2.199,2.2
		c-2.439,0-4.439-2-4.439-4.439v-11.158h-1.16c-1.239,0-2.199-1-2.199-2.2c0-1.24,0.96-2.2,2.199-2.2h1.16v-5.799
		c0-1.24,1-2.199,2.239-2.199c1.24,0,2.2,0.959,2.2,2.199v5.799h1C267.038,117.073,268.078,118.033,268.078,119.272z"/>
	<path fill="#FFFFFF" d="M277.039,112.074c0,1.2-0.92,2.199-2.16,2.199c-1.2,0-2.159-1-2.159-2.199v-0.84
		c0-1.2,0.959-2.16,2.159-2.16c1.24,0,2.16,0.959,2.16,2.16V112.074z M277.039,119.312v15.597c0,1.2-0.92,2.16-2.16,2.16
		c-1.2,0-2.159-0.96-2.159-2.16v-15.597c0-1.28,0.959-2.2,2.159-2.2C276.119,117.113,277.039,118.033,277.039,119.312z"/>
	<path fill="#FFFFFF" d="M283.358,134.15c-1.72-1.76-2.759-4.239-2.759-7.039c0-2.719,1.039-5.079,2.759-6.999
		c1.8-1.88,4.12-3.04,6.879-3.04c2.64,0,5.04,1.16,6.68,3.04c1.799,1.919,2.799,4.279,2.799,6.999c0,2.8-1,5.279-2.799,7.039
		c-1.64,1.879-4.04,3.04-6.68,3.04C287.479,137.189,285.158,136.029,283.358,134.15z M284.959,127.111c0,1.72,0.52,3.12,1.439,4.239
		c1,0.96,2.319,1.48,3.839,1.48c1.4,0,2.68-0.52,3.68-1.48c1-1.12,1.56-2.52,1.56-4.239c0-1.64-0.56-3.079-1.56-4.159
		c-1-0.88-2.279-1.52-3.68-1.52c-1.52,0-2.839,0.64-3.839,1.52C285.479,124.032,284.959,125.471,284.959,127.111z"/>
	<path fill="#FFFFFF" d="M320.796,125.391v9.559c0,1.16-0.92,2.12-2.079,2.12c-1.12,0-2.12-0.96-2.12-2.12v-9.559
		c0-2.239-1.88-4.039-4.159-4.039c-2.239,0-3.999,1.8-3.999,4.039v9.559c0,0.12,0,0.24-0.08,0.4c-0.2,0.96-1.08,1.72-2.12,1.72
		c-1.199,0-2.119-0.96-2.119-2.12v-9.559v-6.199c0-1.16,0.92-2.12,2.119-2.12c0.84,0,1.6,0.48,1.96,1.24
		c1.199-0.76,2.68-1.24,4.239-1.24C317.076,117.073,320.796,120.872,320.796,125.391z"/>
	<path fill="#FFFFFF" d="M328.759,131.39c1.64,0,2.999,1.36,2.999,3s-1.359,2.959-2.999,2.959s-2.96-1.32-2.96-2.959
		S327.119,131.39,328.759,131.39z"/>
	<path fill="#FFFFFF" d="M24.445,170.672c0.04-7.919,6.679-14.357,14.677-14.397c3.52,0,6.72,1.159,9.239,3.119
		c0.959,0.8,1.119,2.2,0.399,3.199c-0.8,1-2.279,1.16-3.199,0.44c-1.76-1.439-3.96-2.2-6.439-2.2c-2.759,0-5.318,1.12-7.198,2.88
		c-1.8,1.84-2.92,4.239-2.92,6.959s1.12,5.199,2.92,6.959c1.88,1.76,4.439,2.879,7.198,2.879c2.479,0,4.64-0.76,6.439-2.199
		c0.92-0.68,2.399-0.52,3.199,0.439c0.72,1,0.56,2.44-0.399,3.2c-2.52,1.959-5.72,3.119-9.239,3.119
		C31.124,185.069,24.485,178.631,24.445,170.672z"/>
	<path fill="#FFFFFF" d="M70.602,175.111v7.838c0,1.16-0.96,2.12-2.12,2.12c-1.039,0-1.84-0.76-2.079-1.72
		c-1.52,1.08-3.319,1.72-5.319,1.72c-2.72,0-5.079-1.12-6.799-2.92c-1.72-1.839-2.72-4.319-2.72-7.038c0-2.76,1-5.239,2.72-7.039
		c1.72-1.84,4.079-3,6.799-3c2,0,3.8,0.681,5.319,1.76c0.239-0.999,1.04-1.76,2.079-1.76c1.16,0,2.12,0.96,2.12,2.16V175.111z
		 M66.362,175.111c0-1.68-0.601-3.12-1.56-4.119c-0.96-1.08-2.32-1.641-3.72-1.641c-1.439,0-2.8,0.561-3.72,1.641
		c-0.96,0.999-1.52,2.439-1.52,4.119c0,1.64,0.56,3.079,1.52,4.119c0.92,1,2.28,1.56,3.72,1.56c1.399,0,2.76-0.56,3.72-1.56
		C65.762,178.19,66.362,176.751,66.362,175.111z"/>
	<path fill="#FFFFFF" d="M92.321,173.392v9.558c0,1.16-0.92,2.12-2.079,2.12c-1.12,0-2.12-0.96-2.12-2.12v-9.558
		c0-2.24-1.88-4.04-4.159-4.04c-2.239,0-3.999,1.8-3.999,4.04v9.558c0,0.12,0,0.24-0.08,0.4c-0.2,0.96-1.08,1.72-2.12,1.72
		c-1.199,0-2.119-0.96-2.119-2.12v-9.558v-6.199c0-1.16,0.92-2.12,2.119-2.12c0.84,0,1.6,0.48,1.96,1.24
		c1.199-0.76,2.68-1.24,4.239-1.24C88.602,165.072,92.321,168.872,92.321,173.392z"/>
	<path fill="#FFFFFF" d="M122.441,167.192v9.438v5.679c0,5.359-4.239,9.559-9.559,9.559c-1.439,0-2.919-0.399-4.119-1
		c-1.12-0.479-1.52-1.72-1.04-2.839c0.521-0.96,1.88-1.4,2.84-0.88c0.76,0.359,1.52,0.56,2.319,0.56
		c2.359-0.04,4.359-1.56,4.999-3.64c-1.119,0.64-2.479,0.96-3.799,0.96c-4.6,0-8.358-3.799-8.358-8.398v-9.438
		c0-1.2,0.999-2.12,2.079-2.12c1.24,0,2.12,0.92,2.12,2.12v9.438c0,2.319,1.879,4.079,4.159,4.079c2.279,0,4.119-1.76,4.119-4.079
		v-9.438c0-1.2,0.88-2.12,2.079-2.12C121.441,165.072,122.441,165.992,122.441,167.192z"/>
	<path fill="#FFFFFF" d="M129.123,182.149c-1.719-1.76-2.759-4.239-2.759-7.038c0-2.72,1.04-5.079,2.759-6.999
		c1.8-1.88,4.12-3.04,6.879-3.04c2.64,0,5.04,1.16,6.68,3.04c1.799,1.92,2.799,4.279,2.799,6.999c0,2.799-1,5.278-2.799,7.038
		c-1.64,1.88-4.04,3.04-6.68,3.04C133.243,185.189,130.923,184.029,129.123,182.149z M130.724,175.111
		c0,1.72,0.52,3.119,1.439,4.239c1,0.96,2.319,1.479,3.839,1.479c1.4,0,2.68-0.52,3.68-1.479c1-1.12,1.56-2.52,1.56-4.239
		c0-1.64-0.56-3.08-1.56-4.159c-1-0.88-2.279-1.521-3.68-1.521c-1.52,0-2.839,0.641-3.839,1.521
		C131.243,172.031,130.724,173.472,130.724,175.111z"/>
	<path fill="#FFFFFF" d="M157.162,185.069c-4.559,0-8.318-3.76-8.318-8.318v-9.559c0-1.12,0.96-2.12,2.12-2.12
		c1.199,0,2.119,1,2.119,2.12v9.559c0,2.279,1.8,4.079,4.079,4.079c2.32,0,4.159-1.8,4.199-4.079v-9.559c0-1.12,0.88-2.12,2.08-2.12
		c1.12,0,2.159,1,2.159,2.12v9.559C165.601,181.31,161.762,185.069,157.162,185.069z"/>
	<path fill="#FFFFFF" d="M185.401,182.87c0,1.239-0.999,2.199-2.239,2.199c-1,0-1.84-0.72-2.119-1.64
		c-0.04-0.16-0.08-0.36-0.08-0.56v-23.597c0-1.239,0.999-2.199,2.199-2.199c1.24,0,2.239,0.96,2.239,2.199v6.959
		c1.28-0.68,2.72-1.16,4.279-1.16c4.84,0,8.719,3.96,8.719,8.759v9.039c0,1.239-0.96,2.199-2.199,2.199c-1.24,0-2.2-0.96-2.2-2.199
		v-9.039c0-2.359-1.919-4.279-4.319-4.319c-2.359,0.04-4.239,1.96-4.279,4.319V182.87z"/>
	<path fill="#FFFFFF" d="M201.683,175.071c0.04-5.439,4.279-9.999,9.759-9.999c5.199,0,9.318,3.88,9.639,9.279
		c0,0.04,0,0.119,0,0.199s0,0.28-0.04,0.36c-0.12,0.96-0.96,1.6-2.08,1.6h-12.718c0.2,0.92,0.64,1.96,1.359,2.64
		c0.84,0.96,2.439,1.68,3.84,1.8c1.439,0.12,3.159-0.24,4.159-1c0.84-0.88,2.479-0.76,2.999-0.12c0.521,0.56,0.92,1.76,0,2.6
		c-1.959,1.8-4.318,2.64-7.158,2.64C205.962,185.029,201.723,180.51,201.683,175.071z M206.042,173.111h11.318
		c-0.4-1.6-2.439-3.959-5.919-4.239C208.042,169.032,206.362,171.472,206.042,173.111z"/>
	<path fill="#FFFFFF" d="M227.522,157.074c1.239,0,2.239,1,2.239,2.199v23.597c0,1.199-1,2.199-2.239,2.199c-1.2,0-2.2-1-2.2-2.199
		v-23.597C225.322,158.074,226.322,157.074,227.522,157.074z"/>
	<path fill="#FFFFFF" d="M232.603,190.429v-15.277c0,0,0,0,0-0.04v-7.919c0-1.16,0.96-2.12,2.119-2.12c1.12,0,2.04,0.761,2.2,1.641
		c1.479-0.96,3.399-1.641,5.438-1.641c5.319,0,9.679,4.56,9.679,10.039c0,5.479-4.359,9.918-9.679,9.918
		c-1.999,0-3.919-0.6-5.359-1.64v7.039c0,1.119-0.999,2.159-2.279,2.159C233.562,192.588,232.603,191.548,232.603,190.429z
		 M237.001,175.111c0,1.56,0.521,3.079,1.561,3.999c0.999,1.12,2.319,1.68,3.799,1.68c1.36,0,2.72-0.56,3.76-1.68
		c0.92-0.92,1.56-2.439,1.56-3.999c0-1.561-0.64-3-1.56-4.04c-1.04-1.079-2.399-1.64-3.76-1.64c-1.479,0-2.8,0.561-3.799,1.64
		C237.521,172.111,237.001,173.551,237.001,175.111z"/>
	<path fill="#FFFFFF" d="M282.918,173.352c0,0.04,0,0.08,0,0.12v9.478c0,1.16-0.96,2.12-2.119,2.12c-1.12,0-2.16-0.96-2.16-2.12
		v-9.478c0-0.04,0-0.08,0-0.12c-0.04-2.2-1.88-4-4.119-4c-2.2,0-4.039,1.84-4.039,4.12v9.478c0,0.08-0.04,0.2-0.04,0.28
		c0,0.04,0,0.12,0,0.12c-0.04,0.08-0.04,0.16-0.12,0.24c0,0.04,0,0.12,0,0.199c-0.36,0.721-1.16,1.28-2,1.28
		c-0.16,0-0.28-0.04-0.399-0.04c-0.96-0.24-1.72-1.04-1.72-2.08v-9.478c0-0.04,0-0.04,0-0.04v-6.199c0-1.24,0.96-2.16,2.119-2.16
		c0.84,0,1.6,0.44,1.92,1.2c1.279-0.76,2.76-1.2,4.279-1.2c2.52,0,4.759,1.04,6.279,2.76c1.479-1.72,3.759-2.76,6.278-2.76
		c4.6,0,8.318,3.76,8.318,8.399v9.478c0,1.16-0.959,2.12-2.119,2.12s-2.16-0.96-2.16-2.12v-9.478c0-2.28-1.839-4.12-4.039-4.12
		C284.798,169.352,282.998,171.151,282.918,173.352z"/>
	<path fill="#FFFFFF" d="M300.44,175.071c0.04-5.439,4.279-9.999,9.759-9.999c5.199,0,9.318,3.88,9.639,9.279
		c0,0.04,0,0.119,0,0.199s0,0.28-0.04,0.36c-0.12,0.96-0.96,1.6-2.08,1.6H305c0.2,0.92,0.64,1.96,1.359,2.64
		c0.84,0.96,2.439,1.68,3.84,1.8c1.439,0.12,3.159-0.24,4.159-1c0.84-0.88,2.479-0.76,2.999-0.12c0.521,0.56,0.92,1.76,0,2.6
		c-1.959,1.8-4.318,2.64-7.158,2.64C304.72,185.029,300.48,180.51,300.44,175.071z M304.8,173.111h11.318
		c-0.4-1.6-2.439-3.959-5.919-4.239C306.8,169.032,305.12,171.472,304.8,173.111z"/>
	<path fill="#FFFFFF" d="M359.115,168.272l-6.599,15.517c-0.04,0.08-0.08,0.2-0.16,0.32c0,0.04-0.04,0.04-0.04,0.04
		c-0.039,0.08-0.119,0.16-0.199,0.24c-0.04,0.04-0.08,0.04-0.08,0.04c-0.08,0.08-0.16,0.16-0.24,0.2c0,0.039-0.04,0.039-0.04,0.079
		c-0.12,0.08-0.2,0.16-0.359,0.2c0,0-0.04,0-0.04,0.04c-0.08,0-0.2,0.04-0.32,0.08c-0.04,0-0.04,0-0.08,0
		c-0.12,0.04-0.24,0.04-0.399,0.04c-0.12,0-0.24,0-0.36-0.04c-0.04,0-0.04,0-0.08,0c-0.08-0.04-0.16-0.08-0.28-0.08
		c-0.04-0.04-0.04-0.04-0.04-0.04c-0.04,0-0.04,0-0.04,0c-0.119-0.04-0.239-0.12-0.359-0.24c0,0,0,0,0-0.039
		c-0.12-0.04-0.16-0.12-0.24-0.2c0,0-0.08,0-0.08-0.04c-0.08-0.08-0.16-0.16-0.2-0.24c0,0-0.039,0-0.039-0.04
		c-0.08-0.12-0.12-0.24-0.16-0.32l-2.92-6.918l-2.84,6.918c-0.039,0.08-0.119,0.2-0.199,0.32v0.04c-0.08,0.08-0.16,0.16-0.24,0.24
		c0,0.04-0.04,0.04-0.04,0.04c-0.08,0.08-0.16,0.16-0.24,0.239c-0.159,0.12-0.239,0.2-0.359,0.24h-0.08c0,0-0.04,0-0.04,0.04
		c-0.08,0-0.2,0.04-0.24,0.08c-0.08,0-0.08,0-0.08,0c-0.16,0.04-0.279,0.04-0.399,0.04c-0.16,0-0.28,0-0.4-0.04
		c-0.04,0-0.04,0-0.12,0c-0.08-0.04-0.159-0.08-0.239-0.08c-0.04-0.04-0.04-0.04-0.08-0.04c-0.12-0.04-0.28-0.12-0.36-0.24
		c-0.04,0-0.04,0-0.04-0.039c-0.04-0.04-0.12-0.12-0.24-0.2c0,0,0,0-0.079-0.04c-0.04-0.08-0.12-0.16-0.16-0.24
		c-0.04,0-0.04,0-0.04-0.04c-0.08-0.12-0.12-0.24-0.2-0.32l-6.559-15.517c-0.48-1.08,0.04-2.28,1.159-2.76
		c0.96-0.44,2.2,0.04,2.64,1.2l4.72,10.758l2.799-6.679c0.36-0.8,1.12-1.28,1.96-1.28c0.88,0,1.64,0.48,1.96,1.28l2.84,6.679
		l4.719-10.758c0.4-1.16,1.68-1.641,2.68-1.2C359.036,165.992,359.596,167.192,359.115,168.272z"/>
	<path fill="#FFFFFF" d="M367.319,160.073c0,1.2-0.92,2.2-2.16,2.2c-1.2,0-2.159-1-2.159-2.2v-0.84c0-1.199,0.959-2.159,2.159-2.159
		c1.24,0,2.16,0.96,2.16,2.159V160.073z M367.319,167.312v15.598c0,1.199-0.92,2.159-2.16,2.159c-1.2,0-2.159-0.96-2.159-2.159
		v-15.598c0-1.28,0.959-2.2,2.159-2.2C366.399,165.112,367.319,166.032,367.319,167.312z"/>
	<path fill="#FFFFFF" d="M380.798,167.272c0,1.199-1.04,2.199-2.239,2.199h-1v11.158c1.239,0,2.199,1,2.199,2.24
		c0,1.239-0.96,2.199-2.199,2.199c-2.439,0-4.439-2-4.439-4.439v-11.158h-1.16c-1.239,0-2.199-1-2.199-2.199
		c0-1.24,0.96-2.2,2.199-2.2h1.16v-5.799c0-1.239,1-2.199,2.239-2.199c1.24,0,2.2,0.96,2.2,2.199v5.799h1
		C379.758,165.072,380.798,166.032,380.798,167.272z"/>
	<path fill="#FFFFFF" d="M389.038,182.87c0,1.239-0.999,2.199-2.239,2.199c-1,0-1.84-0.72-2.119-1.64
		c-0.04-0.16-0.08-0.36-0.08-0.56v-23.597c0-1.239,0.999-2.199,2.199-2.199c1.24,0,2.239,0.96,2.239,2.199v6.959
		c1.28-0.68,2.72-1.16,4.279-1.16c4.84,0,8.719,3.96,8.719,8.759v9.039c0,1.239-0.96,2.199-2.199,2.199c-1.24,0-2.2-0.96-2.2-2.199
		v-9.039c0-2.359-1.919-4.279-4.319-4.319c-2.359,0.04-4.239,1.96-4.279,4.319V182.87z"/>
	<path fill="#FFFFFF" d="M418.839,179.391c1.64,0,2.999,1.359,2.999,2.999s-1.359,2.96-2.999,2.96s-2.96-1.32-2.96-2.96
		S417.199,179.391,418.839,179.391z"/>
	<path fill="#FFFFFF" d="M440.038,179.391c1.64,0,2.999,1.359,2.999,2.999s-1.359,2.96-2.999,2.96s-2.96-1.32-2.96-2.96
		S438.398,179.391,440.038,179.391z"/>
	<path fill="#FFFFFF" d="M461.237,179.391c1.64,0,2.999,1.359,2.999,2.999s-1.359,2.96-2.999,2.96s-2.96-1.32-2.96-2.96
		S459.598,179.391,461.237,179.391z"/>
	<path fill="#FFFFFF" d="M485.036,173.631v2.6c0,1.12-0.84,1.96-1.96,1.96c-1.04,0-1.96-0.84-1.96-1.96v-4.159
		c0-0.04,0.04-0.04,0.04-0.08c-0.04-0.04-0.04-0.04-0.04-0.08c0-1.039,0.92-1.959,1.96-1.959c2.52,0,4.56-2,4.56-4.479
		c0-2.52-2.04-4.479-4.56-4.479c-1.64,0-3.079,0.88-3.839,2.2c-0.561,0.96-1.76,1.279-2.72,0.72c-0.92-0.561-1.24-1.72-0.68-2.68
		c1.439-2.479,4.159-4.159,7.238-4.159c4.64,0,8.438,3.759,8.438,8.398C491.515,169.432,488.755,172.751,485.036,173.631z
		 M485.036,182.39v0.72c0,1.12-0.84,1.96-1.96,1.96c-1.04,0-1.96-0.84-1.96-1.96v-0.72c0-1.08,0.92-1.96,1.96-1.96
		C484.196,180.43,485.036,181.31,485.036,182.39z"/>
</g>
<path fill="#333333" d="M786.157,238.536c0.331,0,0.6,0.269,0.6,0.601c0,0.331-0.269,0.6-0.6,0.6c-3.534,0-6.4,3.064-6.4,6.6v94.735
	c0,3.534-2.865,6.399-6.399,6.399H446.4c-3.534,0-6.4-2.865-6.4-6.399v-96.135c0-3.535,2.866-6.4,6.4-6.4H786.157z"/>
<g>
	<path fill="#FFFFFF" d="M657.668,283.07v-23.597c0-1.239,0.96-2.199,2.2-2.199c1.239,0,2.239,0.96,2.239,2.199v9.599h10.358v-9.599
		c0-1.239,0.96-2.199,2.199-2.199c1.24,0,2.24,0.96,2.24,2.199v23.597c0,1.239-1,2.199-2.24,2.199c-1.239,0-2.199-0.96-2.199-2.199
		v-9.599h-10.358v9.599c0,1.239-1,2.199-2.239,2.199C658.628,285.27,657.668,284.31,657.668,283.07z"/>
	<path fill="#FFFFFF" d="M687.548,260.273c0,1.2-0.92,2.2-2.16,2.2c-1.2,0-2.159-1-2.159-2.2v-0.84c0-1.199,0.959-2.159,2.159-2.159
		c1.24,0,2.16,0.96,2.16,2.159V260.273z M687.548,267.513v15.598c0,1.199-0.92,2.159-2.16,2.159c-1.2,0-2.159-0.96-2.159-2.159
		v-15.598c0-1.28,0.959-2.2,2.159-2.2C686.628,265.312,687.548,266.232,687.548,267.513z"/>
	<path fill="#FFFFFF" d="M713.946,263.673c1.641,0,3,1.36,3,3s-1.359,2.959-3,2.959c-1.64,0-2.959-1.319-2.959-2.959
		S712.307,263.673,713.946,263.673z M713.946,279.591c1.641,0,3,1.359,3,2.999s-1.359,2.96-3,2.96c-1.64,0-2.959-1.32-2.959-2.96
		S712.307,279.591,713.946,279.591z"/>
	<path fill="#FFFFFF" d="M717.347,273.031c0-1.319,1.08-2.399,2.359-2.399h7.519c1.28,0,2.36,1.08,2.36,2.399
		c0,1.28-1.08,2.36-2.36,2.36h-7.519C718.427,275.392,717.347,274.312,717.347,273.031z"/>
	<path fill="#FFFFFF" d="M743.345,288.069c0,1.319-1.08,2.399-2.399,2.399h-8.239c-1.04,0-1.88-0.88-1.88-1.92s0.84-1.88,1.88-1.88
		h5.999v-25.596h-5.999c-1.04,0-1.88-0.84-1.88-1.879c0-1.04,0.84-1.92,1.88-1.92h8.239c1.319,0,2.399,1.08,2.399,2.399V288.069z"/>
	<path fill="#FFFFFF" d="M463.35,331.07v-23.597c0-1.239,0.96-2.199,2.2-2.199c1.239,0,2.239,0.96,2.239,2.199v9.599h10.358v-9.599
		c0-1.239,0.96-2.199,2.199-2.199c1.24,0,2.24,0.96,2.24,2.199v23.597c0,1.239-1,2.199-2.24,2.199c-1.239,0-2.199-0.96-2.199-2.199
		v-9.599h-10.358v9.599c0,1.239-1,2.199-2.239,2.199C464.31,333.27,463.35,332.31,463.35,331.07z"/>
	<path fill="#FFFFFF" d="M487.47,323.271c0.04-5.439,4.279-9.999,9.759-9.999c5.199,0,9.318,3.88,9.639,9.279
		c0,0.04,0,0.119,0,0.199s0,0.28-0.04,0.36c-0.12,0.96-0.96,1.6-2.08,1.6h-12.718c0.2,0.92,0.64,1.96,1.359,2.64
		c0.84,0.96,2.439,1.68,3.84,1.8c1.439,0.12,3.159-0.24,4.159-1c0.84-0.88,2.479-0.76,2.999-0.12c0.521,0.56,0.92,1.76,0,2.6
		c-1.959,1.8-4.318,2.64-7.158,2.64C491.749,333.229,487.51,328.71,487.47,323.271z M491.829,321.312h11.318
		c-0.4-1.6-2.439-3.959-5.919-4.239C493.829,317.232,492.149,319.672,491.829,321.312z"/>
	<path fill="#FFFFFF" d="M522.308,315.393c0,1.12-0.92,2.119-2.119,2.119c-0.92,0-1.72,0.24-2.399,0.761
		c-0.761,0.479-1.36,1.159-1.84,1.919c-0.96,1.28-1.44,2.8-1.64,3.359v7.599c0,1.16-1,2.12-2.2,2.12c-1.159,0-2.119-0.96-2.119-2.12
		v-15.757c0-1.16,0.96-2.08,2.119-2.08c1.2,0,2.2,0.92,2.2,2.08v0.28c0.239-0.28,0.56-0.601,0.84-0.8
		c1.319-0.88,3.039-1.601,5.039-1.561C521.388,313.312,522.308,314.232,522.308,315.393z"/>
	<path fill="#FFFFFF" d="M521.75,323.271c0.04-5.439,4.279-9.999,9.759-9.999c5.199,0,9.318,3.88,9.639,9.279
		c0,0.04,0,0.119,0,0.199s0,0.28-0.04,0.36c-0.12,0.96-0.96,1.6-2.08,1.6H526.31c0.2,0.92,0.64,1.96,1.359,2.64
		c0.84,0.96,2.439,1.68,3.84,1.8c1.439,0.12,3.159-0.24,4.159-1c0.84-0.88,2.479-0.76,2.999-0.12c0.521,0.56,0.92,1.76,0,2.6
		c-1.959,1.8-4.318,2.64-7.158,2.64C526.029,333.229,521.79,328.71,521.75,323.271z M526.109,321.312h11.318
		c-0.4-1.6-2.439-3.959-5.919-4.239C528.109,317.232,526.43,319.672,526.109,321.312z"/>
	<path fill="#FFFFFF" d="M544.67,314.353c1.84-0.56,2.8-1.8,2.72-3.6c-1.16-0.279-2.279-1.239-2.279-2.679v-0.32
		c0-1.52,1.079-2.68,2.719-2.68c1.76,0,2.88,1.359,2.88,3.52v0.399c0,2.72-0.72,4.6-1.96,5.84c-1.079,1.079-2.64,1.72-3.759,1.72
		c-0.84,0-1.24-0.48-1.24-1.12C543.75,314.873,544.15,314.513,544.67,314.353z"/>
	<path fill="#FFFFFF" d="M549.75,327.551c0.72-0.96,2.119-1.08,2.999-0.32c1.04,0.88,2.84,1.8,4.399,1.76
		c1.08,0,2.08-0.36,2.72-0.76c0.56-0.48,0.72-0.88,0.72-1.2c0-0.199-0.04-0.279-0.12-0.399c-0.04-0.12-0.2-0.28-0.52-0.48
		c-0.561-0.399-1.76-0.84-3.199-1.119h-0.04c-1.24-0.24-2.44-0.561-3.479-1.04c-1.08-0.521-2.04-1.24-2.76-2.319
		c-0.44-0.721-0.68-1.601-0.68-2.52c0-1.84,1.04-3.399,2.359-4.399c1.399-0.96,3.079-1.48,4.919-1.48c2.76,0,4.72,1.32,5.999,2.2
		c0.96,0.64,1.24,1.96,0.64,2.959c-0.64,0.96-1.959,1.24-2.959,0.561c-1.28-0.84-2.399-1.48-3.68-1.48c-1,0-1.88,0.32-2.399,0.721
		c-0.52,0.359-0.64,0.72-0.64,0.92c0,0.159,0,0.199,0.08,0.319c0.04,0.08,0.159,0.24,0.439,0.4c0.521,0.359,1.56,0.72,2.92,0.96
		l0.04,0.04h0.04c1.319,0.239,2.56,0.6,3.719,1.159c1.08,0.48,2.16,1.24,2.84,2.359c0.479,0.8,0.76,1.72,0.76,2.64
		c0,1.96-1.08,3.6-2.52,4.64c-1.439,1-3.239,1.6-5.199,1.6c-3.119-0.04-5.519-1.479-7.119-2.76
		C549.149,329.79,549.03,328.431,549.75,327.551z"/>
	<path fill="#FFFFFF" d="M582.027,331.07c0,1.239-0.999,2.199-2.239,2.199c-1,0-1.84-0.72-2.119-1.64
		c-0.04-0.16-0.08-0.36-0.08-0.56v-23.597c0-1.239,0.999-2.199,2.199-2.199c1.24,0,2.239,0.96,2.239,2.199v6.959
		c1.28-0.68,2.72-1.16,4.279-1.16c4.84,0,8.719,3.96,8.719,8.759v9.039c0,1.239-0.96,2.199-2.199,2.199c-1.24,0-2.2-0.96-2.2-2.199
		v-9.039c0-2.359-1.919-4.279-4.319-4.319c-2.359,0.04-4.239,1.96-4.279,4.319V331.07z"/>
	<path fill="#FFFFFF" d="M601.548,330.35c-1.72-1.76-2.759-4.239-2.759-7.038c0-2.72,1.039-5.079,2.759-6.999
		c1.8-1.88,4.12-3.04,6.879-3.04c2.64,0,5.04,1.16,6.68,3.04c1.799,1.92,2.799,4.279,2.799,6.999c0,2.799-1,5.278-2.799,7.038
		c-1.64,1.88-4.04,3.04-6.68,3.04C605.668,333.39,603.348,332.229,601.548,330.35z M603.148,323.312c0,1.72,0.52,3.119,1.439,4.239
		c1,0.96,2.319,1.479,3.839,1.479c1.4,0,2.68-0.52,3.68-1.479c1-1.12,1.56-2.52,1.56-4.239c0-1.64-0.56-3.08-1.56-4.159
		c-1-0.88-2.279-1.521-3.68-1.521c-1.52,0-2.839,0.641-3.839,1.521C603.668,320.231,603.148,321.672,603.148,323.312z"/>
	<path fill="#FFFFFF" d="M646.424,316.473l-6.599,15.517c-0.04,0.08-0.08,0.2-0.16,0.32c0,0.04-0.04,0.04-0.04,0.04
		c-0.039,0.08-0.119,0.16-0.199,0.24c-0.04,0.04-0.08,0.04-0.08,0.04c-0.08,0.08-0.16,0.16-0.24,0.2c0,0.039-0.04,0.039-0.04,0.079
		c-0.12,0.08-0.2,0.16-0.359,0.2c0,0-0.04,0-0.04,0.04c-0.08,0-0.2,0.04-0.32,0.08c-0.04,0-0.04,0-0.08,0
		c-0.12,0.04-0.24,0.04-0.399,0.04c-0.12,0-0.24,0-0.36-0.04c-0.04,0-0.04,0-0.08,0c-0.08-0.04-0.16-0.08-0.28-0.08
		c-0.04-0.04-0.04-0.04-0.04-0.04c-0.04,0-0.04,0-0.04,0c-0.119-0.04-0.239-0.12-0.359-0.24c0,0,0,0,0-0.039
		c-0.12-0.04-0.16-0.12-0.24-0.2c0,0-0.08,0-0.08-0.04c-0.08-0.08-0.16-0.16-0.2-0.24c0,0-0.039,0-0.039-0.04
		c-0.08-0.12-0.12-0.24-0.16-0.32l-2.92-6.918l-2.84,6.918c-0.039,0.08-0.119,0.2-0.199,0.32v0.04c-0.08,0.08-0.16,0.16-0.24,0.24
		c0,0.04-0.04,0.04-0.04,0.04c-0.08,0.08-0.16,0.16-0.24,0.239c-0.159,0.12-0.239,0.2-0.359,0.24h-0.08c0,0-0.04,0-0.04,0.04
		c-0.08,0-0.2,0.04-0.24,0.08c-0.08,0-0.08,0-0.08,0c-0.16,0.04-0.279,0.04-0.399,0.04c-0.16,0-0.28,0-0.4-0.04
		c-0.04,0-0.04,0-0.12,0c-0.08-0.04-0.159-0.08-0.239-0.08c-0.04-0.04-0.04-0.04-0.08-0.04c-0.12-0.04-0.28-0.12-0.36-0.24
		c-0.04,0-0.04,0-0.04-0.039c-0.04-0.04-0.12-0.12-0.24-0.2c0,0,0,0-0.079-0.04c-0.04-0.08-0.12-0.16-0.16-0.24
		c-0.04,0-0.04,0-0.04-0.04c-0.08-0.12-0.12-0.24-0.2-0.32l-6.559-15.517c-0.48-1.08,0.04-2.28,1.159-2.76
		c0.96-0.44,2.2,0.04,2.64,1.2l4.72,10.758l2.799-6.679c0.36-0.8,1.12-1.28,1.96-1.28c0.88,0,1.64,0.48,1.96,1.28l2.84,6.679
		l4.719-10.758c0.4-1.16,1.68-1.641,2.68-1.2C646.345,314.192,646.904,315.393,646.424,316.473z"/>
	<path fill="#FFFFFF" d="M671.347,315.473c0,1.199-1.04,2.199-2.239,2.199h-1v11.158c1.239,0,2.199,1,2.199,2.24
		c0,1.239-0.96,2.199-2.199,2.199c-2.439,0-4.439-2-4.439-4.439v-11.158h-1.16c-1.239,0-2.199-1-2.199-2.199
		c0-1.24,0.96-2.2,2.199-2.2h1.16v-5.799c0-1.239,1-2.199,2.239-2.199c1.24,0,2.2,0.96,2.2,2.199v5.799h1
		C670.307,313.272,671.347,314.232,671.347,315.473z"/>
	<path fill="#FFFFFF" d="M677.187,330.35c-1.72-1.76-2.759-4.239-2.759-7.038c0-2.72,1.039-5.079,2.759-6.999
		c1.8-1.88,4.12-3.04,6.879-3.04c2.64,0,5.04,1.16,6.68,3.04c1.799,1.92,2.799,4.279,2.799,6.999c0,2.799-1,5.278-2.799,7.038
		c-1.64,1.88-4.04,3.04-6.68,3.04C681.307,333.39,678.986,332.229,677.187,330.35z M678.787,323.312c0,1.72,0.52,3.119,1.439,4.239
		c1,0.96,2.319,1.479,3.839,1.479c1.4,0,2.68-0.52,3.68-1.479c1-1.12,1.56-2.52,1.56-4.239c0-1.64-0.56-3.08-1.56-4.159
		c-1-0.88-2.279-1.521-3.68-1.521c-1.52,0-2.839,0.641-3.839,1.521C679.307,320.231,678.787,321.672,678.787,323.312z"/>
	<path fill="#FFFFFF" d="M710.067,327.591c1.64,0,2.999,1.359,2.999,2.999s-1.359,2.96-2.999,2.96s-2.96-1.32-2.96-2.96
		S708.428,327.591,710.067,327.591z"/>
	<path fill="#FFFFFF" d="M726.467,327.591c1.64,0,2.999,1.359,2.999,2.999s-1.359,2.96-2.999,2.96s-2.96-1.32-2.96-2.96
		S724.827,327.591,726.467,327.591z"/>
	<path fill="#FFFFFF" d="M742.865,327.591c1.64,0,2.999,1.359,2.999,2.999s-1.359,2.96-2.999,2.96s-2.96-1.32-2.96-2.96
		S741.226,327.591,742.865,327.591z"/>
</g>
<path fill="#333333" d="M786.658,367.471c0.331,0,0.6,0.269,0.6,0.6s-0.269,0.601-0.6,0.601c-3.535,0-6.4,3.065-6.4,6.6v99.201
	c0,3.534-2.865,6.4-6.4,6.4h-122.8c-3.534,0-6.399-2.866-6.399-6.4V373.87c0-3.534,2.865-6.399,6.399-6.399H786.658z"/>
<g>
	<path fill="#FFFFFF" d="M768.882,384.306c0,3.081-2.506,5.564-5.588,5.564c-2.896,0-5.266-2.185-5.541-4.99
		c0-0.022,0-0.022-0.023-0.046c-0.022-0.437-0.046-0.874-0.046-1.311c0-1.541,0.229-3.196,0.805-4.714s1.518-2.967,2.967-3.933
		c0.966-0.644,2.139-1.034,3.449-1.08c0.713-0.023,1.287,0.506,1.333,1.219c0.023,0.689-0.528,1.265-1.241,1.333
		c-0.874,0.023-1.563,0.276-2.162,0.645c-0.574,0.391-1.058,0.92-1.448,1.609c-0.115,0.184-0.207,0.391-0.299,0.598
		c0.667-0.299,1.426-0.46,2.207-0.46C766.376,378.74,768.882,381.224,768.882,384.306z M766.33,384.306
		c0-1.656-1.357-3.036-3.036-3.036c-1.678,0-3.012,1.38-3.012,3.036c0,1.679,1.334,3.012,3.012,3.012
		C764.973,387.317,766.33,385.984,766.33,384.306z"/>
</g>
<path fill="#FFFFFF" d="M735.896,431.995c0.418-1.594,0.727-3.229,0.934-4.897l-6.198-2.515c0.051-0.728,0.085-1.46,0.085-2.2
	c0-0.903-0.047-1.794-0.121-2.677l6.176-2.505c-0.23-1.678-0.57-3.319-1.014-4.921l-6.695,0.05c-0.517-1.526-1.146-2.999-1.88-4.41
	l4.743-4.676c-0.86-1.462-1.817-2.859-2.86-4.188l-6.17,2.609c-1.034-1.174-2.151-2.271-3.347-3.279l2.594-6.14
	c-1.359-1.03-2.792-1.965-4.285-2.807l-4.7,4.769c-1.366-0.67-2.787-1.245-4.256-1.715l0.048-6.668
	c-1.65-0.432-3.35-0.749-5.081-0.956l-2.519,6.205c-0.666-0.041-1.336-0.069-2.012-0.069c-0.836,0-1.661,0.041-2.481,0.105
	l-2.509-6.184c-1.743,0.231-3.447,0.577-5.105,1.037l0.049,6.694c-1.413,0.478-2.78,1.051-4.094,1.716l-4.688-4.757
	c-1.517,0.874-2.967,1.849-4.34,2.918l2.603,6.16c-1.111,0.966-2.153,2.008-3.12,3.12l-6.16-2.604
	c-1.068,1.374-2.043,2.824-2.916,4.341l4.755,4.688c-0.665,1.314-1.239,2.682-1.716,4.094l-6.695-0.049
	c-0.459,1.659-0.806,3.363-1.035,5.104l6.183,2.509c-0.064,0.821-0.107,1.648-0.107,2.485c0,0.675,0.029,1.343,0.071,2.009
	l-6.207,2.519c0.208,1.732,0.524,3.429,0.958,5.081l6.667-0.049c0.47,1.471,1.045,2.893,1.716,4.258l-4.769,4.701
	c0.842,1.492,1.777,2.926,2.807,4.284l6.139-2.595c1.009,1.197,2.105,2.314,3.279,3.348l-2.607,6.17
	c1.328,1.043,2.726,2,4.188,2.861l4.675-4.744c1.411,0.734,2.885,1.363,4.411,1.88l-0.049,6.695c1.601,0.442,3.241,0.783,4.92,1.015
	l2.506-6.176c0.882,0.073,1.772,0.121,2.674,0.121c0.742,0,1.476-0.035,2.203-0.086l2.516,6.198
	c1.668-0.207,3.305-0.517,4.896-0.934l-0.048-6.67c1.584-0.505,3.108-1.138,4.573-1.877l4.688,4.756
	c1.44-0.829,2.821-1.747,4.133-2.752l-2.599-6.148c1.259-1.074,2.431-2.246,3.505-3.506l6.149,2.599
	c1.005-1.312,1.923-2.693,2.752-4.134l-4.756-4.687c0.739-1.464,1.371-2.99,1.878-4.574L735.896,431.995z M705.67,437h-13.05
	l-6.524-11.5l6.524-11.5h13.05l6.525,11.5L705.67,437z"/>
</svg>
