<?xml version="1.0" encoding="utf-8"?>
<!-- Generator: Adobe Illustrator 16.0.0, SVG Export Plug-In . SVG Version: 6.00 Build 0)  -->
<!DOCTYPE svg PUBLIC "-//W3C//DTD SVG 1.1//EN" "http://www.w3.org/Graphics/SVG/1.1/DTD/svg11.dtd">
<svg version="1.1" id="Layer_1" xmlns="http://www.w3.org/2000/svg" xmlns:xlink="http://www.w3.org/1999/xlink" x="0px" y="0px"
	 width="332px" height="208px" viewBox="0 0 332 208" enable-background="new 0 0 332 208" xml:space="preserve">
<path fill="#333333" d="M11.057,7.502c-0.274,0-0.498,0.225-0.498,0.5c0,0.274,0.224,0.498,0.498,0.498
	c2.937,0,5.316,2.545,5.316,5.482v78.692c0,2.937,2.381,5.317,5.316,5.317h134.996c2.936,0,5.316-2.381,5.316-5.317V12.818
	c0-2.936-2.381-5.316-5.316-5.316H11.057z"/>
<path fill="#333333" d="M320.943,105.082c0.275,0,0.498,0.223,0.498,0.498c0,0.274-0.223,0.498-0.498,0.498
	c-2.936,0-5.316,2.547-5.316,5.482v82.402c0,2.937-2.38,5.317-5.316,5.317H180.805c-2.936,0-5.314-2.381-5.314-5.317v-83.566
	c0-2.936,2.379-5.314,5.314-5.314H320.943z"/>
<g>
	<path fill="#FFFFFF" d="M301.863,129.286c0,5.975-4.86,10.79-10.835,10.79c-5.618,0-10.21-4.235-10.745-9.675
		c0-0.045,0-0.045-0.045-0.09c-0.044-0.847-0.089-1.694-0.089-2.541c0-2.987,0.446-6.197,1.561-9.141
		c1.114-2.942,2.942-5.751,5.752-7.624c1.872-1.248,4.146-2.006,6.688-2.096c1.382-0.044,2.497,0.981,2.586,2.363
		c0.045,1.338-1.025,2.452-2.407,2.586c-1.694,0.045-3.032,0.535-4.191,1.248c-1.114,0.759-2.051,1.784-2.809,3.121
		c-0.224,0.357-0.401,0.759-0.58,1.16c1.293-0.58,2.765-0.893,4.28-0.893C297.003,118.496,301.863,123.312,301.863,129.286z
		 M296.914,129.286c0-3.21-2.631-5.885-5.886-5.885s-5.841,2.675-5.841,5.885c0,3.255,2.586,5.841,5.841,5.841
		S296.914,132.541,296.914,129.286z"/>
</g>
<path fill="#FFFFFF" d="M252.81,161.172c0.348-1.324,0.604-2.684,0.776-4.068l-5.149-2.089c0.042-0.604,0.071-1.213,0.071-1.827
	c0-0.751-0.039-1.49-0.102-2.225l5.131-2.08c-0.191-1.394-0.475-2.758-0.842-4.088l-5.562,0.041
	c-0.429-1.268-0.951-2.49-1.562-3.662l3.94-3.885c-0.715-1.215-1.51-2.375-2.377-3.479l-5.125,2.167
	c-0.858-0.976-1.787-1.887-2.779-2.724l2.154-5.101c-1.129-0.855-2.318-1.632-3.56-2.331l-3.904,3.961
	c-1.135-0.557-2.315-1.034-3.535-1.424l0.04-5.539c-1.371-0.359-2.783-0.623-4.221-0.795l-2.092,5.154
	c-0.554-0.033-1.11-0.057-1.672-0.057c-0.693,0-1.379,0.033-2.061,0.087l-2.084-5.136c-1.448,0.191-2.863,0.479-4.241,0.861
	l0.04,5.561c-1.174,0.396-2.309,0.873-3.4,1.425l-3.894-3.951c-1.26,0.726-2.464,1.536-3.604,2.424l2.162,5.117
	c-0.924,0.802-1.789,1.667-2.592,2.592l-5.117-2.163c-0.888,1.141-1.697,2.346-2.423,3.605l3.95,3.894
	c-0.553,1.092-1.029,2.228-1.426,3.4l-5.562-0.04c-0.381,1.378-0.669,2.793-0.86,4.24l5.137,2.084
	c-0.054,0.682-0.09,1.369-0.09,2.064c0,0.561,0.024,1.115,0.06,1.668l-5.156,2.092c0.173,1.439,0.436,2.849,0.796,4.221l5.538-0.04
	c0.39,1.222,0.868,2.403,1.425,3.536l-3.961,3.906c0.699,1.238,1.477,2.43,2.332,3.559l5.1-2.156
	c0.838,0.995,1.748,1.923,2.723,2.781l-2.165,5.125c1.103,0.867,2.264,1.662,3.478,2.377l3.884-3.941
	c1.173,0.611,2.396,1.133,3.664,1.562l-0.04,5.561c1.329,0.368,2.691,0.651,4.086,0.844l2.082-5.131
	c0.732,0.062,1.473,0.102,2.221,0.102c0.617,0,1.227-0.029,1.83-0.072l2.09,5.149c1.386-0.173,2.745-0.429,4.067-0.776l-0.04-5.54
	c1.316-0.419,2.582-0.944,3.799-1.56l3.895,3.951c1.196-0.688,2.344-1.451,3.433-2.286l-2.159-5.106
	c1.047-0.893,2.02-1.866,2.912-2.913l5.107,2.159c0.836-1.091,1.598-2.238,2.287-3.434l-3.951-3.894
	c0.614-1.216,1.139-2.483,1.561-3.8L252.81,161.172z M227.701,164.955h-10.84l-5.42-9.5l5.42-9.5h10.84l5.421,9.5L227.701,164.955z"
	/>
<g>
	<path fill="#FFFFFF" d="M93.1,51.583v4.319c0,1.86-1.396,3.256-3.256,3.256c-1.728,0-3.256-1.396-3.256-3.256v-6.911
		c0-0.066,0.066-0.066,0.066-0.133c-0.066-0.066-0.066-0.066-0.066-0.133c0-1.729,1.528-3.257,3.256-3.257
		c4.187,0,7.575-3.322,7.575-7.442c0-4.187-3.389-7.442-7.575-7.442c-2.725,0-5.117,1.462-6.38,3.654
		c-0.93,1.595-2.924,2.127-4.519,1.196c-1.528-0.93-2.06-2.857-1.13-4.452c2.393-4.12,6.911-6.911,12.028-6.911
		c7.708,0,14.021,6.247,14.021,13.955C103.865,44.605,99.28,50.121,93.1,51.583z M93.1,66.136v1.196c0,1.86-1.396,3.256-3.256,3.256
		c-1.728,0-3.256-1.396-3.256-3.256v-1.196c0-1.794,1.528-3.256,3.256-3.256C91.704,62.88,93.1,64.342,93.1,66.136z"/>
</g>
</svg>
