<?xml version="1.0" encoding="utf-8"?>
<!-- Generator: Adobe Illustrator 16.0.0, SVG Export Plug-In . SVG Version: 6.00 Build 0)  -->
<!DOCTYPE svg PUBLIC "-//W3C//DTD SVG 1.1//EN" "http://www.w3.org/Graphics/SVG/1.1/DTD/svg11.dtd">
<svg version="1.1" id="Layer_1" xmlns="http://www.w3.org/2000/svg" xmlns:xlink="http://www.w3.org/1999/xlink" x="0px" y="0px"
	 width="332px" height="208px" viewBox="0 0 332 208" enable-background="new 0 0 332 208" xml:space="preserve">
<path fill="#848484" d="M220.251,118.82c0.625-2.38,1.086-4.822,1.395-7.311l-9.252-3.753c0.074-1.087,0.127-2.18,0.127-3.283
	c0-1.35-0.068-2.678-0.182-3.998l9.219-3.737c-0.344-2.504-0.852-4.956-1.512-7.346l-9.996,0.074
	c-0.77-2.278-1.709-4.476-2.805-6.581l7.08-6.98c-1.285-2.183-2.713-4.268-4.271-6.25l-9.209,3.894
	c-1.543-1.753-3.211-3.391-4.994-4.895l3.871-9.165c-2.027-1.537-4.166-2.933-6.396-4.188l-7.016,7.117
	c-2.039-1-4.16-1.858-6.352-2.559l0.072-9.953c-2.465-0.646-5.002-1.119-7.584-1.428l-3.76,9.262
	c-0.994-0.061-1.994-0.103-3.004-0.103c-1.246,0-2.479,0.06-3.703,0.156l-3.744-9.229c-2.602,0.345-5.145,0.86-7.621,1.548
	l0.072,9.992c-2.109,0.712-4.148,1.568-6.111,2.56l-6.996-7.1c-2.264,1.304-4.426,2.761-6.477,4.355l3.885,9.195
	c-1.66,1.44-3.215,2.995-4.656,4.657l-9.195-3.887c-1.596,2.05-3.051,4.215-4.354,6.479l7.098,6.996
	c-0.992,1.962-1.85,4.003-2.562,6.11l-9.992-0.072c-0.686,2.477-1.203,5.019-1.547,7.619l9.23,3.745
	c-0.096,1.225-0.162,2.46-0.162,3.71c0,1.007,0.045,2.004,0.107,2.997l-9.266,3.759c0.311,2.586,0.783,5.118,1.432,7.584
	l9.951-0.072c0.699,2.195,1.559,4.318,2.561,6.354l-7.119,7.019c1.258,2.226,2.654,4.366,4.191,6.395l9.164-3.874
	c1.506,1.788,3.141,3.455,4.893,4.997l-3.891,9.209c1.98,1.559,4.066,2.987,6.248,4.271l6.979-7.082
	c2.107,1.099,4.307,2.035,6.584,2.808l-0.072,9.991c2.389,0.662,4.836,1.171,7.342,1.517l3.742-9.22
	c1.316,0.11,2.646,0.183,3.99,0.183c1.109,0,2.203-0.053,3.289-0.13l3.754,9.253c2.49-0.311,4.934-0.771,7.309-1.396l-0.07-9.954
	c2.365-0.753,4.639-1.697,6.826-2.803l6.998,7.1c2.148-1.237,4.211-2.607,6.168-4.107l-3.881-9.176
	c1.881-1.604,3.629-3.354,5.232-5.234l9.178,3.88c1.502-1.961,2.871-4.022,4.109-6.17l-7.1-6.997
	c1.104-2.185,2.047-4.462,2.805-6.827L220.251,118.82z"/>
<circle fill="#CCCCCC" cx="165.333" cy="104.581" r="27.284"/>
<polygon fill="#212121" points="158.367,116.955 151.118,104.456 158.367,91.955 172.866,91.955 180.115,104.456 172.866,116.955 
	"/>
<circle fill="#FFFFFF" cx="170.333" cy="96.289" r="1.833"/>
<g>
	<path d="M230.536,44.776c0,5.359-4.359,9.679-9.718,9.679c-5.04,0-9.159-3.8-9.639-8.679c0-0.04,0-0.04-0.04-0.08
		c-0.04-0.76-0.08-1.52-0.08-2.279c0-2.68,0.4-5.56,1.399-8.198c1-2.64,2.64-5.159,5.159-6.839c1.68-1.12,3.72-1.8,5.999-1.88
		c1.24-0.04,2.24,0.88,2.32,2.119c0.04,1.2-0.92,2.2-2.16,2.32c-1.52,0.04-2.72,0.479-3.76,1.119c-0.999,0.68-1.839,1.6-2.52,2.8
		c-0.199,0.32-0.359,0.68-0.52,1.04c1.16-0.521,2.479-0.8,3.84-0.8C226.177,35.099,230.536,39.418,230.536,44.776z M226.097,44.776
		c0-2.879-2.359-5.278-5.278-5.278c-2.92,0-5.239,2.399-5.239,5.278c0,2.92,2.319,5.239,5.239,5.239
		C223.737,50.016,226.097,47.696,226.097,44.776z"/>
</g>
</svg>
