<?xml version="1.0" encoding="utf-8"?>
<!-- Generator: Adobe Illustrator 16.0.0, SVG Export Plug-In . SVG Version: 6.00 Build 0)  -->
<!DOCTYPE svg PUBLIC "-//W3C//DTD SVG 1.1//EN" "http://www.w3.org/Graphics/SVG/1.1/DTD/svg11.dtd">
<svg version="1.1" id="Layer_1" xmlns="http://www.w3.org/2000/svg" xmlns:xlink="http://www.w3.org/1999/xlink" x="0px" y="0px"
	 width="800px" height="500px" viewBox="0 0 800 500" enable-background="new 0 0 800 500" xml:space="preserve">
<path fill="#666666" d="M10.101,18.803c-0.331,0-0.601,0.269-0.601,0.6c0,0.331,0.27,0.6,0.601,0.6c3.534,0,6.399,3.065,6.399,6.6
	v41.534c0,3.535,2.866,6.4,6.4,6.4h64.7c3.534,0,6.399-2.865,6.399-6.4V25.203c0-3.535-2.865-6.4-6.399-6.4H10.101z"/>
<g>
	<path fill="#FFFFFF" d="M30.259,60.736V37.14c0-1.24,0.96-2.199,2.2-2.199c1.239,0,2.239,0.959,2.239,2.199v9.599h10.358V37.14
		c0-1.24,0.96-2.199,2.199-2.199c1.24,0,2.24,0.959,2.24,2.199v23.596c0,1.24-1,2.2-2.24,2.2c-1.239,0-2.199-0.96-2.199-2.2v-9.598
		H34.698v9.598c0,1.24-1,2.2-2.239,2.2C31.219,62.936,30.259,61.976,30.259,60.736z"/>
	<path fill="#FFFFFF" d="M60.139,37.94c0,1.2-0.92,2.199-2.16,2.199c-1.2,0-2.159-1-2.159-2.199v-0.84c0-1.2,0.959-2.16,2.159-2.16
		c1.24,0,2.16,0.959,2.16,2.16V37.94z M60.139,45.179v15.597c0,1.2-0.92,2.16-2.16,2.16c-1.2,0-2.159-0.96-2.159-2.16V45.179
		c0-1.28,0.959-2.2,2.159-2.2C59.219,42.979,60.139,43.899,60.139,45.179z"/>
	<path fill="#FFFFFF" d="M74.219,53.298V37.14c0-1.2,0.999-2.199,2.199-2.199s2.16,1,2.16,2.199v16.158
		c0,1.24-0.96,2.199-2.16,2.199S74.219,54.538,74.219,53.298z M76.418,62.936c-1.2,0-2.199-0.96-2.199-2.2v-0.8
		c0-1.2,0.999-2.2,2.199-2.2s2.16,1,2.16,2.2v0.8C78.578,61.976,77.618,62.936,76.418,62.936z"/>
</g>
<path fill="#666666" d="M10.101,94.536c-0.331,0-0.601,0.269-0.601,0.6c0,0.332,0.27,0.6,0.601,0.6c3.534,0,6.399,3.065,6.399,6.6
	v94.734c0,3.535,2.866,6.4,6.4,6.4h587.941c3.534,0,6.4-2.865,6.4-6.4v-96.134c0-3.535-2.866-6.4-6.4-6.4H10.101z"/>
<g>
	<path fill="#FFFFFF" d="M29.207,111.273c0-1.24,0.96-2.199,2.199-2.199c1.2,0,2.24,0.959,2.24,2.199v23.596
		c0,1.24-1.04,2.2-2.24,2.2c-1.239,0-2.199-0.96-2.199-2.2V111.273z"/>
	<path fill="#FFFFFF" d="M52.325,134.87c0,1.24-0.999,2.2-2.239,2.2c-1,0-1.84-0.72-2.119-1.64c-0.04-0.16-0.08-0.36-0.08-0.56
		v-23.596c0-1.24,0.999-2.199,2.199-2.199c1.24,0,2.239,0.959,2.239,2.199v6.959c1.28-0.68,2.72-1.16,4.279-1.16
		c4.84,0,8.719,3.959,8.719,8.758v9.039c0,1.24-0.96,2.2-2.199,2.2c-1.24,0-2.2-0.96-2.2-2.2v-9.039
		c0-2.359-1.919-4.279-4.319-4.319c-2.359,0.04-4.239,1.96-4.279,4.319V134.87z"/>
	<path fill="#FFFFFF" d="M88.522,127.111v7.839c0,1.16-0.96,2.12-2.12,2.12c-1.039,0-1.84-0.76-2.079-1.72
		c-1.52,1.08-3.319,1.72-5.319,1.72c-2.72,0-5.079-1.12-6.799-2.919c-1.72-1.84-2.72-4.319-2.72-7.039c0-2.759,1-5.239,2.72-7.039
		c1.72-1.84,4.079-3,6.799-3c2,0,3.8,0.68,5.319,1.76c0.239-1,1.04-1.76,2.079-1.76c1.16,0,2.12,0.96,2.12,2.16V127.111z
		 M84.283,127.111c0-1.68-0.601-3.119-1.56-4.119c-0.96-1.08-2.32-1.64-3.72-1.64c-1.439,0-2.8,0.56-3.72,1.64
		c-0.96,1-1.52,2.439-1.52,4.119c0,1.64,0.56,3.08,1.52,4.12c0.92,1,2.28,1.56,3.72,1.56c1.399,0,2.76-0.56,3.72-1.56
		C83.683,130.19,84.283,128.751,84.283,127.111z"/>
	<path fill="#FFFFFF" d="M108.963,120.272l-6.559,15.518c-0.04,0.12-0.12,0.24-0.16,0.28c0,0.04-0.04,0.04-0.04,0.04
		c-0.08,0.08-0.16,0.2-0.24,0.28c0,0.04-0.04,0.04-0.04,0.04c-0.08,0.12-0.159,0.16-0.239,0.24c0,0-0.04,0-0.04,0.04
		c-0.08,0.08-0.16,0.16-0.28,0.2c0,0,0,0-0.08,0c0,0,0,0,0,0.04c-0.12,0-0.24,0.04-0.319,0.08c-0.04,0-0.04,0-0.08,0
		c-0.16,0.04-0.28,0.04-0.4,0.04c-0.08,0-0.2,0-0.36-0.04c-0.039,0-0.039,0-0.079,0c-0.12-0.04-0.2-0.08-0.32-0.08
		c0-0.04,0-0.04,0-0.04c-0.08,0-0.08,0-0.08,0c-0.12-0.04-0.2-0.12-0.36-0.2c0-0.04-0.039-0.04-0.039-0.04
		c-0.08-0.08-0.16-0.12-0.24-0.24c-0.04,0-0.04,0-0.08-0.04c-0.04-0.08-0.12-0.2-0.2-0.28c-0.04,0-0.04,0-0.04-0.04
		c-0.08-0.04-0.12-0.16-0.16-0.28l-6.479-15.518c-0.479-1.08,0.04-2.239,1.16-2.719c0.959-0.48,2.199,0.08,2.679,1.16l4.6,10.878
		l4.64-10.878c0.439-1.08,1.64-1.64,2.679-1.16C108.923,118.033,109.443,119.192,108.963,120.272z"/>
	<path fill="#FFFFFF" d="M111.445,127.071c0.04-5.439,4.279-9.998,9.759-9.998c5.199,0,9.318,3.879,9.639,9.278c0,0.04,0,0.12,0,0.2
		c0,0.08,0,0.28-0.04,0.36c-0.12,0.96-0.96,1.6-2.08,1.6h-12.718c0.2,0.92,0.64,1.959,1.359,2.64c0.84,0.96,2.439,1.68,3.84,1.8
		c1.439,0.12,3.159-0.24,4.159-1c0.84-0.88,2.479-0.76,2.999-0.12c0.521,0.56,0.92,1.76,0,2.6c-1.959,1.8-4.318,2.64-7.158,2.64
		C115.725,137.029,111.485,132.51,111.445,127.071z M115.805,125.111h11.318c-0.4-1.6-2.439-3.959-5.919-4.239
		C117.805,121.032,116.125,123.472,115.805,125.111z"/>
	<path fill="#FFFFFF" d="M161.321,127.111v7.839c0,1.16-0.96,2.12-2.12,2.12c-1.039,0-1.84-0.76-2.079-1.72
		c-1.52,1.08-3.319,1.72-5.319,1.72c-2.72,0-5.079-1.12-6.799-2.919c-1.72-1.84-2.72-4.319-2.72-7.039c0-2.759,1-5.239,2.72-7.039
		c1.72-1.84,4.079-3,6.799-3c2,0,3.8,0.68,5.319,1.76c0.239-1,1.04-1.76,2.079-1.76c1.16,0,2.12,0.96,2.12,2.16V127.111z
		 M157.082,127.111c0-1.68-0.601-3.119-1.56-4.119c-0.96-1.08-2.32-1.64-3.72-1.64c-1.439,0-2.8,0.56-3.72,1.64
		c-0.96,1-1.52,2.439-1.52,4.119c0,1.64,0.56,3.08,1.52,4.12c0.92,1,2.28,1.56,3.72,1.56c1.399,0,2.76-0.56,3.72-1.56
		C156.481,130.19,157.082,128.751,157.082,127.111z"/>
	<path fill="#FFFFFF" d="M174.963,127.111c0-5.559,4.64-9.998,10.158-10.038c2.4,0,4.64,0.88,6.359,2.2
		c0.92,0.72,1.08,2.08,0.439,2.959c-0.8,0.96-2.079,1.12-2.999,0.4c-1.04-0.76-2.319-1.28-3.8-1.28c-3.239,0-5.919,2.68-5.919,5.759
		c0,3.08,2.68,5.719,5.919,5.719c1.44,0,2.76-0.52,3.8-1.28c0.88-0.68,2.199-0.52,2.999,0.44c0.641,0.88,0.48,2.16-0.439,2.959
		c-1.72,1.24-3.959,2.12-6.359,2.12C179.603,137.069,174.963,132.59,174.963,127.111z"/>
	<path fill="#FFFFFF" d="M198.043,134.15c-1.719-1.76-2.759-4.239-2.759-7.039c0-2.719,1.04-5.079,2.759-6.999
		c1.8-1.88,4.12-3.04,6.879-3.04c2.64,0,5.04,1.16,6.68,3.04c1.799,1.919,2.799,4.279,2.799,6.999c0,2.8-1,5.279-2.799,7.039
		c-1.64,1.879-4.04,3.04-6.68,3.04C202.163,137.189,199.843,136.029,198.043,134.15z M199.644,127.111c0,1.72,0.52,3.12,1.439,4.239
		c1,0.96,2.319,1.48,3.839,1.48c1.4,0,2.68-0.52,3.68-1.48c1-1.12,1.56-2.52,1.56-4.239c0-1.64-0.56-3.079-1.56-4.159
		c-1-0.88-2.279-1.52-3.68-1.52c-1.52,0-2.839,0.64-3.839,1.52C200.163,124.032,199.644,125.471,199.644,127.111z"/>
	<path fill="#FFFFFF" d="M226.082,137.069c-4.559,0-8.318-3.759-8.318-8.318v-9.559c0-1.12,0.96-2.12,2.12-2.12
		c1.199,0,2.119,1,2.119,2.12v9.559c0,2.279,1.8,4.079,4.079,4.079c2.32,0,4.159-1.8,4.199-4.079v-9.559c0-1.12,0.88-2.12,2.08-2.12
		c1.12,0,2.159,1,2.159,2.12v9.559C234.521,133.31,230.682,137.069,226.082,137.069z"/>
	<path fill="#FFFFFF" d="M240.283,142.429v-15.278c0,0,0,0,0-0.04v-7.918c0-1.16,0.96-2.12,2.119-2.12c1.12,0,2.04,0.76,2.2,1.64
		c1.479-0.96,3.399-1.64,5.438-1.64c5.319,0,9.679,4.559,9.679,10.038s-4.359,9.918-9.679,9.918c-1.999,0-3.919-0.6-5.359-1.64
		v7.039c0,1.119-0.999,2.159-2.279,2.159C241.243,144.588,240.283,143.548,240.283,142.429z M244.682,127.111
		c0,1.56,0.521,3.08,1.561,4c0.999,1.12,2.319,1.68,3.799,1.68c1.36,0,2.72-0.56,3.76-1.68c0.92-0.92,1.56-2.439,1.56-4
		c0-1.56-0.64-3-1.56-4.039c-1.04-1.08-2.399-1.64-3.76-1.64c-1.479,0-2.8,0.56-3.799,1.64
		C245.202,124.111,244.682,125.551,244.682,127.111z"/>
	<path fill="#FFFFFF" d="M265.963,109.074c1.239,0,2.239,1,2.239,2.199v23.596c0,1.2-1,2.2-2.239,2.2c-1.2,0-2.2-1-2.2-2.2v-23.596
		C263.763,110.074,264.763,109.074,265.963,109.074z"/>
	<path fill="#FFFFFF" d="M271.442,127.071c0.04-5.439,4.279-9.998,9.759-9.998c5.199,0,9.318,3.879,9.639,9.278c0,0.04,0,0.12,0,0.2
		c0,0.08,0,0.28-0.04,0.36c-0.12,0.96-0.96,1.6-2.08,1.6h-12.718c0.2,0.92,0.64,1.959,1.359,2.64c0.84,0.96,2.439,1.68,3.84,1.8
		c1.439,0.12,3.159-0.24,4.159-1c0.84-0.88,2.479-0.76,2.999-0.12c0.521,0.56,0.92,1.76,0,2.6c-1.959,1.8-4.318,2.64-7.158,2.64
		C275.722,137.029,271.482,132.51,271.442,127.071z M275.802,125.111h11.318c-0.4-1.6-2.439-3.959-5.919-4.239
		C277.802,121.032,276.122,123.472,275.802,125.111z"/>
	<path fill="#FFFFFF" d="M306.241,134.15c-1.72-1.76-2.759-4.239-2.759-7.039c0-2.719,1.039-5.079,2.759-6.999
		c1.8-1.88,4.12-3.04,6.879-3.04c2.64,0,5.04,1.16,6.68,3.04c1.799,1.919,2.799,4.279,2.799,6.999c0,2.8-1,5.279-2.799,7.039
		c-1.64,1.879-4.04,3.04-6.68,3.04C310.361,137.189,308.041,136.029,306.241,134.15z M307.842,127.111c0,1.72,0.52,3.12,1.439,4.239
		c1,0.96,2.319,1.48,3.839,1.48c1.4,0,2.68-0.52,3.68-1.48c1-1.12,1.56-2.52,1.56-4.239c0-1.64-0.56-3.079-1.56-4.159
		c-1-0.88-2.279-1.52-3.68-1.52c-1.52,0-2.839,0.64-3.839,1.52C308.361,124.032,307.842,125.471,307.842,127.111z"/>
	<path fill="#FFFFFF" d="M332.161,115.753v0.56h1.2c1.199,0,2.199,0.959,2.199,2.2c0,1.2-1,2.199-2.199,2.199h-1.2v14.118
		c0,1.2-0.96,2.2-2.199,2.2c-1.24,0-2.2-1-2.2-2.2v-14.118h-1.04c-1.239,0-2.239-1-2.239-2.199c0-1.24,1-2.2,2.239-2.2h1.04v-0.56
		c0-1.48,0.16-2.76,0.76-3.919c0.561-1.2,1.68-2.12,2.88-2.479c0.8-0.24,1.56-0.32,2.399-0.32c1.2,0,2.199,1,2.199,2.2
		c0,1.24-0.999,2.239-2.199,2.239c-0.52,0-0.88,0.04-1.04,0.12c-0.16,0.04-0.2,0.08-0.239,0.12
		C332.481,113.713,332.161,114.273,332.161,115.753z"/>
	<path fill="#FFFFFF" d="M361.04,142.429v-7.039c-1.521,1.04-3.36,1.68-5.359,1.68c-5.399,0-9.719-4.479-9.719-9.999
		c0-5.479,4.319-9.998,9.719-9.998c2.039,0,3.879,0.68,5.438,1.68c0.16-0.92,1.04-1.68,2.12-1.68c1.2,0,2.159,0.96,2.159,2.16v7.838
		c0,0.04,0,0.04,0,0.04v15.318c0,1.119-0.959,2.119-2.159,2.119C361.999,144.548,361.04,143.548,361.04,142.429z M355.681,121.392
		c-1.4,0-2.72,0.64-3.76,1.72c-0.96,0.959-1.64,2.439-1.64,3.959c0,1.64,0.68,3.08,1.64,4.04c1.04,1.12,2.359,1.68,3.76,1.68
		c1.439,0,2.8-0.56,3.719-1.68c1.04-0.96,1.641-2.399,1.641-4.04c0-1.52-0.601-3-1.641-3.959
		C358.48,122.032,357.12,121.392,355.681,121.392z"/>
	<path fill="#FFFFFF" d="M379.2,137.069c-4.559,0-8.318-3.759-8.318-8.318v-9.559c0-1.12,0.96-2.12,2.12-2.12
		c1.199,0,2.119,1,2.119,2.12v9.559c0,2.279,1.8,4.079,4.079,4.079c2.32,0,4.159-1.8,4.199-4.079v-9.559c0-1.12,0.88-2.12,2.08-2.12
		c1.12,0,2.159,1,2.159,2.12v9.559C387.639,133.31,383.8,137.069,379.2,137.069z"/>
	<path fill="#FFFFFF" d="M392.001,127.071c0.04-5.439,4.279-9.998,9.759-9.998c5.199,0,9.318,3.879,9.639,9.278c0,0.04,0,0.12,0,0.2
		c0,0.08,0,0.28-0.04,0.36c-0.12,0.96-0.96,1.6-2.08,1.6h-12.718c0.2,0.92,0.64,1.959,1.359,2.64c0.84,0.96,2.439,1.68,3.84,1.8
		c1.439,0.12,3.159-0.24,4.159-1c0.84-0.88,2.479-0.76,2.999-0.12c0.521,0.56,0.92,1.76,0,2.6c-1.959,1.8-4.318,2.64-7.158,2.64
		C396.28,137.029,392.041,132.51,392.001,127.071z M396.36,125.111h11.318c-0.4-1.6-2.439-3.959-5.919-4.239
		C398.36,121.032,396.681,123.472,396.36,125.111z"/>
	<path fill="#FFFFFF" d="M414.401,131.35c0.72-0.959,2.119-1.08,2.999-0.32c1.04,0.88,2.84,1.8,4.399,1.76
		c1.08,0,2.08-0.36,2.72-0.76c0.56-0.48,0.72-0.88,0.72-1.2c0-0.2-0.04-0.28-0.12-0.4c-0.04-0.12-0.2-0.28-0.52-0.48
		c-0.561-0.4-1.76-0.84-3.199-1.12h-0.04c-1.24-0.24-2.44-0.56-3.479-1.04c-1.08-0.52-2.04-1.24-2.76-2.32
		c-0.44-0.72-0.68-1.6-0.68-2.52c0-1.84,1.039-3.399,2.359-4.399c1.399-0.959,3.079-1.479,4.919-1.479c2.76,0,4.72,1.32,5.999,2.2
		c0.96,0.64,1.24,1.959,0.64,2.959c-0.64,0.96-1.959,1.24-2.959,0.56c-1.28-0.84-2.399-1.479-3.68-1.479c-1,0-1.88,0.32-2.399,0.72
		c-0.52,0.36-0.64,0.72-0.64,0.92c0,0.16,0,0.2,0.08,0.32c0.04,0.08,0.159,0.24,0.439,0.4c0.521,0.36,1.56,0.72,2.92,0.96l0.04,0.04
		h0.04c1.319,0.24,2.56,0.6,3.719,1.16c1.08,0.48,2.16,1.24,2.84,2.36c0.479,0.8,0.76,1.72,0.76,2.64c0,1.959-1.08,3.599-2.52,4.639
		c-1.439,1-3.239,1.6-5.199,1.6c-3.119-0.04-5.519-1.48-7.119-2.76C413.801,133.59,413.682,132.23,414.401,131.35z"/>
	<path fill="#FFFFFF" d="M442.239,119.272c0,1.2-1.04,2.2-2.239,2.2h-1v11.158c1.239,0,2.199,1,2.199,2.24s-0.96,2.2-2.199,2.2
		c-2.439,0-4.439-2-4.439-4.439v-11.158h-1.16c-1.239,0-2.199-1-2.199-2.2c0-1.24,0.96-2.2,2.199-2.2h1.16v-5.799
		c0-1.24,1-2.199,2.239-2.199c1.24,0,2.2,0.959,2.2,2.199v5.799h1C441.199,117.073,442.239,118.033,442.239,119.272z"/>
	<path fill="#FFFFFF" d="M451.2,112.074c0,1.2-0.92,2.199-2.16,2.199c-1.2,0-2.159-1-2.159-2.199v-0.84c0-1.2,0.959-2.16,2.159-2.16
		c1.24,0,2.16,0.959,2.16,2.16V112.074z M451.2,119.312v15.597c0,1.2-0.92,2.16-2.16,2.16c-1.2,0-2.159-0.96-2.159-2.16v-15.597
		c0-1.28,0.959-2.2,2.159-2.2C450.28,117.113,451.2,118.033,451.2,119.312z"/>
	<path fill="#FFFFFF" d="M457.52,134.15c-1.719-1.76-2.759-4.239-2.759-7.039c0-2.719,1.04-5.079,2.759-6.999
		c1.8-1.88,4.12-3.04,6.879-3.04c2.64,0,5.04,1.16,6.68,3.04c1.799,1.919,2.799,4.279,2.799,6.999c0,2.8-1,5.279-2.799,7.039
		c-1.64,1.879-4.04,3.04-6.68,3.04C461.64,137.189,459.319,136.029,457.52,134.15z M459.12,127.111c0,1.72,0.52,3.12,1.439,4.239
		c1,0.96,2.319,1.48,3.839,1.48c1.4,0,2.68-0.52,3.68-1.48c1-1.12,1.56-2.52,1.56-4.239c0-1.64-0.56-3.079-1.56-4.159
		c-1-0.88-2.279-1.52-3.68-1.52c-1.52,0-2.839,0.64-3.839,1.52C459.64,124.032,459.12,125.471,459.12,127.111z"/>
	<path fill="#FFFFFF" d="M494.957,125.391v9.559c0,1.16-0.92,2.12-2.079,2.12c-1.12,0-2.12-0.96-2.12-2.12v-9.559
		c0-2.239-1.88-4.039-4.159-4.039c-2.239,0-3.999,1.8-3.999,4.039v9.559c0,0.12,0,0.24-0.08,0.4c-0.2,0.96-1.08,1.72-2.12,1.72
		c-1.199,0-2.119-0.96-2.119-2.12v-9.559v-6.199c0-1.16,0.92-2.12,2.119-2.12c0.84,0,1.6,0.48,1.96,1.24
		c1.199-0.76,2.68-1.24,4.239-1.24C491.237,117.073,494.957,120.872,494.957,125.391z"/>
	<path fill="#FFFFFF" d="M499.44,131.35c0.72-0.959,2.119-1.08,2.999-0.32c1.04,0.88,2.84,1.8,4.399,1.76
		c1.08,0,2.08-0.36,2.72-0.76c0.56-0.48,0.72-0.88,0.72-1.2c0-0.2-0.04-0.28-0.12-0.4c-0.04-0.12-0.2-0.28-0.52-0.48
		c-0.561-0.4-1.76-0.84-3.199-1.12h-0.04c-1.24-0.24-2.44-0.56-3.479-1.04c-1.08-0.52-2.04-1.24-2.76-2.32
		c-0.44-0.72-0.68-1.6-0.68-2.52c0-1.84,1.039-3.399,2.359-4.399c1.399-0.959,3.079-1.479,4.919-1.479c2.76,0,4.72,1.32,5.999,2.2
		c0.96,0.64,1.24,1.959,0.64,2.959c-0.64,0.96-1.959,1.24-2.959,0.56c-1.28-0.84-2.399-1.479-3.68-1.479c-1,0-1.88,0.32-2.399,0.72
		c-0.52,0.36-0.64,0.72-0.64,0.92c0,0.16,0,0.2,0.08,0.32c0.04,0.08,0.159,0.24,0.439,0.4c0.521,0.36,1.56,0.72,2.92,0.96l0.04,0.04
		h0.04c1.319,0.24,2.56,0.6,3.719,1.16c1.08,0.48,2.16,1.24,2.84,2.36c0.479,0.8,0.76,1.72,0.76,2.64c0,1.959-1.08,3.599-2.52,4.639
		c-1.439,1-3.239,1.6-5.199,1.6c-3.119-0.04-5.519-1.48-7.119-2.76C498.84,133.59,498.721,132.23,499.44,131.35z"/>
	<path fill="#FFFFFF" d="M520.199,131.39c1.64,0,2.999,1.36,2.999,3s-1.359,2.959-2.999,2.959s-2.96-1.32-2.96-2.959
		S518.56,131.39,520.199,131.39z"/>
	<path fill="#FFFFFF" d="M28.927,182.87v-23.597c0-1.239,0.96-2.199,2.2-2.199c1.239,0,2.239,0.96,2.239,2.199v9.599h10.358v-9.599
		c0-1.239,0.96-2.199,2.199-2.199c1.24,0,2.24,0.96,2.24,2.199v23.597c0,1.239-1,2.199-2.24,2.199c-1.239,0-2.199-0.96-2.199-2.199
		v-9.599H33.366v9.599c0,1.239-1,2.199-2.239,2.199C29.887,185.069,28.927,184.109,28.927,182.87z"/>
	<path fill="#FFFFFF" d="M56.286,182.149c-1.72-1.76-2.759-4.239-2.759-7.038c0-2.72,1.039-5.079,2.759-6.999
		c1.8-1.88,4.12-3.04,6.879-3.04c2.64,0,5.04,1.16,6.68,3.04c1.799,1.92,2.799,4.279,2.799,6.999c0,2.799-1,5.278-2.799,7.038
		c-1.64,1.88-4.04,3.04-6.68,3.04C60.406,185.189,58.086,184.029,56.286,182.149z M57.887,175.111c0,1.72,0.52,3.119,1.439,4.239
		c1,0.96,2.319,1.479,3.839,1.479c1.4,0,2.68-0.52,3.68-1.479c1-1.12,1.56-2.52,1.56-4.239c0-1.64-0.56-3.08-1.56-4.159
		c-1-0.88-2.279-1.521-3.68-1.521c-1.52,0-2.839,0.641-3.839,1.521C58.406,172.031,57.887,173.472,57.887,175.111z"/>
	<path fill="#FFFFFF" d="M101.162,168.272l-6.599,15.517c-0.04,0.08-0.08,0.2-0.16,0.32c0,0.04-0.04,0.04-0.04,0.04
		c-0.039,0.08-0.119,0.16-0.199,0.24c-0.04,0.04-0.08,0.04-0.08,0.04c-0.08,0.08-0.16,0.16-0.24,0.2c0,0.039-0.04,0.039-0.04,0.079
		c-0.12,0.08-0.2,0.16-0.359,0.2c0,0-0.04,0-0.04,0.04c-0.08,0-0.2,0.04-0.32,0.08c-0.04,0-0.04,0-0.08,0
		c-0.12,0.04-0.24,0.04-0.399,0.04c-0.12,0-0.24,0-0.36-0.04c-0.04,0-0.04,0-0.08,0c-0.08-0.04-0.16-0.08-0.28-0.08
		c-0.04-0.04-0.04-0.04-0.04-0.04c-0.04,0-0.04,0-0.04,0c-0.119-0.04-0.239-0.12-0.359-0.24c0,0,0,0,0-0.039
		c-0.12-0.04-0.16-0.12-0.24-0.2c0,0-0.08,0-0.08-0.04c-0.08-0.08-0.16-0.16-0.2-0.24c0,0-0.039,0-0.039-0.04
		c-0.08-0.12-0.12-0.24-0.16-0.32l-2.92-6.918l-2.84,6.918c-0.039,0.08-0.119,0.2-0.199,0.32v0.04c-0.08,0.08-0.16,0.16-0.24,0.24
		c0,0.04-0.04,0.04-0.04,0.04c-0.08,0.08-0.16,0.16-0.24,0.239c-0.159,0.12-0.239,0.2-0.359,0.24h-0.08c0,0-0.04,0-0.04,0.04
		c-0.08,0-0.2,0.04-0.24,0.08c-0.08,0-0.08,0-0.08,0c-0.16,0.04-0.279,0.04-0.399,0.04c-0.16,0-0.28,0-0.4-0.04
		c-0.04,0-0.04,0-0.12,0c-0.08-0.04-0.159-0.08-0.239-0.08c-0.04-0.04-0.04-0.04-0.08-0.04c-0.12-0.04-0.28-0.12-0.36-0.24
		c-0.04,0-0.04,0-0.04-0.039c-0.04-0.04-0.12-0.12-0.24-0.2c0,0,0,0-0.079-0.04c-0.04-0.08-0.12-0.16-0.16-0.24
		c-0.04,0-0.04,0-0.04-0.04c-0.08-0.12-0.12-0.24-0.2-0.32l-6.559-15.517c-0.48-1.08,0.04-2.28,1.159-2.76
		c0.96-0.44,2.2,0.04,2.64,1.2l4.72,10.758l2.799-6.679c0.36-0.8,1.12-1.28,1.96-1.28c0.88,0,1.64,0.48,1.96,1.28l2.84,6.679
		l4.719-10.758c0.4-1.16,1.68-1.641,2.68-1.2C101.083,165.992,101.643,167.192,101.162,168.272z"/>
	<path fill="#FFFFFF" d="M115.687,175.111c0-5.56,4.64-9.999,10.158-10.039c2.4,0,4.64,0.88,6.359,2.2
		c0.92,0.72,1.08,2.079,0.439,2.959c-0.8,0.96-2.079,1.12-2.999,0.4c-1.04-0.76-2.319-1.28-3.8-1.28c-3.239,0-5.919,2.68-5.919,5.76
		c0,3.079,2.68,5.719,5.919,5.719c1.44,0,2.76-0.52,3.8-1.28c0.88-0.68,2.199-0.52,2.999,0.44c0.641,0.88,0.48,2.159-0.439,2.959
		c-1.72,1.24-3.959,2.12-6.359,2.12C120.326,185.069,115.687,180.59,115.687,175.111z"/>
	<path fill="#FFFFFF" d="M154.443,175.111v7.838c0,1.16-0.96,2.12-2.12,2.12c-1.039,0-1.84-0.76-2.079-1.72
		c-1.52,1.08-3.319,1.72-5.319,1.72c-2.72,0-5.079-1.12-6.799-2.92c-1.72-1.839-2.72-4.319-2.72-7.038c0-2.76,1-5.239,2.72-7.039
		c1.72-1.84,4.079-3,6.799-3c2,0,3.8,0.681,5.319,1.76c0.239-0.999,1.04-1.76,2.079-1.76c1.16,0,2.12,0.96,2.12,2.16V175.111z
		 M150.204,175.111c0-1.68-0.601-3.12-1.56-4.119c-0.96-1.08-2.32-1.641-3.72-1.641c-1.439,0-2.8,0.561-3.72,1.641
		c-0.96,0.999-1.52,2.439-1.52,4.119c0,1.64,0.56,3.079,1.52,4.119c0.92,1,2.28,1.56,3.72,1.56c1.399,0,2.76-0.56,3.72-1.56
		C149.604,178.19,150.204,176.751,150.204,175.111z"/>
	<path fill="#FFFFFF" d="M176.163,173.392v9.558c0,1.16-0.92,2.12-2.079,2.12c-1.12,0-2.12-0.96-2.12-2.12v-9.558
		c0-2.24-1.88-4.04-4.159-4.04c-2.239,0-3.999,1.8-3.999,4.04v9.558c0,0.12,0,0.24-0.08,0.4c-0.2,0.96-1.08,1.72-2.12,1.72
		c-1.199,0-2.119-0.96-2.119-2.12v-9.558v-6.199c0-1.16,0.92-2.12,2.119-2.12c0.84,0,1.6,0.48,1.96,1.24
		c1.199-0.76,2.68-1.24,4.239-1.24C172.443,165.072,176.163,168.872,176.163,173.392z"/>
	<path fill="#FFFFFF" d="M191.926,159.273c0-1.239,0.96-2.199,2.199-2.199c1.2,0,2.24,0.96,2.24,2.199v23.597
		c0,1.239-1.04,2.199-2.24,2.199c-1.239,0-2.199-0.96-2.199-2.199V159.273z"/>
	<path fill="#FFFFFF" d="M227.321,173.352c0,0.04,0,0.08,0,0.12v9.478c0,1.16-0.96,2.12-2.119,2.12c-1.12,0-2.16-0.96-2.16-2.12
		v-9.478c0-0.04,0-0.08,0-0.12c-0.04-2.2-1.88-4-4.119-4c-2.2,0-4.039,1.84-4.039,4.12v9.478c0,0.08-0.04,0.2-0.04,0.28
		c0,0.04,0,0.12,0,0.12c-0.04,0.08-0.04,0.16-0.12,0.24c0,0.04,0,0.12,0,0.199c-0.36,0.721-1.16,1.28-2,1.28
		c-0.16,0-0.28-0.04-0.399-0.04c-0.96-0.24-1.72-1.04-1.72-2.08v-9.478c0-0.04,0-0.04,0-0.04v-6.199c0-1.24,0.96-2.16,2.119-2.16
		c0.84,0,1.6,0.44,1.92,1.2c1.279-0.76,2.76-1.2,4.279-1.2c2.52,0,4.759,1.04,6.279,2.76c1.479-1.72,3.759-2.76,6.278-2.76
		c4.6,0,8.318,3.76,8.318,8.399v9.478c0,1.16-0.959,2.12-2.119,2.12s-2.16-0.96-2.16-2.12v-9.478c0-2.28-1.839-4.12-4.039-4.12
		C229.201,169.352,227.401,171.151,227.321,173.352z"/>
	<path fill="#FFFFFF" d="M263.161,175.111v7.838c0,1.16-0.96,2.12-2.12,2.12c-1.039,0-1.84-0.76-2.079-1.72
		c-1.52,1.08-3.319,1.72-5.319,1.72c-2.72,0-5.079-1.12-6.799-2.92c-1.72-1.839-2.72-4.319-2.72-7.038c0-2.76,1-5.239,2.72-7.039
		c1.72-1.84,4.079-3,6.799-3c2,0,3.8,0.681,5.319,1.76c0.239-0.999,1.04-1.76,2.079-1.76c1.16,0,2.12,0.96,2.12,2.16V175.111z
		 M258.922,175.111c0-1.68-0.601-3.12-1.56-4.119c-0.96-1.08-2.32-1.641-3.72-1.641c-1.439,0-2.8,0.561-3.72,1.641
		c-0.96,0.999-1.52,2.439-1.52,4.119c0,1.64,0.56,3.079,1.52,4.119c0.92,1,2.28,1.56,3.72,1.56c1.399,0,2.76-0.56,3.72-1.56
		C258.321,178.19,258.922,176.751,258.922,175.111z"/>
	<path fill="#FFFFFF" d="M268.604,182.87v-23.597c0-1.199,0.96-2.199,2.199-2.199c1.24,0,2.239,1,2.239,2.199v13.838l8.199-8.198
		c0.84-0.84,2.279-0.84,3.119,0c0.88,0.88,0.88,2.279,0,3.119l-5.999,5.999l6.159,7.398c0.76,0.96,0.64,2.359-0.32,3.12
		c-0.399,0.359-0.92,0.52-1.399,0.52c-0.64,0-1.279-0.28-1.68-0.8l-5.879-7.119l-2.2,2.2v3.52c0,1.199-0.999,2.199-2.239,2.199
		C269.563,185.069,268.604,184.069,268.604,182.87z"/>
	<path fill="#FFFFFF" d="M286.204,175.071c0.04-5.439,4.279-9.999,9.759-9.999c5.199,0,9.318,3.88,9.639,9.279
		c0,0.04,0,0.119,0,0.199s0,0.28-0.04,0.36c-0.12,0.96-0.96,1.6-2.08,1.6h-12.718c0.2,0.92,0.64,1.96,1.359,2.64
		c0.84,0.96,2.439,1.68,3.84,1.8c1.439,0.12,3.159-0.24,4.159-1c0.84-0.88,2.479-0.76,2.999-0.12c0.521,0.56,0.92,1.76,0,2.6
		c-1.959,1.8-4.318,2.64-7.158,2.64C290.483,185.029,286.244,180.51,286.204,175.071z M290.563,173.111h11.318
		c-0.4-1.6-2.439-3.959-5.919-4.239C292.563,169.032,290.884,171.472,290.563,173.111z"/>
	<path fill="#FFFFFF" d="M321.683,179.391c1.64,0,2.999,1.359,2.999,2.999s-1.359,2.96-2.999,2.96s-2.96-1.32-2.96-2.96
		S320.043,179.391,321.683,179.391z"/>
	<path fill="#FFFFFF" d="M342.882,179.391c1.64,0,2.999,1.359,2.999,2.999s-1.359,2.96-2.999,2.96s-2.96-1.32-2.96-2.96
		S341.242,179.391,342.882,179.391z"/>
	<path fill="#FFFFFF" d="M364.081,179.391c1.64,0,2.999,1.359,2.999,2.999s-1.359,2.96-2.999,2.96s-2.96-1.32-2.96-2.96
		S362.441,179.391,364.081,179.391z"/>
	<path fill="#FFFFFF" d="M387.88,173.631v2.6c0,1.12-0.84,1.96-1.96,1.96c-1.04,0-1.96-0.84-1.96-1.96v-4.159
		c0-0.04,0.04-0.04,0.04-0.08c-0.04-0.04-0.04-0.04-0.04-0.08c0-1.039,0.92-1.959,1.96-1.959c2.52,0,4.56-2,4.56-4.479
		c0-2.52-2.04-4.479-4.56-4.479c-1.64,0-3.079,0.88-3.839,2.2c-0.561,0.96-1.76,1.279-2.72,0.72c-0.92-0.561-1.24-1.72-0.68-2.68
		c1.439-2.479,4.159-4.159,7.238-4.159c4.64,0,8.438,3.759,8.438,8.398C394.358,169.432,391.599,172.751,387.88,173.631z
		 M387.88,182.39v0.72c0,1.12-0.84,1.96-1.96,1.96c-1.04,0-1.96-0.84-1.96-1.96v-0.72c0-1.08,0.92-1.96,1.96-1.96
		C387.04,180.43,387.88,181.31,387.88,182.39z"/>
</g>
<path fill="#333333" d="M789.399,238.536c0.331,0,0.6,0.269,0.6,0.601c0,0.331-0.269,0.6-0.6,0.6c-3.534,0-6.4,3.064-6.4,6.6v94.735
	c0,3.534-2.865,6.399-6.399,6.399H449.643c-3.534,0-6.4-2.865-6.4-6.399v-96.135c0-3.535,2.866-6.4,6.4-6.4H789.399z"/>
<g>
	<path fill="#FFFFFF" d="M670.51,283.07v-23.597c0-1.239,0.96-2.199,2.2-2.199c1.239,0,2.239,0.96,2.239,2.199v9.599h10.358v-9.599
		c0-1.239,0.96-2.199,2.199-2.199c1.24,0,2.24,0.96,2.24,2.199v23.597c0,1.239-1,2.199-2.24,2.199c-1.239,0-2.199-0.96-2.199-2.199
		v-9.599h-10.358v9.599c0,1.239-1,2.199-2.239,2.199C671.47,285.27,670.51,284.31,670.51,283.07z"/>
	<path fill="#FFFFFF" d="M700.39,260.273c0,1.2-0.92,2.2-2.16,2.2c-1.2,0-2.159-1-2.159-2.2v-0.84c0-1.199,0.959-2.159,2.159-2.159
		c1.24,0,2.16,0.96,2.16,2.159V260.273z M700.39,267.513v15.598c0,1.199-0.92,2.159-2.16,2.159c-1.2,0-2.159-0.96-2.159-2.159
		v-15.598c0-1.28,0.959-2.2,2.159-2.2C699.47,265.312,700.39,266.232,700.39,267.513z"/>
	<path fill="#FFFFFF" d="M717.188,263.673c1.641,0,3,1.36,3,3s-1.359,2.959-3,2.959c-1.64,0-2.959-1.319-2.959-2.959
		S715.549,263.673,717.188,263.673z M717.188,279.591c1.641,0,3,1.359,3,2.999s-1.359,2.96-3,2.96c-1.64,0-2.959-1.32-2.959-2.96
		S715.549,279.591,717.188,279.591z"/>
	<path fill="#FFFFFF" d="M720.589,273.031c0-1.319,1.08-2.399,2.359-2.399h7.519c1.28,0,2.36,1.08,2.36,2.399
		c0,1.28-1.08,2.36-2.36,2.36h-7.519C721.669,275.392,720.589,274.312,720.589,273.031z"/>
	<path fill="#FFFFFF" d="M746.587,288.069c0,1.319-1.08,2.399-2.399,2.399h-8.239c-1.04,0-1.88-0.88-1.88-1.92s0.84-1.88,1.88-1.88
		h5.999v-25.596h-5.999c-1.04,0-1.88-0.84-1.88-1.879c0-1.04,0.84-1.92,1.88-1.92h8.239c1.319,0,2.399,1.08,2.399,2.399V288.069z"/>
	<path fill="#FFFFFF" d="M466.592,331.07v-23.597c0-1.239,0.96-2.199,2.2-2.199c1.239,0,2.239,0.96,2.239,2.199v9.599h10.358v-9.599
		c0-1.239,0.96-2.199,2.199-2.199c1.24,0,2.24,0.96,2.24,2.199v23.597c0,1.239-1,2.199-2.24,2.199c-1.239,0-2.199-0.96-2.199-2.199
		v-9.599h-10.358v9.599c0,1.239-1,2.199-2.239,2.199C467.552,333.27,466.592,332.31,466.592,331.07z"/>
	<path fill="#FFFFFF" d="M490.712,323.271c0.04-5.439,4.279-9.999,9.759-9.999c5.199,0,9.318,3.88,9.639,9.279
		c0,0.04,0,0.119,0,0.199s0,0.28-0.04,0.36c-0.12,0.96-0.96,1.6-2.08,1.6h-12.718c0.2,0.92,0.64,1.96,1.359,2.64
		c0.84,0.96,2.439,1.68,3.84,1.8c1.439,0.12,3.159-0.24,4.159-1c0.84-0.88,2.479-0.76,2.999-0.12c0.521,0.56,0.92,1.76,0,2.6
		c-1.959,1.8-4.318,2.64-7.158,2.64C494.991,333.229,490.752,328.71,490.712,323.271z M495.071,321.312h11.318
		c-0.4-1.6-2.439-3.959-5.919-4.239C497.071,317.232,495.392,319.672,495.071,321.312z"/>
	<path fill="#FFFFFF" d="M525.55,315.393c0,1.12-0.92,2.119-2.119,2.119c-0.92,0-1.72,0.24-2.399,0.761
		c-0.761,0.479-1.36,1.159-1.84,1.919c-0.96,1.28-1.44,2.8-1.64,3.359v7.599c0,1.16-1,2.12-2.2,2.12c-1.159,0-2.119-0.96-2.119-2.12
		v-15.757c0-1.16,0.96-2.08,2.119-2.08c1.2,0,2.2,0.92,2.2,2.08v0.28c0.239-0.28,0.56-0.601,0.84-0.8
		c1.319-0.88,3.039-1.601,5.039-1.561C524.63,313.312,525.55,314.232,525.55,315.393z"/>
	<path fill="#FFFFFF" d="M524.992,323.271c0.04-5.439,4.279-9.999,9.759-9.999c5.199,0,9.318,3.88,9.639,9.279
		c0,0.04,0,0.119,0,0.199s0,0.28-0.04,0.36c-0.12,0.96-0.96,1.6-2.08,1.6h-12.718c0.2,0.92,0.64,1.96,1.359,2.64
		c0.84,0.96,2.439,1.68,3.84,1.8c1.439,0.12,3.159-0.24,4.159-1c0.84-0.88,2.479-0.76,2.999-0.12c0.521,0.56,0.92,1.76,0,2.6
		c-1.959,1.8-4.318,2.64-7.158,2.64C529.271,333.229,525.032,328.71,524.992,323.271z M529.352,321.312h11.318
		c-0.4-1.6-2.439-3.959-5.919-4.239C531.352,317.232,529.672,319.672,529.352,321.312z"/>
	<path fill="#FFFFFF" d="M547.912,314.353c1.84-0.56,2.8-1.8,2.72-3.6c-1.16-0.279-2.279-1.239-2.279-2.679v-0.32
		c0-1.52,1.079-2.68,2.719-2.68c1.76,0,2.88,1.359,2.88,3.52v0.399c0,2.72-0.72,4.6-1.96,5.84c-1.079,1.079-2.64,1.72-3.759,1.72
		c-0.84,0-1.24-0.48-1.24-1.12C546.992,314.873,547.393,314.513,547.912,314.353z"/>
	<path fill="#FFFFFF" d="M552.992,327.551c0.72-0.96,2.119-1.08,2.999-0.32c1.04,0.88,2.84,1.8,4.399,1.76
		c1.08,0,2.08-0.36,2.72-0.76c0.56-0.48,0.72-0.88,0.72-1.2c0-0.199-0.04-0.279-0.12-0.399c-0.04-0.12-0.2-0.28-0.52-0.48
		c-0.561-0.399-1.76-0.84-3.199-1.119h-0.04c-1.24-0.24-2.44-0.561-3.479-1.04c-1.08-0.521-2.04-1.24-2.76-2.319
		c-0.44-0.721-0.68-1.601-0.68-2.52c0-1.84,1.04-3.399,2.359-4.399c1.399-0.96,3.079-1.48,4.919-1.48c2.76,0,4.72,1.32,5.999,2.2
		c0.96,0.64,1.24,1.96,0.64,2.959c-0.64,0.96-1.959,1.24-2.959,0.561c-1.28-0.84-2.399-1.48-3.68-1.48c-1,0-1.88,0.32-2.399,0.721
		c-0.52,0.359-0.64,0.72-0.64,0.92c0,0.159,0,0.199,0.08,0.319c0.04,0.08,0.159,0.24,0.439,0.4c0.521,0.359,1.56,0.72,2.92,0.96
		l0.04,0.04h0.04c1.319,0.239,2.56,0.6,3.719,1.159c1.08,0.48,2.16,1.24,2.84,2.359c0.479,0.8,0.76,1.72,0.76,2.64
		c0,1.96-1.08,3.6-2.52,4.64c-1.439,1-3.239,1.6-5.199,1.6c-3.119-0.04-5.519-1.479-7.119-2.76
		C552.392,329.79,552.272,328.431,552.992,327.551z"/>
	<path fill="#FFFFFF" d="M585.27,331.07c0,1.239-0.999,2.199-2.239,2.199c-1,0-1.84-0.72-2.119-1.64c-0.04-0.16-0.08-0.36-0.08-0.56
		v-23.597c0-1.239,0.999-2.199,2.199-2.199c1.24,0,2.239,0.96,2.239,2.199v6.959c1.28-0.68,2.72-1.16,4.279-1.16
		c4.84,0,8.719,3.96,8.719,8.759v9.039c0,1.239-0.96,2.199-2.199,2.199c-1.24,0-2.2-0.96-2.2-2.199v-9.039
		c0-2.359-1.919-4.279-4.319-4.319c-2.359,0.04-4.239,1.96-4.279,4.319V331.07z"/>
	<path fill="#FFFFFF" d="M604.79,330.35c-1.72-1.76-2.759-4.239-2.759-7.038c0-2.72,1.039-5.079,2.759-6.999
		c1.8-1.88,4.12-3.04,6.879-3.04c2.64,0,5.04,1.16,6.68,3.04c1.799,1.92,2.799,4.279,2.799,6.999c0,2.799-1,5.278-2.799,7.038
		c-1.64,1.88-4.04,3.04-6.68,3.04C608.91,333.39,606.59,332.229,604.79,330.35z M606.391,323.312c0,1.72,0.52,3.119,1.439,4.239
		c1,0.96,2.319,1.479,3.839,1.479c1.4,0,2.68-0.52,3.68-1.479c1-1.12,1.56-2.52,1.56-4.239c0-1.64-0.56-3.08-1.56-4.159
		c-1-0.88-2.279-1.521-3.68-1.521c-1.52,0-2.839,0.641-3.839,1.521C606.91,320.231,606.391,321.672,606.391,323.312z"/>
	<path fill="#FFFFFF" d="M649.666,316.473l-6.599,15.517c-0.04,0.08-0.08,0.2-0.16,0.32c0,0.04-0.04,0.04-0.04,0.04
		c-0.039,0.08-0.119,0.16-0.199,0.24c-0.04,0.04-0.08,0.04-0.08,0.04c-0.08,0.08-0.16,0.16-0.24,0.2c0,0.039-0.04,0.039-0.04,0.079
		c-0.12,0.08-0.2,0.16-0.359,0.2c0,0-0.04,0-0.04,0.04c-0.08,0-0.2,0.04-0.32,0.08c-0.04,0-0.04,0-0.08,0
		c-0.12,0.04-0.24,0.04-0.399,0.04c-0.12,0-0.24,0-0.36-0.04c-0.04,0-0.04,0-0.08,0c-0.08-0.04-0.16-0.08-0.28-0.08
		c-0.04-0.04-0.04-0.04-0.04-0.04c-0.04,0-0.04,0-0.04,0c-0.119-0.04-0.239-0.12-0.359-0.24c0,0,0,0,0-0.039
		c-0.12-0.04-0.16-0.12-0.24-0.2c0,0-0.08,0-0.08-0.04c-0.08-0.08-0.16-0.16-0.2-0.24c0,0-0.039,0-0.039-0.04
		c-0.08-0.12-0.12-0.24-0.16-0.32l-2.92-6.918l-2.84,6.918c-0.039,0.08-0.119,0.2-0.199,0.32v0.04c-0.08,0.08-0.16,0.16-0.24,0.24
		c0,0.04-0.04,0.04-0.04,0.04c-0.08,0.08-0.16,0.16-0.24,0.239c-0.159,0.12-0.239,0.2-0.359,0.24h-0.08c0,0-0.04,0-0.04,0.04
		c-0.08,0-0.2,0.04-0.24,0.08c-0.08,0-0.08,0-0.08,0c-0.16,0.04-0.279,0.04-0.399,0.04c-0.16,0-0.28,0-0.4-0.04
		c-0.04,0-0.04,0-0.12,0c-0.08-0.04-0.159-0.08-0.239-0.08c-0.04-0.04-0.04-0.04-0.08-0.04c-0.12-0.04-0.28-0.12-0.36-0.24
		c-0.04,0-0.04,0-0.04-0.039c-0.04-0.04-0.12-0.12-0.24-0.2c0,0,0,0-0.079-0.04c-0.04-0.08-0.12-0.16-0.16-0.24
		c-0.04,0-0.04,0-0.04-0.04c-0.08-0.12-0.12-0.24-0.2-0.32l-6.559-15.517c-0.48-1.08,0.04-2.28,1.159-2.76
		c0.96-0.44,2.2,0.04,2.64,1.2l4.72,10.758l2.799-6.679c0.36-0.8,1.12-1.28,1.96-1.28c0.88,0,1.64,0.48,1.96,1.28l2.84,6.679
		l4.719-10.758c0.4-1.16,1.68-1.641,2.68-1.2C649.587,314.192,650.146,315.393,649.666,316.473z"/>
	<path fill="#FFFFFF" d="M674.589,315.473c0,1.199-1.04,2.199-2.239,2.199h-1v11.158c1.239,0,2.199,1,2.199,2.24
		c0,1.239-0.96,2.199-2.199,2.199c-2.439,0-4.439-2-4.439-4.439v-11.158h-1.16c-1.239,0-2.199-1-2.199-2.199
		c0-1.24,0.96-2.2,2.199-2.2h1.16v-5.799c0-1.239,1-2.199,2.239-2.199c1.24,0,2.2,0.96,2.2,2.199v5.799h1
		C673.549,313.272,674.589,314.232,674.589,315.473z"/>
	<path fill="#FFFFFF" d="M680.429,330.35c-1.72-1.76-2.759-4.239-2.759-7.038c0-2.72,1.039-5.079,2.759-6.999
		c1.8-1.88,4.12-3.04,6.879-3.04c2.64,0,5.04,1.16,6.68,3.04c1.799,1.92,2.799,4.279,2.799,6.999c0,2.799-1,5.278-2.799,7.038
		c-1.64,1.88-4.04,3.04-6.68,3.04C684.549,333.39,682.229,332.229,680.429,330.35z M682.029,323.312c0,1.72,0.52,3.119,1.439,4.239
		c1,0.96,2.319,1.479,3.839,1.479c1.4,0,2.68-0.52,3.68-1.479c1-1.12,1.56-2.52,1.56-4.239c0-1.64-0.56-3.08-1.56-4.159
		c-1-0.88-2.279-1.521-3.68-1.521c-1.52,0-2.839,0.641-3.839,1.521C682.549,320.231,682.029,321.672,682.029,323.312z"/>
	<path fill="#FFFFFF" d="M713.31,327.591c1.64,0,2.999,1.359,2.999,2.999s-1.359,2.96-2.999,2.96s-2.96-1.32-2.96-2.96
		S711.67,327.591,713.31,327.591z"/>
	<path fill="#FFFFFF" d="M729.709,327.591c1.64,0,2.999,1.359,2.999,2.999s-1.359,2.96-2.999,2.96s-2.96-1.32-2.96-2.96
		S728.069,327.591,729.709,327.591z"/>
	<path fill="#FFFFFF" d="M746.107,327.591c1.64,0,2.999,1.359,2.999,2.999s-1.359,2.96-2.999,2.96s-2.96-1.32-2.96-2.96
		S744.468,327.591,746.107,327.591z"/>
</g>
<path fill="#333333" d="M789.9,367.471c0.331,0,0.6,0.269,0.6,0.6s-0.269,0.601-0.6,0.601c-3.535,0-6.4,3.065-6.4,6.6v99.201
	c0,3.534-2.865,6.4-6.4,6.4H654.3c-3.534,0-6.399-2.866-6.399-6.4V373.87c0-3.534,2.865-6.399,6.399-6.399H789.9z"/>
<g>
	<path fill="#FFFFFF" d="M762.477,375.038v13.567c0,0.713-0.598,1.265-1.287,1.265c-0.713,0-1.265-0.552-1.265-1.265v-11.313
		l-0.92,0.528c-0.207,0.139-0.438,0.185-0.645,0.185c-0.437,0-0.851-0.23-1.08-0.645c-0.392-0.574-0.185-1.379,0.414-1.725
		l2.828-1.678c0.022-0.023,0.068-0.023,0.092-0.047c0.046,0,0.069-0.046,0.115-0.068c0.046,0,0.092-0.023,0.138-0.023
		c0.023-0.022,0.069-0.022,0.092-0.022c0.046-0.023,0.115-0.023,0.161-0.023c0.023,0,0.046,0,0.069,0h0.022c0.069,0,0.115,0,0.161,0
		c0.023,0.023,0.069,0.023,0.092,0.023c0.069,0,0.092,0.022,0.139,0.046c0.022,0,0.068,0,0.092,0.022
		c0.068,0.046,0.092,0.069,0.138,0.069c0.023,0.023,0.046,0.046,0.092,0.069c0.023,0.022,0.069,0.046,0.092,0.068
		c0.046,0.023,0.069,0.069,0.093,0.092c0.022,0.023,0.046,0.047,0.068,0.093c0.023,0.022,0.069,0.068,0.092,0.092l0.023,0.046
		c0,0.022,0.022,0.046,0.022,0.069c0.023,0.046,0.047,0.068,0.047,0.114c0.022,0.046,0.022,0.093,0.046,0.115
		c0,0.046,0.022,0.092,0.022,0.115c0,0.068,0,0.115,0.046,0.161C762.477,374.992,762.477,375.016,762.477,375.038z"/>
	<path fill="#FFFFFF" d="M775.793,388.605c0,0.713-0.552,1.265-1.265,1.265h-8.141c0,0,0,0-0.022,0h-0.023
		c-0.345,0-0.713-0.138-0.942-0.414c-0.483-0.528-0.438-1.311,0.068-1.793l6.807-6.163c0.667-0.598,0.966-1.38,0.966-2.208
		c0-0.735-0.253-1.425-0.759-2c-0.598-0.667-1.402-0.966-2.208-0.966c-0.712,0-1.425,0.253-2,0.759l-0.713,0.644
		c-0.529,0.483-1.311,0.438-1.794-0.092c-0.46-0.529-0.437-1.311,0.092-1.794l0.713-0.644c1.035-0.966,2.392-1.426,3.702-1.426
		c1.495,0,3.013,0.621,4.094,1.816c0.966,1.035,1.426,2.392,1.426,3.702c0,1.495-0.621,3.013-1.816,4.094l-4.347,3.932h4.898
		C775.241,387.317,775.793,387.893,775.793,388.605z"/>
</g>
<path fill="#FFFFFF" d="M739.139,431.995c0.418-1.594,0.727-3.229,0.934-4.897l-6.198-2.515c0.051-0.728,0.085-1.46,0.085-2.2
	c0-0.903-0.047-1.794-0.121-2.677l6.176-2.505c-0.23-1.678-0.57-3.319-1.014-4.921l-6.695,0.05c-0.517-1.526-1.146-2.999-1.88-4.41
	l4.743-4.676c-0.86-1.462-1.817-2.859-2.86-4.188l-6.17,2.609c-1.034-1.174-2.151-2.271-3.347-3.279l2.594-6.14
	c-1.359-1.03-2.792-1.965-4.285-2.807l-4.7,4.769c-1.366-0.67-2.787-1.245-4.256-1.715l0.048-6.668
	c-1.65-0.432-3.35-0.749-5.081-0.956l-2.519,6.205c-0.666-0.041-1.336-0.069-2.012-0.069c-0.836,0-1.661,0.041-2.481,0.105
	l-2.509-6.184c-1.743,0.231-3.447,0.577-5.105,1.037l0.049,6.694c-1.413,0.478-2.78,1.051-4.094,1.716l-4.688-4.757
	c-1.517,0.874-2.967,1.849-4.34,2.918l2.603,6.16c-1.111,0.966-2.153,2.008-3.12,3.12l-6.16-2.604
	c-1.068,1.374-2.043,2.824-2.916,4.341l4.755,4.688c-0.665,1.314-1.239,2.682-1.716,4.094l-6.695-0.049
	c-0.459,1.659-0.806,3.363-1.035,5.104l6.183,2.509c-0.064,0.821-0.107,1.648-0.107,2.485c0,0.675,0.029,1.343,0.071,2.009
	l-6.207,2.519c0.208,1.732,0.524,3.429,0.958,5.081l6.667-0.049c0.47,1.471,1.045,2.893,1.716,4.258l-4.769,4.701
	c0.842,1.492,1.777,2.926,2.807,4.284l6.139-2.595c1.009,1.197,2.105,2.314,3.279,3.348l-2.607,6.17
	c1.328,1.043,2.726,2,4.188,2.861l4.675-4.744c1.411,0.734,2.885,1.363,4.411,1.88l-0.049,6.695c1.601,0.442,3.241,0.783,4.92,1.015
	l2.506-6.176c0.882,0.073,1.772,0.121,2.674,0.121c0.742,0,1.476-0.035,2.203-0.086l2.516,6.198
	c1.668-0.207,3.305-0.517,4.896-0.934l-0.048-6.67c1.584-0.505,3.108-1.138,4.573-1.877l4.688,4.756
	c1.44-0.829,2.821-1.747,4.133-2.752l-2.599-6.148c1.259-1.074,2.431-2.246,3.505-3.506l6.149,2.599
	c1.005-1.312,1.923-2.693,2.752-4.134l-4.756-4.687c0.739-1.464,1.371-2.99,1.878-4.574L739.139,431.995z M708.912,437h-13.05
	l-6.524-11.5l6.524-11.5h13.05l6.525,11.5L708.912,437z"/>
</svg>
