<svg width="18" height="21" viewBox="0 0 18 21" fill="none" xmlns="http://www.w3.org/2000/svg">
<path d="M7.09791 9.09519C6.51494 9.09519 6.0547 9.6014 6.0547 10.219C6.0547 10.8366 6.52517 11.3428 7.09791 11.3428C7.68088 11.3428 8.14111 10.8366 8.14111 10.219C8.15134 9.6014 7.68088 9.09519 7.09791 9.09519ZM10.831 9.09519C10.248 9.09519 9.78775 9.6014 9.78775 10.219C9.78775 10.8366 10.2582 11.3428 10.831 11.3428C11.4139 11.3428 11.8742 10.8366 11.8742 10.219C11.8742 9.6014 11.4139 9.09519 10.831 9.09519Z" fill="#0D122A"/>
<path d="M15.8015 0.601074H2.09664C0.940933 0.601074 0 1.5325 0 2.68666V16.3746C0 17.5288 0.940933 18.4602 2.09664 18.4602H13.6947L13.1526 16.5872L14.4617 17.792L15.6993 18.9259L17.8982 20.8495V2.68666C17.8982 1.5325 16.9572 0.601074 15.8015 0.601074ZM11.8537 13.8233C11.8537 13.8233 11.4855 13.388 11.1787 13.0032C12.5185 12.6287 13.0299 11.7985 13.0299 11.7985C12.6105 12.0718 12.2117 12.2642 11.8537 12.3958C11.3423 12.6084 10.8514 12.7501 10.3707 12.8311C9.38887 13.0134 8.48885 12.9628 7.72179 12.821C7.13882 12.7096 6.63767 12.5477 6.21834 12.3857C5.98311 12.2946 5.72742 12.1832 5.47173 12.0414C5.44105 12.0212 5.41036 12.0111 5.37968 11.9908C5.35923 11.9807 5.349 11.9706 5.33877 11.9605C5.15468 11.8592 5.0524 11.7883 5.0524 11.7883C5.0524 11.7883 5.54332 12.5983 6.84222 12.983C6.53539 13.3677 6.15697 13.8233 6.15697 13.8233C3.89669 13.7524 3.03758 12.2844 3.03758 12.2844C3.03758 9.02443 4.51034 6.38201 4.51034 6.38201C5.98311 5.28859 7.38428 5.31896 7.38428 5.31896L7.48655 5.44045C5.6456 5.96691 4.79671 6.76673 4.79671 6.76673C4.79671 6.76673 5.02172 6.64524 5.40014 6.47312C6.49448 5.99729 7.36382 5.86567 7.72179 5.8353C7.78315 5.82517 7.83429 5.81505 7.89566 5.81505C8.51953 5.73406 9.22523 5.71381 9.96162 5.7948C10.9332 5.90617 11.9764 6.18965 13.0401 6.76673C13.0401 6.76673 12.2321 6.00741 10.4934 5.48095L10.6366 5.31896C10.6366 5.31896 12.0378 5.28859 13.5106 6.38201C13.5106 6.38201 14.9833 9.02443 14.9833 12.2844C14.9833 12.2844 14.114 13.7524 11.8537 13.8233Z" fill="#0D122A"/>
</svg>
