<svg width="21" height="21" viewBox="0 0 21 21" fill="none" xmlns="http://www.w3.org/2000/svg">
<path fill-rule="evenodd" clip-rule="evenodd" d="M10.8982 0.601074C5.37333 0.601074 0.898193 5.18879 0.898193 10.8526C0.898193 15.3837 3.76498 19.2225 7.73674 20.5819C8.23398 20.6763 8.41814 20.3616 8.41814 20.0847C8.41814 19.8393 8.412 19.1974 8.40587 18.3415C5.62502 18.9582 5.0357 16.9696 5.0357 16.9696C4.58143 15.7865 3.92459 15.4655 3.92459 15.4655C3.01606 14.8299 3.99212 14.8425 3.99212 14.8425C4.99273 14.918 5.5268 15.8998 5.5268 15.8998C6.41692 17.4668 7.86566 17.0136 8.43656 16.7493C8.52864 16.0885 8.78647 15.6354 9.06885 15.3774C6.85277 15.1257 4.52005 14.2447 4.52005 10.3177C4.52005 9.19754 4.90679 8.28503 5.55135 7.56761C5.447 7.30329 5.10323 6.26492 5.64344 4.85525C5.64344 4.85525 6.48444 4.57835 8.39359 5.90621C9.19162 5.67966 10.0449 5.56638 10.8982 5.56009C11.7453 5.56638 12.6048 5.67966 13.4028 5.90621C15.3119 4.57835 16.1529 4.85525 16.1529 4.85525C16.6993 6.26492 16.3555 7.30959 16.2512 7.56761C16.8896 8.28503 17.2763 9.19754 17.2763 10.3177C17.2763 14.2572 14.9375 15.1194 12.7091 15.3774C13.0652 15.6921 13.3905 16.3214 13.3905 17.278C13.3905 18.6499 13.3782 19.7512 13.3782 20.091C13.3782 20.3679 13.5563 20.6826 14.0658 20.5819C18.0375 19.2225 20.8982 15.3837 20.8982 10.8589C20.8982 5.18879 16.4231 0.601074 10.8982 0.601074Z" fill="#0D122A"/>
</svg>
