<svg width="25" height="20" viewBox="0 0 25 20" fill="none" xmlns="http://www.w3.org/2000/svg">
<path d="M7.862 19.6011C17.296 19.6011 22.456 12.2921 22.456 5.95377C22.456 5.74617 22.451 5.5395 22.441 5.33377C23.442 4.65674 24.313 3.81232 25 2.85007C24.081 3.2316 23.092 3.48876 22.054 3.60472C23.113 3.01091 23.926 2.0711 24.309 0.951749C23.318 1.50161 22.22 1.90091 21.052 2.11599C20.117 1.1846 18.784 0.601074 17.309 0.601074C14.476 0.601074 12.179 2.74907 12.179 5.39736C12.179 5.77422 12.224 6.13986 12.312 6.49053C8.05 6.29041 4.269 4.38181 1.74 1.47916C1.299 2.18799 1.045 3.01184 1.045 3.88993C1.045 5.55447 1.951 7.02262 3.327 7.88201C2.486 7.85769 1.695 7.64168 1.004 7.28165C1.003 7.30129 1.003 7.32186 1.003 7.34244C1.003 9.6653 2.771 11.6048 5.118 12.0443C4.687 12.1537 4.234 12.2126 3.766 12.2126C3.436 12.2126 3.114 12.1817 2.802 12.1256C3.455 14.0314 5.348 15.4182 7.594 15.4566C5.838 16.7433 3.627 17.5101 1.224 17.5101C0.81 17.5101 0.402 17.4877 0 17.4437C2.27 18.8071 4.965 19.6011 7.862 19.6011Z" fill="#0D122A"/>
</svg>
