<svg width="25" height="19" viewBox="0 0 25 19" fill="none" xmlns="http://www.w3.org/2000/svg">
<path d="M24.4773 3.4114C24.1903 2.30527 23.3423 1.4343 22.267 1.13817C20.3182 0.601074 12.5 0.601074 12.5 0.601074C12.5 0.601074 4.68182 0.601074 2.73295 1.13817C1.65767 1.4343 0.809659 2.30527 0.522727 3.4114C0 5.41753 0 9.60107 0 9.60107C0 9.60107 0 13.7846 0.522727 15.7908C0.809659 16.8969 1.65767 17.7678 2.73295 18.064C4.68182 18.6011 12.5 18.6011 12.5 18.6011C12.5 18.6011 20.3182 18.6011 22.267 18.064C23.3423 17.7678 24.1903 16.8969 24.4773 15.7908C25 13.7846 25 9.60107 25 9.60107C25 9.60107 25 5.41753 24.4773 3.4114ZM9.94318 13.3999V5.8022L16.4773 9.60107L9.94318 13.3999Z" fill="#0D122A"/>
</svg>
