<svg xmlns="http://www.w3.org/2000/svg" viewBox="0 0 150 100"><defs><style>.cls-1{fill:none;stroke:#010101;stroke-linecap:round;stroke-linejoin:round;stroke-width:0.25px;}</style></defs><title>additional_products</title><g id="Layer_16" data-name="Layer 16"><path class="cls-1" d="M106.69,49.87a1.4,1.4,0,0,0-1.1-.69l-3,0a1.56,1.56,0,0,0-1.29,1,4,4,0,0,0,0,3.31,1.58,1.58,0,0,0,1.28,1l1.4,0"/><path class="cls-1" d="M49.89,42.37a6.11,6.11,0,0,1,2.09.4,32.25,32.25,0,0,0,10.51,2.06l1.6,0q3.21,0,6.41-.15h0A2.66,2.66,0,0,0,72.63,43h0a.83.83,0,0,1,.76-.48h0l4.08,0h0a.81.81,0,0,1,.3.07h0a.83.83,0,0,1,.46.53.77.77,0,0,1,0,.57h0a4.28,4.28,0,0,1-3.49,2.65h-.06q-3.16.17-6.31.15h-.2l-3.69,0h-.42l-1.62,0h0A33.6,33.6,0,0,1,51.5,44.34h0a4.84,4.84,0,0,0-1.37-.3h-1.5c-.57,0-1.14,0-1.71,0H44.74a.83.83,0,0,1,0-1.65h5.2l4,0a6.1,6.1,0,0,1,2.13.4,32.29,32.29,0,0,0,10.1,2"/><path class="cls-1" d="M52.87,46.66h-4l-.9,0H44.48a11.09,11.09,0,0,0-3,.67,8,8,0,0,0,.08,8A6,6,0,0,0,45.48,57H77.37"/><polyline class="cls-1" points="45.8 46.61 45.78 46.66 45.78 46.66"/><path class="cls-1" d="M77.27,46.63H59.11l-.59,0-2.06.13-.74,0-1.12,0c-.29,0-.59,0-.88,0l-.44,0-.22,0s-.2,0-.2-.08v-.64h0a.27.27,0,0,1,.16-.24.74.74,0,0,1,.29-.06h1.92"/><line class="cls-1" x1="74.89" y1="50.57" x2="75.38" y2="50.57"/><path class="cls-1" d="M41.22,54.74c-2.9.06-5.79.29-8.69.37q-2.17.06-4.35,0L23.84,55c-3.34-.12-5.34-.25-8.67-.53-2.69-.23-6-.53-8.68-.52"/><path class="cls-1" d="M6.49,50.81c2.84,0,5.67.26,8.49.49,3.29.27,5.2.42,8.49.55q2.13.08,4.25.14c1.42,0,2.84,0,4.25,0,2.84-.08,5.67-.29,8.5-.37"/><line class="cls-1" x1="75.39" y1="53.05" x2="74.88" y2="53.05"/><path class="cls-1" d="M106.66,49.87h-2.57a1,1,0,0,0-.85.65,2.63,2.63,0,0,0,0,2.19,1,1,0,0,0,.85.66h2.56"/><path class="cls-1" d="M59.15,46.24l-.05,0"/><line class="cls-1" x1="46.91" y1="46.66" x2="46.92" y2="44.04"/><path class="cls-1" d="M46.2,44a5.57,5.57,0,0,1-.4,2.57"/><path class="cls-1" d="M52.88,46.26a1.87,1.87,0,0,1-.6-1.64"/><line class="cls-1" x1="48.63" y1="44.04" x2="48.62" y2="46.66"/><path class="cls-1" d="M56.67,45.82l-.46,0-.48,0c-.26,0-.51,0-.77,0l-.3,0-.29,0-.24.06L54,46"/><path class="cls-1" d="M59.15,46.24a4.76,4.76,0,0,1,.91.39"/><path class="cls-1" d="M78.62,55.31A2.13,2.13,0,0,0,80.25,54a5,5,0,0,0,.45-2.15,4.94,4.94,0,0,0-.48-2.15,2.06,2.06,0,0,0-1.67-1.29"/><line class="cls-1" x1="73.45" y1="47.34" x2="41.51" y2="47.35"/><path class="cls-1" d="M73.52,55.37a5.57,5.57,0,0,0,7.7.06,8,8,0,0,0,.12-8,10.91,10.91,0,0,0-7.89-.06A8,8,0,0,0,73.52,55.37Z"/><path class="cls-1" d="M75.9,48.34a2,2,0,0,0-1.69,1.29,5.21,5.21,0,0,0,0,4.34,2.07,2.07,0,0,0,1.68,1.31l3,0A2,2,0,0,0,80.55,54a5.21,5.21,0,0,0,0-4.34,2.07,2.07,0,0,0-1.68-1.31Z"/><path class="cls-1" d="M78.88,53.08a.49.49,0,0,0,.4-.31,1.11,1.11,0,0,0,.11-.52v-.83a1.12,1.12,0,0,0-.11-.52.49.49,0,0,0-.4-.31l-3.49,0a.49.49,0,0,0-.4.31,1.11,1.11,0,0,0-.11.52v.83a1.12,1.12,0,0,0,.11.52.49.49,0,0,0,.4.31Z"/><path class="cls-1" d="M79.25,51.43a.78.78,0,0,0-.08-.36.34.34,0,0,0-.28-.22l-3.49,0a.34.34,0,0,0-.28.21.78.78,0,0,0-.08.36v.83a.78.78,0,0,0,.08.36.34.34,0,0,0,.28.22l3.49,0a.34.34,0,0,0,.28-.21.78.78,0,0,0,.08-.36Z"/><path class="cls-1" d="M75.31,53.3l3.49,0a.63.63,0,0,0,.52-.4,1.44,1.44,0,0,0,.15-.67v-.83a1.45,1.45,0,0,0-.14-.67.64.64,0,0,0-.52-.41l-3.49,0a.63.63,0,0,0-.52.4,1.44,1.44,0,0,0-.15.67v.83a1.45,1.45,0,0,0,.14.67A.64.64,0,0,0,75.31,53.3Z"/><path class="cls-1" d="M5.51,52.32a2.15,2.15,0,0,0,.2,1,.94.94,0,0,0,.78.62"/><path class="cls-1" d="M6.49,50.81a.91.91,0,0,0-.75.56,2.08,2.08,0,0,0-.23.95"/><path class="cls-1" d="M52.87,46.5H52a1.31,1.31,0,0,1-1.15-.87,2.09,2.09,0,0,1,0-1.49"/><path class="cls-1" d="M107.24,50.11a.78.78,0,0,0-1.24.15A2.51,2.51,0,0,0,106,53a.78.78,0,0,0,1.24.16"/><path class="cls-1" d="M143.55,50.75c-2.06.59-4.08,1.13-6.06,1.57a62,62,0,0,1-15.35,1.72c-2.59-.05-5.15-.29-7.72-.51s-5.14-.41-7.73-.4a.9.9,0,0,1-.74-.57,2.27,2.27,0,0,1,0-1.9.89.89,0,0,1,.73-.56c2.54,0,5.06.17,7.58.38s5,.46,7.57.53a58.79,58.79,0,0,0,15.06-1.66c1.81-.41,3.68-.9,5.58-1.45"/><path class="cls-1" d="M88.12,52.79H84.21a.34.34,0,0,1-.28-.22.78.78,0,0,1-.08-.36v-.83a.78.78,0,0,1,.08-.36.34.34,0,0,1,.28-.22h3.91"/><path class="cls-1" d="M142,49.6a1.92,1.92,0,0,0,.54.85,1.12,1.12,0,0,0,.92.33.88.88,0,0,0,.66-.7,1.82,1.82,0,0,0-.06-1,1.92,1.92,0,0,0-.54-.85,1.12,1.12,0,0,0-.92-.33.88.88,0,0,0-.66.7A1.82,1.82,0,0,0,142,49.6Z"/><path class="cls-1" d="M102.57,49.15H89.65a1.56,1.56,0,0,0-1.28,1,4,4,0,0,0,0,3.3,1.57,1.57,0,0,0,1.28,1l3,0h13a1.64,1.64,0,0,0,1.36-1.14"/><path class="cls-1" d="M60.57,46.38q-.74-.06-1.47-.16"/><path class="cls-1" d="M53.79,45.76h0"/><path class="cls-1" d="M53.36,45.78h-.21l0,0v0h0l0,0,.09,0,.1,0,.27,0L54,46h0l0,0,.14.06.42.15a22.52,22.52,0,0,0,2.34.56"/></g></svg>