<svg xmlns="http://www.w3.org/2000/svg" viewBox="0 0 150 100"><defs><style>.cls-1{fill:none;stroke:#010101;stroke-linecap:round;stroke-linejoin:round;stroke-width:0.25px;}</style></defs><g id="Layer_16" data-name="Layer 16"><path class="cls-1" d="M106.687,49.868a1.4,1.4,0,0,0-1.1-.689l-2.979-.026a1.556,1.556,0,0,0-1.288.983,3.97,3.97,0,0,0-.008,3.307,1.575,1.575,0,0,0,1.278,1l1.4.027"/><path class="cls-1" d="M49.888,42.373a6.106,6.106,0,0,1,2.087.4,32.253,32.253,0,0,0,10.514,2.055q.8.02,1.6.027,3.207.028,6.406-.148h.026a2.659,2.659,0,0,0,2.115-1.687l0-.006a.827.827,0,0,1,.759-.482h.025l4.084.036h.025a.807.807,0,0,1,.3.067l.011,0a.827.827,0,0,1,.456.526.766.766,0,0,1-.043.572l0,.006a4.277,4.277,0,0,1-3.486,2.647l-.061,0q-3.155.174-6.312.153l-.2,0L64.49,46.51l-.421,0q-.808-.007-1.616-.027h-.018A33.6,33.6,0,0,1,51.5,44.339l-.008,0a4.839,4.839,0,0,0-1.37-.3h-1.5c-.569,0-1.138-.012-1.707,0H46.2l-1.464-.012a.827.827,0,0,1,0-1.652h5.2l4.026.035a6.1,6.1,0,0,1,2.125.4,32.291,32.291,0,0,0,10.1,2.042"/><path class="cls-1" d="M52.874,46.659H48.826c-.3.008-.6.016-.9.019h-.326l-.133,0-.128,0q-.2,0-.433-.014h-.9l-.948,0-.162,0-.166,0-.143.006-.11.007a11.091,11.091,0,0,0-2.965.672,8.04,8.04,0,0,0,.077,8.032,5.951,5.951,0,0,0,3.887,1.576l31.89-.006"/><polyline class="cls-1" points="45.801 46.613 45.781 46.659 45.781 46.659"/><path class="cls-1" d="M77.269,46.632l-17.638,0c-.174,0-.348,0-.521.009-.2.006-.391.015-.587.025-.686.036-1.371.086-2.057.127q-.37.022-.74.04c-.374.018-.748.03-1.123.033-.293,0-.585,0-.878-.008-.146-.006-.292-.015-.438-.031-.073-.008-.145-.018-.217-.031-.026-.005-.2-.03-.2-.079v-.049l0-.586v0a.27.27,0,0,1,.156-.241.741.741,0,0,1,.294-.063l.072-.005.029,0h1.821"/><line class="cls-1" x1="74.886" y1="50.571" x2="75.376" y2="50.571"/><path class="cls-1" d="M41.222,54.743c-2.9.063-5.788.286-8.685.371q-2.174.064-4.347.012T23.845,55c-3.34-.119-5.345-.252-8.674-.534-2.693-.228-5.966-.53-8.678-.516"/><path class="cls-1" d="M6.492,50.809c2.844.012,5.665.256,8.493.488,3.285.27,5.2.416,8.491.547q2.126.085,4.253.137c1.418.036,2.835.046,4.254.008,2.836-.076,5.665-.289,8.5-.37"/><line class="cls-1" x1="75.391" y1="53.051" x2="74.884" y2="53.051"/><path class="cls-1" d="M106.664,49.868h-2.573a1.036,1.036,0,0,0-.849.653,2.634,2.634,0,0,0,0,2.194,1.041,1.041,0,0,0,.853.662h2.56"/><path class="cls-1" d="M59.154,46.241l-.053-.018"/><line class="cls-1" x1="46.911" y1="46.66" x2="46.919" y2="44.038"/><path class="cls-1" d="M46.2,44.038a5.574,5.574,0,0,1-.4,2.575"/><path class="cls-1" d="M52.876,46.261a1.873,1.873,0,0,1-.6-1.642"/><line class="cls-1" x1="48.626" y1="44.038" x2="48.618" y2="46.665"/><path class="cls-1" d="M56.667,45.823q-.232-.019-.465-.033t-.484-.022c-.257-.008-.513-.009-.77,0-.1,0-.2.012-.3.022s-.195.023-.291.041a2.127,2.127,0,0,0-.239.057,1.222,1.222,0,0,0-.167.064"/><path class="cls-1" d="M59.154,46.241a4.76,4.76,0,0,1,.911.395"/><path class="cls-1" d="M78.624,55.308a2.126,2.126,0,0,0,1.63-1.347,5,5,0,0,0,.45-2.154,4.942,4.942,0,0,0-.478-2.148,2.057,2.057,0,0,0-1.667-1.292"/><line class="cls-1" x1="73.445" y1="47.343" x2="41.515" y2="47.349"/><path class="cls-1" d="M73.522,55.374a5.569,5.569,0,0,0,7.7.059,8.042,8.042,0,0,0,.115-8.034,10.912,10.912,0,0,0-7.894-.057A8.04,8.04,0,0,0,73.522,55.374Z"/><path class="cls-1" d="M75.9,48.341a2.042,2.042,0,0,0-1.69,1.291,5.211,5.211,0,0,0-.01,4.341,2.068,2.068,0,0,0,1.677,1.312l2.979.026a2.042,2.042,0,0,0,1.69-1.291,5.211,5.211,0,0,0,.01-4.341,2.068,2.068,0,0,0-1.677-1.312Z"/><path class="cls-1" d="M78.883,53.081a.486.486,0,0,0,.4-.306,1.109,1.109,0,0,0,.114-.516l0-.827a1.117,1.117,0,0,0-.111-.518.493.493,0,0,0-.4-.313L75.4,50.571a.486.486,0,0,0-.4.306,1.109,1.109,0,0,0-.114.516l0,.827a1.117,1.117,0,0,0,.111.518.493.493,0,0,0,.4.313Z"/><path class="cls-1" d="M79.248,51.431a.782.782,0,0,0-.078-.363.345.345,0,0,0-.28-.219L75.4,50.819a.34.34,0,0,0-.281.215.777.777,0,0,0-.08.361l0,.827a.782.782,0,0,0,.078.363.345.345,0,0,0,.28.219l3.492.031a.34.34,0,0,0,.281-.215.777.777,0,0,0,.08-.361Z"/><path class="cls-1" d="M75.307,53.3l3.492.031a.631.631,0,0,0,.523-.4,1.442,1.442,0,0,0,.149-.67l0-.827a1.452,1.452,0,0,0-.145-.673.641.641,0,0,0-.52-.407l-3.492-.031a.631.631,0,0,0-.523.4,1.442,1.442,0,0,0-.149.67l0,.827a1.452,1.452,0,0,0,.145.673A.64.64,0,0,0,75.307,53.3Z"/><path class="cls-1" d="M5.514,52.316a2.148,2.148,0,0,0,.2,1.018.942.942,0,0,0,.778.615"/><path class="cls-1" d="M6.492,50.809a.912.912,0,0,0-.749.559,2.076,2.076,0,0,0-.228.948"/><path class="cls-1" d="M52.875,46.5h-.842a1.307,1.307,0,0,1-1.148-.87,2.093,2.093,0,0,1-.042-1.492"/><path class="cls-1" d="M107.237,50.112a.781.781,0,0,0-1.24.146,2.505,2.505,0,0,0-.008,2.72.783.783,0,0,0,1.243.161"/><path class="cls-1" d="M143.55,50.754c-2.056.594-4.084,1.125-6.056,1.574a61.987,61.987,0,0,1-15.353,1.724c-2.585-.051-5.152-.285-7.724-.511s-5.144-.411-7.733-.4a.9.9,0,0,1-.738-.57,2.273,2.273,0,0,1,0-1.9.893.893,0,0,1,.734-.563c2.537.006,5.059.167,7.584.379s5.04.459,7.574.527a58.786,58.786,0,0,0,15.06-1.659c1.814-.414,3.681-.9,5.577-1.445"/><path class="cls-1" d="M88.125,52.791H84.207a.345.345,0,0,1-.28-.219.782.782,0,0,1-.078-.363l0-.827a.778.778,0,0,1,.08-.36.342.342,0,0,1,.28-.215h3.914"/><path class="cls-1" d="M141.976,49.6a1.924,1.924,0,0,0,.537.854,1.117,1.117,0,0,0,.924.334.879.879,0,0,0,.665-.7,1.823,1.823,0,0,0-.056-1,1.924,1.924,0,0,0-.537-.854,1.117,1.117,0,0,0-.925-.334.879.879,0,0,0-.665.7A1.823,1.823,0,0,0,141.976,49.6Z"/><path class="cls-1" d="M102.574,49.153l-12.926,0a1.564,1.564,0,0,0-1.281.99,3.971,3.971,0,0,0,0,3.3,1.574,1.574,0,0,0,1.277,1l2.979.026,12.954,0a1.639,1.639,0,0,0,1.36-1.138"/><path class="cls-1" d="M60.57,46.378q-.736-.061-1.469-.155"/><path class="cls-1" d="M53.793,45.763h-.005"/><path class="cls-1" d="M53.365,45.776l-.068.006c-.028,0-.055.006-.082.011a.6.6,0,0,0-.058.014.092.092,0,0,0-.034.015c-.005,0-.01.01-.009.016l.007.011a.056.056,0,0,0,.016.01.291.291,0,0,0,.045.017.828.828,0,0,0,.086.02l.1.015c.089.012.179.02.269.027.107.008.214.013.322.016l0,0v0l.005.007.01.008A.329.329,0,0,0,54,46a1.469,1.469,0,0,0,.136.061c.139.056.282.1.425.146a22.518,22.518,0,0,0,2.336.565"/></g></svg>