<svg xmlns="http://www.w3.org/2000/svg" viewBox="0 0 150 100"><defs><style>.cls-1{fill:none;stroke:#010101;stroke-linecap:round;stroke-linejoin:round;stroke-width:0.25px;}</style></defs><title>ar_vr</title><g id="Layer_16" data-name="Layer 16"><polyline class="cls-1" points="132.54 73.37 132.9 72.69 133.29 71.69 133.32 71.63 133.71 70.59 134.13 69.39 134.51 68.25 134.65 67.69 135.29 65.19 135.72 62.87 136.03 60.94 136.34 58.58 136.58 56.02 136.62 55.3 136.63 55.18 136.56 54.83 136.4 54.12 136.21 53.11 136.02 51.65 135.96 50.86 135.92 49.9 135.99 48.17 136.13 46.86 136.27 45.9 136.46 45 136.6 44.6 136.62 44.49 136.58 43.76 136.34 41.2 136.03 38.85 135.72 36.92 135.29 34.6 134.64 32.07 134.51 31.54 134.13 30.39 133.71 29.19 133.32 28.16 133.29 28.09 132.9 27.1 131.74 24.88 130.32 22.79 128.98 21.35 128.8 21.13 128.74 21.05 128.51 20.83 127.88 20.46 127.01 19.88 125.98 19.16 125.13 18.52 124.4 17.96 123.87 17.6 123.77 17.55 123.12 17.23 123.02 17.18 122.28 16.94 121.02 16.61 118.83 16.15 116.3 15.73 113.68 15.27 111.16 14.76 109.1 14.22 107.57 13.76 106.58 13.43 106.19 13.3 106.07 13.29 105.17 13.21 103.44 13.04 99.99 12.78 99.66 12.76 99.52 12.75 99.51 12.75 99.2 12.73 96.5 12.57 92.98 12.4 90.57 12.32 90.4 12.32 90.4 12.33 90.4 12.45 90.4 12.63 90.13 12.78 89.49 12.84 85.88 12.74 82.26 12.68 78.64 12.65 75 12.64 71.36 12.65 67.74 12.68 64.12 12.74 60.51 12.84 59.87 12.78 59.6 12.63 59.6 12.45 59.6 12.33 59.6 12.32 59.43 12.32 57.02 12.4 53.5 12.57 50.8 12.73 50.49 12.75 50.48 12.75 50.34 12.76 50.01 12.78 46.56 13.04 44.83 13.21 43.93 13.29 43.81 13.3 43.41 13.43 42.43 13.76 40.9 14.22 38.84 14.76 36.32 15.27 33.7 15.73 31.17 16.15 28.98 16.61 27.72 16.94 26.98 17.18 26.88 17.23 26.23 17.55 26.13 17.6 25.6 17.96 24.87 18.52 24.02 19.16 22.99 19.88 22.12 20.46 21.48 20.83 21.26 21.05 21.2 21.13 21.02 21.35 19.68 22.79 18.26 24.88 17.1 27.1 16.71 28.09 16.68 28.16 16.29 29.19 15.87 30.39 15.49 31.54 15.36 32.07 14.71 34.6 14.28 36.92 13.96 38.85 13.66 41.2 13.42 43.76 13.38 44.49 13.4 44.6 13.54 45 13.73 45.9 13.87 46.86 14.01 48.17 14.08 49.9 14.04 50.86 13.98 51.65 13.79 53.11 13.6 54.12 13.44 54.83 13.37 55.18 13.38 55.3 13.42 56.02 13.66 58.58 13.96 60.94 14.28 62.87 14.71 65.19 15.36 67.69 15.49 68.25 15.87 69.39 16.29 70.59 16.68 71.63 16.71 71.69 17.1 72.69 18.26 74.91 19.68 77 21.12 78.57 21.2 78.66 21.26 78.74 21.48 78.96 22.12 79.33 22.99 79.92 24.02 80.64 24.87 81.28 25.6 81.84 26.13 82.2 26.23 82.24 26.88 82.56 26.98 82.61 27.72 82.85 28.98 83.17 31.17 83.63 33.7 84.05 36.32 84.5 38.84 85.01 40.9 85.56 42.43 86.03 43.41 86.36 43.81 86.49 43.93 86.5 44.83 86.59 46.56 86.75 50.01 87.01 53.5 87.22 57.02 87.39 60.58 87.51 64.17 87.59 67.77 87.65 71.38 87.68 74.76 87.68 74.94 87.68"/><line class="cls-1" x1="29.07" y1="56.57" x2="29.05" y2="56.61"/><line class="cls-1" x1="120.93" y1="56.57" x2="120.95" y2="56.61"/><line class="cls-1" x1="63.57" y1="71.4" x2="86.43" y2="71.4"/><polyline class="cls-1" points="75 84.44 76.83 84.31 78.72 83.79 79.87 83.22 80.69 82.64 81.37 82.06 81.95 81.48 82.47 80.93 82.96 80.44 83.42 80 83.84 79.59 84.25 79.22 84.63 78.88 84.99 78.56 85.23 78.35 85.25 78.33 85.32 78.28 85.51 78.28 85.83 78.28 86.11 78.28 86.36 78.28 86.57 78.28 86.7 78.27"/><polyline class="cls-1" points="89.68 78.12 87.34 78.24 86.88 78.26 86.7 78.27 86.6 78.35 86.37 78.58 86.11 78.9 85.83 79.24 85.51 79.61 85.18 80.01 84.73 80.46 84.19 80.95 83.59 81.5 82.92 82.07 82.13 82.66 81.14 83.23 79.71 83.8 77.36 84.33 75.24 84.44 75.06 84.45 75 84.45"/><path class="cls-1" d="M114,55q.12-.47.21-.94l-.08,0-1.45-.29h0a1.34,1.34,0,0,1-.64-.31h0l-.07-.07-.05-.06-.09-.14a.47.47,0,0,1,0-.12.27.27,0,0,1,0-.11,16.69,16.69,0,0,0,.21-3.2h0a.26.26,0,0,1,0-.05l0-.05a.48.48,0,0,1,.06-.11l.1-.12.13-.11h0a1.34,1.34,0,0,1,.67-.22l1.5-.1h.08a19.21,19.21,0,0,0-1-5l-.08,0-1.42.48a1.34,1.34,0,0,1-.7.05h0l-.09,0-.08,0-.14-.07-.1-.07a.28.28,0,0,1-.06-.09h0a16.71,16.71,0,0,0-1.41-2.88h0a.69.69,0,0,1,.06-.53h0a1.34,1.34,0,0,1,.47-.52l1.25-.83.07,0A19.21,19.21,0,0,0,108,35.63l-.05.06-1,1.13a1.34,1.34,0,0,1-.58.4h0l-.09,0H106l-.12,0-.1,0a16.67,16.67,0,0,0-2.66-1.79h0c-.15-.09-.2-.35-.21-.49h0a1.34,1.34,0,0,1,.15-.69l.67-1.35,0-.07a19.37,19.37,0,0,0-2.65-1.08"/><path class="cls-1" d="M98.83,31.66l-.21,1v0a1.34,1.34,0,0,1-.3.63h0l-.07.07-.06.05-.14.09-.12,0h-.11A16.87,16.87,0,0,0,78.49,47.37,14.81,14.81,0,0,0,78.31,49c0,.16,0,.66,0,.82a5.09,5.09,0,0,0,.42.7l.46.68.45.69.92,1.37c1.22,1.82,2.43,3.65,3.65,5.48L86,61.48c.6.91,1.2,1.84,1.82,2.74l.46.68c.15.23.3.46.46.69a3.74,3.74,0,0,0,.25.33,1.85,1.85,0,0,0,.37.17l.78.26a15.35,15.35,0,0,0,3.22.66"/><path class="cls-1" d="M51.17,31.66l.21,1v0a1.34,1.34,0,0,0,.3.63h0l.07.07.06.05.14.09.12,0h.11A16.87,16.87,0,0,1,71.51,47.37,14.81,14.81,0,0,1,71.69,49c0,.16,0,.66,0,.82a5.09,5.09,0,0,1-.42.7l-.46.68-.45.69-.92,1.37c-1.22,1.82-2.43,3.65-3.65,5.48L64,61.48c-.6.91-1.2,1.84-1.82,2.74l-.46.68c-.15.23-.3.46-.46.69a3.74,3.74,0,0,1-.25.33,1.85,1.85,0,0,1-.37.17l-.78.26a15.35,15.35,0,0,1-3.22.66"/><path class="cls-1" d="M36,55q-.12-.47-.21-.94l.08,0,1.45-.29h0a1.34,1.34,0,0,0,.64-.31h0l.07-.07.05-.06.09-.14a.47.47,0,0,0,0-.12.27.27,0,0,0,0-.11,16.69,16.69,0,0,1-.21-3.2h0a.26.26,0,0,0,0-.05l0-.05a.48.48,0,0,0-.06-.11l-.1-.12-.13-.11h0a1.34,1.34,0,0,0-.67-.22l-1.5-.1h-.08a19.21,19.21,0,0,1,1-5l.08,0,1.42.48a1.34,1.34,0,0,0,.7.05h0l.09,0,.08,0,.14-.07.1-.07a.28.28,0,0,0,.06-.09h0a16.71,16.71,0,0,1,1.41-2.88h0a.69.69,0,0,0-.06-.53h0a1.34,1.34,0,0,0-.47-.52l-1.25-.83-.07,0A19.21,19.21,0,0,1,42,35.63l.05.06,1,1.13a1.34,1.34,0,0,0,.58.4h0l.09,0H44l.12,0,.1,0a16.67,16.67,0,0,1,2.66-1.79h0c.15-.09.2-.35.21-.49h0a1.34,1.34,0,0,0-.15-.69l-.67-1.35,0-.07a19.37,19.37,0,0,1,2.65-1.08"/><polyline class="cls-1" points="75.06 87.68 75.24 87.68 78.62 87.68 82.23 87.65 85.83 87.59 89.42 87.51 92.98 87.39 96.5 87.22 99.99 87.01 103.44 86.75 105.17 86.59 106.07 86.5 106.19 86.49 106.58 86.36 107.57 86.03 109.1 85.56 111.16 85.01 113.68 84.5 116.3 84.05 118.83 83.63 121.02 83.17 122.28 82.85 123.02 82.61 123.12 82.56 123.77 82.24 123.87 82.2 124.4 81.84 125.13 81.28 125.98 80.64 127.01 79.92 127.78 79.4"/><polyline class="cls-1" points="126.02 79.4 125.39 79.53 124.41 79.28 124.16 78.61 124.48 77.59 125.62 76.33 126.95 75.07 128.31 74.17 129.53 73.5 129.54 73.5 130.49 73.25 130.8 73.37"/><polyline class="cls-1" points="60.32 78.12 62.66 78.24 63.13 78.26 63.3 78.27 63.4 78.35 63.63 78.58 63.89 78.9 64.17 79.24 64.49 79.61 64.82 80.01 65.27 80.46 65.81 80.95 66.41 81.5 67.08 82.07 67.87 82.66 68.86 83.23 70.29 83.8 72.64 84.33 74.76 84.44 74.94 84.45 75 84.45"/><polyline class="cls-1" points="75 84.44 73.17 84.31 71.28 83.79 70.13 83.22 69.31 82.64 68.63 82.06 68.05 81.48 67.53 80.93 67.04 80.44 66.58 80 66.16 79.59 65.75 79.22 65.37 78.88 65.01 78.56 64.77 78.35 64.75 78.33 64.68 78.28 64.49 78.28 64.17 78.28 63.89 78.28 63.64 78.28 63.43 78.28 63.3 78.27"/><polygon class="cls-1" points="134.13 30.39 133.71 29.19 133.32 28.16 133.29 28.1 132.92 27.3 132.53 26.98 132.19 27.16 132 27.79 131.96 28.76 132.19 30.02 132.62 31.26 133.19 32.29 133.81 33.01 134.33 33.3 134.68 33.13 134.75 32.52 134.5 31.55 134.13 30.39"/><polygon class="cls-1" points="15.87 30.39 16.29 29.19 16.68 28.16 16.71 28.1 17.08 27.3 17.47 26.98 17.8 27.16 18 27.79 18.04 28.76 17.81 30.02 17.38 31.26 16.81 32.29 16.2 33.01 15.67 33.3 15.32 33.13 15.25 32.52 15.5 31.55 15.87 30.39"/><polygon class="cls-1" points="16.05 49.91 16.16 48.72 16.52 47.7 16.99 47.03 17.58 46.79 18.1 47.03 18.49 47.7 18.72 48.7 18.8 49.92 18.72 51.13 18.49 52.13 18.1 52.79 17.58 53.04 16.99 52.79 16.52 52.12 16.16 51.1 16.05 49.91"/><polygon class="cls-1" points="16.29 70.59 16.68 71.63 17.03 72.39 17.41 72.71 17.75 72.53 17.95 71.91 17.98 70.95 17.75 69.76 17.33 68.56 16.78 67.57 16.2 66.79 15.67 66.61 15.34 66.78 15.28 67.36 15.49 68.25 15.87 69.39 16.29 70.59"/><polygon class="cls-1" points="18.64 61.81 18.66 63.47 18.43 64.76 18.09 65.5 17.61 66.08 17.05 66.47 16.43 66.53 15.76 66.13 15.23 65.39 14.78 64.23 14.32 62.87 14.24 60.96 14.3 59.36 14.59 58.44 15.03 57.77 15.55 57.36 16.11 57.22 16.65 57.38 17.24 57.94 17.8 58.86 18.31 60.13 18.64 61.81"/><polygon class="cls-1" points="17.8 40.96 17.24 41.88 16.65 42.44 16.11 42.59 15.55 42.45 15.03 42.03 14.59 41.36 14.3 40.43 14.24 38.83 14.44 37.07 14.78 35.57 15.23 34.41 15.76 33.67 16.43 33.28 17.05 33.34 17.61 33.73 18.09 34.32 18.43 35.06 18.66 36.35 18.64 38.02 18.31 39.7 17.8 40.96"/><polyline class="cls-1" points="62.19 18.47 57.02 18.6 53.09 18.74 49.8 18.9 46.32 19.13 42.82 19.45 39.05 19.98 35.32 20.95 31.69 22.66"/><polygon class="cls-1" points="48.51 16.99 48.69 16.45 49.26 15.93 50.08 15.67 50.94 15.82 51.51 16.24 51.69 16.75 51.51 17.29 50.95 17.77 50.12 18 49.29 17.91 48.69 17.49 48.51 16.99"/><line class="cls-1" x1="59.09" y1="86.61" x2="59.09" y2="86.78"/><polygon class="cls-1" points="132.2 40.96 132.76 41.88 133.35 42.44 133.9 42.59 134.45 42.45 134.97 42.03 135.41 41.36 135.7 40.43 135.76 38.83 135.56 37.07 135.22 35.57 134.77 34.41 134.24 33.67 133.56 33.28 132.95 33.34 132.39 33.73 131.91 34.32 131.57 35.06 131.34 36.35 131.36 38.02 131.69 39.7 132.2 40.96"/><polygon class="cls-1" points="131.36 61.81 131.34 63.47 131.57 64.76 131.91 65.5 132.39 66.08 132.95 66.47 133.56 66.53 134.24 66.13 134.77 65.39 135.22 64.23 135.68 62.87 135.76 60.96 135.7 59.36 135.41 58.44 134.97 57.77 134.45 57.36 133.9 57.22 133.35 57.38 132.76 57.94 132.2 58.86 131.69 60.13 131.36 61.81"/><polygon class="cls-1" points="133.71 70.59 133.32 71.63 132.97 72.39 132.59 72.71 132.25 72.53 132.05 71.91 132.02 70.95 132.25 69.76 132.67 68.56 133.22 67.57 133.81 66.79 134.33 66.61 134.66 66.78 134.72 67.36 134.51 68.25 134.13 69.39 133.71 70.59"/><line class="cls-1" x1="59.09" y1="86.61" x2="59.28" y2="86.49"/><line class="cls-1" x1="59.09" y1="86.78" x2="59.28" y2="87"/><polyline class="cls-1" points="124.84 79.39 125.86 79.4 128.21 79.4 130.57 79.4 132.93 79.4 135.29 79.4 135.44 79.4 135.56 79.4 135.9 79.09 136 79.09 136.12 79.09 136.56 78.57 136.56 78.54 136.56 78.46 136.56 78.33 136.56 78.15 136.56 77.93 136.56 77.67 136.56 77.38 136.56 77.06 136.56 76.73 136.56 76.39 136.56 76.05 136.56 75.72 136.56 75.4 136.56 75.11 136.56 74.85 136.56 74.63 136.56 74.45 136.56 74.32 136.56 74.23 136.56 74.21 136.12 73.68 136 73.68 135.9 73.69 135.56 73.37 135.44 73.37 135.29 73.37 132.93 73.37 130.57 73.37 130 73.37"/><line class="cls-1" x1="59.28" y1="86.49" x2="59.82" y2="86.26"/><line class="cls-1" x1="59.28" y1="87" x2="59.82" y2="87.16"/><polyline class="cls-1" points="75 78.27 72.64 78.27 70.3 78.27 68.86 78.27 67.87 78.27 67.08 78.27 66.41 78.27 65.82 78.27 65.28 78.28 64.85 78.28 64.68 78.28"/><line class="cls-1" x1="41.25" y1="63.18" x2="41.25" y2="63.18"/><line class="cls-1" x1="41.25" y1="63.18" x2="41.25" y2="63.18"/><line class="cls-1" x1="41.25" y1="63.18" x2="41.25" y2="63.18"/><line class="cls-1" x1="31.05" y1="52.9" x2="31.37" y2="52.68"/><line class="cls-1" x1="46.57" y1="61.96" x2="46.79" y2="61.47"/><line class="cls-1" x1="51.34" y1="63.46" x2="51.12" y2="63.98"/><line class="cls-1" x1="56.69" y1="66.88" x2="56.53" y2="67.25"/><line class="cls-1" x1="51.35" y1="64.09" x2="50.94" y2="65.02"/><line class="cls-1" x1="45.92" y1="62.79" x2="46.32" y2="61.89"/><path class="cls-1" d="M33,53.26q2.75,1.62,5.54,3.18"/><path class="cls-1" d="M38.54,56.43l.22.49"/><path class="cls-1" d="M38.77,56.92q3.38,1.88,6.81,3.65"/><path class="cls-1" d="M44.36,64.94,44,64.22"/><path class="cls-1" d="M44,64.22q-3.57-1.85-7.09-3.8"/><path class="cls-1" d="M36.92,60.42l-.52.07"/><line class="cls-1" x1="29.37" y1="56" x2="29.07" y2="56.57"/><path class="cls-1" d="M31.05,52.9a.35.35,0,0,0-.11.12"/><line class="cls-1" x1="29.43" y1="56.3" x2="31.31" y2="52.75"/><path class="cls-1" d="M29.65,56.72c-.15-.07-.31-.25-.21-.43"/><line class="cls-1" x1="31.79" y1="52.67" x2="33" y2="53.26"/><path class="cls-1" d="M31.31,52.75c.09-.18.34-.16.48-.08"/><path class="cls-1" d="M46.38,60.45l.34.17"/><path class="cls-1" d="M45.58,60.58l.8-.13"/><line class="cls-1" x1="30.94" y1="53.03" x2="30.68" y2="53.52"/><line class="cls-1" x1="43.01" y1="66.46" x2="43.25" y2="66.93"/><path class="cls-1" d="M48.57,63.41a1.76,1.76,0,0,1-.74-.67,1,1,0,0,1-.06-1,1.06,1.06,0,0,1,.84-.49,1.84,1.84,0,0,1,1,.19"/><path class="cls-1" d="M49.59,61.48a1.76,1.76,0,0,1,.74.67,1,1,0,0,1,.06,1,1.06,1.06,0,0,1-.84.49,1.84,1.84,0,0,1-1-.19"/><path class="cls-1" d="M48.21,64.08A3,3,0,0,1,47,63a1.63,1.63,0,0,1-.1-1.63,1.79,1.79,0,0,1,1.42-.83,3.11,3.11,0,0,1,1.66.32"/><path class="cls-1" d="M49.94,60.81a3,3,0,0,1,1.26,1.12,1.63,1.63,0,0,1,.1,1.63,1.79,1.79,0,0,1-1.42.83,3.11,3.11,0,0,1-1.66-.32"/><line class="cls-1" x1="54.03" y1="65.9" x2="54.48" y2="65.03"/><line class="cls-1" x1="54.03" y1="65.9" x2="53.83" y2="66.34"/><line class="cls-1" x1="56.54" y1="66.03" x2="56.34" y2="66.48"/><line class="cls-1" x1="54.48" y1="65.03" x2="56.54" y2="66.03"/><line class="cls-1" x1="44.63" y1="64.57" x2="44.2" y2="65.54"/><line class="cls-1" x1="52.23" y1="63.24" x2="51.8" y2="64.21"/><line class="cls-1" x1="29.4" y1="55.93" x2="30.67" y2="53.52"/><line class="cls-1" x1="29.4" y1="55.93" x2="29.37" y2="56"/><path class="cls-1" d="M45.93,62.78l0,0"/><path class="cls-1" d="M47.48,65.71a3.3,3.3,0,0,1-1.35-1.18,1.86,1.86,0,0,1-.21-1.73"/><path class="cls-1" d="M50.94,65a1.9,1.9,0,0,1-1.56,1,3.42,3.42,0,0,1-1.9-.34"/><line class="cls-1" x1="52.23" y1="63.24" x2="50.11" y2="67.25"/><line class="cls-1" x1="50.11" y1="67.25" x2="44.63" y2="64.57"/><line class="cls-1" x1="44.63" y1="64.57" x2="46.75" y2="60.56"/><line class="cls-1" x1="51.47" y1="62.87" x2="52.23" y2="63.24"/><line class="cls-1" x1="46.75" y1="60.56" x2="47.31" y2="60.84"/><line class="cls-1" x1="55.88" y1="67.35" x2="53.83" y2="66.34"/><line class="cls-1" x1="56.34" y1="66.48" x2="55.88" y2="67.35"/><line class="cls-1" x1="51.8" y1="64.21" x2="49.68" y2="68.22"/><line class="cls-1" x1="49.68" y1="68.22" x2="44.2" y2="65.54"/><path class="cls-1" d="M53.89,67.3a.61.61,0,0,1,.28.25.36.36,0,0,1,0,.36c-.13.24-.47.21-.68.11"/><path class="cls-1" d="M53.51,68a.61.61,0,0,1-.28-.25.36.36,0,0,1,0-.36c.13-.24.47-.21.68-.11"/><line class="cls-1" x1="51.87" y1="64.04" x2="54.36" y2="65.26"/><path class="cls-1" d="M56.43,66.28c.19.12.38.38.25.62"/><path class="cls-1" d="M46.58,62l0,0"/><path class="cls-1" d="M48,64.6a3,3,0,0,1-1.22-1.07A1.68,1.68,0,0,1,46.57,62"/><path class="cls-1" d="M51.12,64a1.72,1.72,0,0,1-1.41.94A3.09,3.09,0,0,1,48,64.6"/><path class="cls-1" d="M51.15,63.9l0,.05"/><path class="cls-1" d="M47.89,64.77a3.1,3.1,0,0,1-1.57-1.63,1.61,1.61,0,0,1,.68-2"/><path class="cls-1" d="M51.45,63.1A1.63,1.63,0,0,1,50.28,65a3.23,3.23,0,0,1-2.39-.23"/><path class="cls-1" d="M56.52,67.27v0"/><line class="cls-1" x1="43.25" y1="66.93" x2="46.03" y2="68.29"/><line class="cls-1" x1="56.52" y1="67.27" x2="55.75" y2="68.74"/><line class="cls-1" x1="52.86" y1="68.1" x2="54.09" y2="68.7"/><line class="cls-1" x1="52.57" y1="68.65" x2="52.86" y2="68.1"/><path class="cls-1" d="M36.4,60.49,35.59,60"/><line class="cls-1" x1="36.64" y1="63.34" x2="43.01" y2="66.46"/><line class="cls-1" x1="28.8" y1="57.18" x2="29.05" y2="56.61"/><line class="cls-1" x1="30.57" y1="57.17" x2="29.65" y2="56.72"/><polygon class="cls-1" points="133.96 49.91 133.84 48.72 133.48 47.7 133.01 47.03 132.42 46.79 131.9 47.03 131.51 47.7 131.28 48.7 131.2 49.92 131.28 51.13 131.51 52.13 131.9 52.79 132.42 53.04 133.01 52.79 133.48 52.12 133.84 51.1 133.96 49.91"/><line class="cls-1" x1="59.82" y1="86.26" x2="60.55" y2="86.18"/><line class="cls-1" x1="59.82" y1="87.16" x2="60.55" y2="87.23"/><polyline class="cls-1" points="38.76 39.49 38.24 40.27 37.14 42.51 36.61 44.07"/><polyline class="cls-1" points="35.76 49.02 35.71 49.76 35.87 52.23 36.22 53.99"/><polyline class="cls-1" points="55.77 68.69 57.17 68.6 59.61 68.12 61.63 67.43 61.97 67.32 62.19 66.99 62.74 66.16 72.95 50.89 73.5 50.07 73.7 49.76 73.68 49.42 73.54 47.28 73.06 44.84 72.26 42.49 71.16 40.26 69.78 38.19 68.14 36.32 66.27 34.68 64.2 33.3 61.97 32.2 59.67 31.42"/><path class="cls-1" d="M56.72,66.8a.61.61,0,0,0,.12-.44l-.07-.58a.31.31,0,0,1,.26-.34c.57-.09,1.13-.2,1.7-.32l.34-.07.23,0,.14,0,.25-.06.29-.06.14,0,.07,0h0v0l0-.08.08-.15c.09-.18.17-.36.26-.54l.14-.26.2-.34.3-.48.55-.83,1-1.49.42-.62.95-1.42a.31.31,0,0,1,.48,0,.73.73,0,0,0,1.15-.08l.85-1.27a.73.73,0,0,0-.38-1.1.31.31,0,0,1-.16-.46l.48-.71.85-1.26.49-.73.41-.63.77-1.21.1-.15.16-.24.15-.23c.1-.14.19-.28.3-.41l.13-.16.3-.35.1-.13,0,0h0v0a.07.07,0,0,0,0,0s0-.05,0-.08,0-.09,0-.13l0-.19,0-.17,0-.1-.06-.24-.11-.46L70,47.31l-.12-.56-.1-.43c-.06-.25-.12-.49-.19-.74s-.12-.4-.19-.6a.31.31,0,0,1,.27-.4.75.75,0,0,0,.61-1.08l-.7-1.36A.75.75,0,0,0,68.32,42a.31.31,0,0,1-.48,0c-.3-.46-.61-.9-1-1.33a14.63,14.63,0,0,0-2.16-2.2,15.78,15.78,0,0,0-1.34-1A15.41,15.41,0,0,0,60.67,36a15.2,15.2,0,0,0-1.52-.52,15.57,15.57,0,0,0-1.58-.36.31.31,0,0,1-.22-.43.73.73,0,0,0-.61-1l-1.52-.1H55a.73.73,0,0,0-.57.95.31.31,0,0,1-.28.4,15.6,15.6,0,0,0-3.17.48,15.34,15.34,0,0,0-5.67,2.83,15.47,15.47,0,0,0-1.19,1,15.23,15.23,0,0,0-1.08,1.17.31.31,0,0,1-.49,0,.69.69,0,0,0-1.17,0l-.83,1.28A.69.69,0,0,0,41,42.71a.31.31,0,0,1,.21.44,15.45,15.45,0,0,0-1.57,9.31A15.15,15.15,0,0,0,40,54a15.68,15.68,0,0,0,.48,1.55.31.31,0,0,1-.26.41.68.68,0,0,0-.56,1l.3.64"/><path class="cls-1" d="M93.28,66.8a.61.61,0,0,1-.12-.44l.07-.58a.31.31,0,0,0-.26-.34c-.57-.09-1.13-.2-1.7-.32l-.34-.07-.23,0-.14,0-.25-.06L90,64.86l-.14,0-.07,0h0v0l0-.08-.08-.15c-.09-.18-.17-.36-.26-.54l-.14-.26-.2-.34-.3-.48-.55-.83-1-1.49L86.76,60l-.95-1.42a.31.31,0,0,0-.48,0,.73.73,0,0,1-1.15-.08l-.85-1.27a.73.73,0,0,1,.38-1.1.31.31,0,0,0,.16-.46l-.48-.71-.85-1.26-.49-.73-.41-.63-.77-1.21-.1-.15-.16-.24-.15-.23c-.1-.14-.19-.28-.3-.41L80,49.86l-.3-.35-.1-.13,0,0h0v0a.07.07,0,0,1,0,0s0-.05,0-.08,0-.09,0-.13l0-.19,0-.17,0-.1.06-.24.11-.46.14-.63.12-.56.1-.43c.06-.25.12-.49.19-.74s.12-.4.19-.6a.31.31,0,0,0-.27-.4.75.75,0,0,1-.61-1.08l.7-1.36A.75.75,0,0,1,81.68,42a.31.31,0,0,0,.48,0c.3-.46.61-.9,1-1.33a14.63,14.63,0,0,1,2.16-2.2,15.78,15.78,0,0,1,1.34-1A15.41,15.41,0,0,1,89.33,36a15.21,15.21,0,0,1,1.52-.52,15.57,15.57,0,0,1,1.58-.36.31.31,0,0,0,.22-.43.73.73,0,0,1,.61-1l1.52-.1H95a.73.73,0,0,1,.57.95.31.31,0,0,0,.28.4,15.6,15.6,0,0,1,3.17.48,15.34,15.34,0,0,1,5.67,2.83,15.47,15.47,0,0,1,1.19,1,15.23,15.23,0,0,1,1.08,1.17.31.31,0,0,0,.49,0,.69.69,0,0,1,1.17,0l.83,1.28a.69.69,0,0,1-.44,1.06.31.31,0,0,0-.21.44,15.45,15.45,0,0,1,1.57,9.31A15.15,15.15,0,0,1,110,54a15.68,15.68,0,0,1-.48,1.55.31.31,0,0,0,.26.41.68.68,0,0,1,.56,1l-.3.64"/><polyline class="cls-1" points="94.23 68.69 92.83 68.6 90.39 68.12 88.37 67.43 88.03 67.32 87.81 66.99 87.26 66.16 77.05 50.89 76.5 50.07 76.3 49.76 76.32 49.42 76.46 47.28 76.94 44.84 77.74 42.49 78.84 40.26 80.22 38.19 81.86 36.32 83.73 34.68 85.8 33.3 88.03 32.2 90.33 31.42"/><polyline class="cls-1" points="114.24 49.02 114.29 49.76 114.13 52.23 113.78 53.99"/><polyline class="cls-1" points="111.24 39.49 111.76 40.27 112.86 42.51 113.39 44.07"/><line class="cls-1" x1="60.55" y1="86.18" x2="61.28" y2="86.3"/><line class="cls-1" x1="60.55" y1="87.23" x2="61.28" y2="87.21"/><line class="cls-1" x1="119.43" y1="57.17" x2="120.35" y2="56.72"/><line class="cls-1" x1="121.2" y1="57.18" x2="120.95" y2="56.61"/><line class="cls-1" x1="113.36" y1="63.34" x2="106.99" y2="66.46"/><path class="cls-1" d="M113.6,60.49l.81-.46"/><line class="cls-1" x1="97.43" y1="68.65" x2="97.14" y2="68.1"/><line class="cls-1" x1="97.14" y1="68.1" x2="95.91" y2="68.7"/><line class="cls-1" x1="93.48" y1="67.27" x2="94.25" y2="68.74"/><line class="cls-1" x1="106.75" y1="66.93" x2="103.97" y2="68.29"/><path class="cls-1" d="M93.48,67.27v0"/><path class="cls-1" d="M98.55,63.1A1.63,1.63,0,0,0,99.72,65a3.23,3.23,0,0,0,2.39-.23"/><path class="cls-1" d="M102.11,64.77a3.1,3.1,0,0,0,1.57-1.63,1.61,1.61,0,0,0-.68-2"/><path class="cls-1" d="M98.85,63.9l0,.05"/><path class="cls-1" d="M98.88,64a1.72,1.72,0,0,0,1.41.94A3.09,3.09,0,0,0,102,64.6"/><path class="cls-1" d="M102,64.6a3,3,0,0,0,1.22-1.07,1.68,1.68,0,0,0,.19-1.57"/><path class="cls-1" d="M103.42,62l0,0"/><path class="cls-1" d="M93.57,66.28c-.19.12-.38.38-.25.62"/><line class="cls-1" x1="98.13" y1="64.04" x2="95.64" y2="65.26"/><path class="cls-1" d="M96.49,68a.61.61,0,0,0,.28-.25.36.36,0,0,0,0-.36c-.13-.24-.47-.21-.68-.11"/><path class="cls-1" d="M96.11,67.3a.61.61,0,0,0-.28.25.36.36,0,0,0,0,.36c.13.24.47.21.68.11"/><line class="cls-1" x1="100.32" y1="68.22" x2="105.8" y2="65.54"/><line class="cls-1" x1="98.2" y1="64.21" x2="100.32" y2="68.22"/><line class="cls-1" x1="93.66" y1="66.48" x2="94.12" y2="67.35"/><line class="cls-1" x1="94.12" y1="67.35" x2="96.17" y2="66.34"/><line class="cls-1" x1="103.25" y1="60.56" x2="102.69" y2="60.84"/><line class="cls-1" x1="98.53" y1="62.87" x2="97.77" y2="63.24"/><line class="cls-1" x1="105.37" y1="64.57" x2="103.25" y2="60.56"/><line class="cls-1" x1="99.89" y1="67.25" x2="105.37" y2="64.57"/><line class="cls-1" x1="97.77" y1="63.24" x2="99.89" y2="67.25"/><path class="cls-1" d="M99.06,65a1.9,1.9,0,0,0,1.56,1,3.42,3.42,0,0,0,1.9-.34"/><path class="cls-1" d="M102.52,65.71a3.3,3.3,0,0,0,1.35-1.18,1.86,1.86,0,0,0,.21-1.73"/><path class="cls-1" d="M104.07,62.78l0,0"/><line class="cls-1" x1="120.6" y1="55.93" x2="120.63" y2="56"/><line class="cls-1" x1="120.6" y1="55.93" x2="119.33" y2="53.52"/><line class="cls-1" x1="97.77" y1="63.24" x2="98.2" y2="64.21"/><line class="cls-1" x1="105.37" y1="64.57" x2="105.8" y2="65.54"/><line class="cls-1" x1="95.52" y1="65.03" x2="93.46" y2="66.03"/><line class="cls-1" x1="93.46" y1="66.03" x2="93.66" y2="66.48"/><line class="cls-1" x1="61.28" y1="87.21" x2="61.81" y2="87.09"/><line class="cls-1" x1="95.97" y1="65.9" x2="95.52" y2="65.03"/><path class="cls-1" d="M100.06,60.81a3,3,0,0,0-1.26,1.12,1.63,1.63,0,0,0-.1,1.63,1.79,1.79,0,0,0,1.42.83,3.11,3.11,0,0,0,1.66-.32"/><path class="cls-1" d="M101.79,64.08A3,3,0,0,0,103,63a1.63,1.63,0,0,0,.1-1.63,1.79,1.79,0,0,0-1.42-.83,3.11,3.11,0,0,0-1.66.32"/><path class="cls-1" d="M100.41,61.48a1.76,1.76,0,0,0-.74.67,1,1,0,0,0-.06,1,1.06,1.06,0,0,0,.84.49,1.84,1.84,0,0,0,1-.19"/><path class="cls-1" d="M101.43,63.41a1.76,1.76,0,0,0,.74-.67,1,1,0,0,0,.06-1,1.06,1.06,0,0,0-.84-.49,1.84,1.84,0,0,0-1,.19"/><line class="cls-1" x1="106.99" y1="66.46" x2="106.75" y2="66.93"/><line class="cls-1" x1="119.06" y1="53.03" x2="119.32" y2="53.52"/><path class="cls-1" d="M104.42,60.58l-.8-.13"/><path class="cls-1" d="M103.62,60.45l-.34.17"/><path class="cls-1" d="M118.69,52.75c-.09-.18-.34-.16-.48-.08"/><line class="cls-1" x1="118.21" y1="52.67" x2="117" y2="53.26"/><path class="cls-1" d="M120.35,56.72c.15-.07.31-.25.21-.43"/><line class="cls-1" x1="120.57" y1="56.3" x2="118.69" y2="52.75"/><path class="cls-1" d="M118.95,52.9a.35.35,0,0,1,.11.12"/><line class="cls-1" x1="120.63" y1="56" x2="120.93" y2="56.57"/><path class="cls-1" d="M113.08,60.42l.52.07"/><path class="cls-1" d="M106,64.22q3.57-1.85,7.09-3.8"/><path class="cls-1" d="M105.64,64.94l.35-.72"/><path class="cls-1" d="M111.23,56.92q-3.38,1.88-6.81,3.65"/><path class="cls-1" d="M111.46,56.43l-.22.49"/><path class="cls-1" d="M117,53.26q-2.75,1.62-5.54,3.18"/><line class="cls-1" x1="104.08" y1="62.79" x2="103.68" y2="61.89"/><line class="cls-1" x1="98.65" y1="64.09" x2="99.06" y2="65.02"/><line class="cls-1" x1="93.31" y1="66.88" x2="93.47" y2="67.25"/><line class="cls-1" x1="98.66" y1="63.46" x2="98.88" y2="63.98"/><line class="cls-1" x1="103.43" y1="61.96" x2="103.21" y2="61.47"/><line class="cls-1" x1="118.95" y1="52.9" x2="118.63" y2="52.68"/><line class="cls-1" x1="108.75" y1="63.18" x2="108.75" y2="63.18"/><line class="cls-1" x1="108.75" y1="63.18" x2="108.75" y2="63.18"/><line class="cls-1" x1="108.75" y1="63.18" x2="108.75" y2="63.18"/><polyline class="cls-1" points="75 78.27 77.36 78.27 79.7 78.27 81.14 78.27 82.13 78.27 82.92 78.27 83.59 78.27 84.18 78.27 84.72 78.28 85.15 78.28 85.32 78.28"/><line class="cls-1" x1="61.28" y1="86.3" x2="61.81" y2="86.57"/><line class="cls-1" x1="61.81" y1="86.57" x2="62.01" y2="86.88"/><polygon class="cls-1" points="101.49 16.99 101.31 16.45 100.74 15.93 99.92 15.67 99.06 15.82 98.49 16.24 98.31 16.75 98.49 17.29 99.05 17.77 99.88 18 100.71 17.91 101.31 17.49 101.49 16.99"/><polyline class="cls-1" points="87.81 18.47 92.98 18.6 96.91 18.74 100.2 18.9 103.68 19.13 107.18 19.45 110.95 19.98 114.68 20.95 118.31 22.66"/><line class="cls-1" x1="90.91" y1="86.61" x2="90.91" y2="86.78"/><line class="cls-1" x1="90.91" y1="86.61" x2="90.72" y2="86.49"/><line class="cls-1" x1="90.91" y1="86.78" x2="90.72" y2="87"/><line class="cls-1" x1="90.72" y1="86.49" x2="90.18" y2="86.26"/><line class="cls-1" x1="90.72" y1="87" x2="90.18" y2="87.16"/><line class="cls-1" x1="90.18" y1="86.26" x2="89.45" y2="86.18"/><line class="cls-1" x1="90.18" y1="87.16" x2="89.45" y2="87.23"/><line class="cls-1" x1="89.45" y1="86.18" x2="88.72" y2="86.3"/><line class="cls-1" x1="89.45" y1="87.23" x2="88.72" y2="87.21"/><line class="cls-1" x1="88.72" y1="87.21" x2="88.19" y2="87.09"/><line class="cls-1" x1="88.72" y1="86.3" x2="88.19" y2="86.57"/><line class="cls-1" x1="88.19" y1="86.57" x2="87.99" y2="86.88"/><line class="cls-1" x1="88.19" y1="87.09" x2="87.99" y2="86.88"/><line class="cls-1" x1="61.81" y1="87.09" x2="62.01" y2="86.88"/><path class="cls-1" d="M44.45,65l-.09,0"/><path class="cls-1" d="M105.55,65l.09,0"/><polyline class="cls-1" points="101.16 31.73 102.58 32.21 104.81 33.31 106.88 34.69 107.95 35.63"/><polyline class="cls-1" points="48.84 31.73 47.42 32.21 45.19 33.31 43.12 34.69 42.05 35.63"/><polyline class="cls-1" points="62.28 68.77 62.62 67.55 63.45 66.59 65.78 63.93 67.31 62.17 69.07 60.14 71.1 57.82 73.21 55.39 75 54.48 76.79 55.39 78.9 57.82 80.93 60.14 82.69 62.17 84.22 63.93 86.55 66.59 87.38 67.55 87.72 68.77"/><polyline class="cls-1" points="75.98 31.25 76.02 31.26 76.76 31.97 77.05 32.98 77.05 35.77 76.76 36.77 76.02 37.49 75 37.76 75 37.76 75 37.76 73.98 37.49 73.24 36.77 72.95 35.77 72.95 32.98 73.24 31.97 73.98 31.26 74.02 31.25"/><polygon class="cls-1" points="75 18.34 78.95 18.35 81.77 18.38 83.28 18.39 86.8 18.45 88.03 18.47 92.88 18.59 96.94 18.74 100.23 18.9 103.7 19.13 107.21 19.45 110.97 19.98 114.7 20.95 118.34 22.66 121.34 25.26 123.36 28.67 124.28 31.54 124.88 33.98 125.39 36.77 125.87 41.61 126.1 45.88 126.18 50 126.1 53.49 125.96 56.45 125.76 59.43 125.39 63.22 124.56 67.76 123.26 71.64 121.34 74.72 121.04 75.13 118.33 77.37 114.6 78.86 110.55 79.7 106.36 80.18 102.3 80.52 98.75 80.77 96.12 80.92 94.13 80.7 92.36 79.87 92.22 79.51 91.87 79.52 91.39 79.54 90.66 79.58 90.18 79.08 89.09 76.98 87.35 73.37 86.43 71.4 86.02 69.92 86.48 68.91 87.62 68.77 90.02 68.79 92.26 68.77 94.5 68.73 96.65 68.68 99.14 68.58 101.9 68.43 104.67 68.25 107.37 67.92 109.81 67.2 111.66 66.07 113.05 64.13 113.83 62.17 114.4 60.1 114.8 58.24 114.95 57.17 115.97 57.17 117.77 57.17 118.36 57.17 119.09 57.17 119.65 57.17 120.31 57.17 120.96 57.18 121.62 57.18 122.18 57.18 122.91 57.18 122.98 55.7 123.06 53.53 123.13 50 123.06 45.85 122.84 41.53 122.39 36.65 122 34.37 116.84 34.37 114.81 33.12 113.39 32.63 111.7 32.31 108.73 32.06 105.78 31.89 102.8 31.77 99.69 31.68 96.5 31.61 92.72 31.48 87.91 31.37 83.23 31.3 78.94 31.26 75 31.24 71.06 31.26 66.77 31.3 62.09 31.37 57.28 31.48 53.5 31.61 50.31 31.68 47.2 31.77 44.22 31.89 41.27 32.06 38.3 32.31 36.61 32.63 35.19 33.12 33.16 34.37 28 34.37 27.61 36.65 27.16 41.53 26.94 45.85 26.87 50 26.94 53.53 27.02 55.7 27.09 57.18 27.82 57.18 28.38 57.18 29.04 57.18 29.69 57.17 30.35 57.17 30.91 57.17 31.64 57.17 32.23 57.17 34.03 57.17 35.05 57.17 35.2 58.24 35.6 60.1 36.17 62.17 36.95 64.13 38.34 66.07 40.19 67.2 42.63 67.92 45.33 68.25 48.1 68.43 50.86 68.58 53.35 68.68 55.51 68.73 57.74 68.77 59.98 68.79 62.38 68.77 63.52 68.91 63.98 69.92 63.57 71.4 62.65 73.37 60.91 76.98 59.82 79.08 59.34 79.58 58.61 79.54 58.13 79.52 57.78 79.51 57.64 79.87 55.87 80.7 53.88 80.92 51.25 80.77 47.7 80.52 43.64 80.18 39.45 79.7 35.4 78.86 31.67 77.37 28.96 75.13 28.66 74.72 26.74 71.64 25.44 67.76 24.61 63.22 24.24 59.43 24.04 56.45 23.9 53.49 23.82 50 23.9 45.88 24.13 41.61 24.61 36.77 25.12 33.98 25.72 31.54 26.64 28.67 28.66 25.26 31.66 22.66 35.3 20.95 39.02 19.98 42.79 19.45 46.3 19.13 49.77 18.9 53.06 18.74 57.12 18.59 61.97 18.47 63.2 18.45 66.72 18.39 68.23 18.38 71.05 18.35 75 18.34"/><line class="cls-1" x1="95.97" y1="65.9" x2="96.17" y2="66.34"/></g></svg>