<svg xmlns="http://www.w3.org/2000/svg" viewBox="0 0 150 100"><defs><style>.cls-1{fill:none;stroke:#010101;stroke-linecap:round;stroke-linejoin:round;stroke-width:0.25px;}</style></defs><title>pupil_headset</title><g id="Layer_16" data-name="Layer 16"><path class="cls-1" d="M17.11,62l0,0a3.77,3.77,0,0,1,.51-.55,1.57,1.57,0,0,1,.29-.19,3.72,3.72,0,0,1,4.76.3l0,0"/><path class="cls-1" d="M15.68,61a1.49,1.49,0,0,1-1-1.12L14,56.54a1.52,1.52,0,0,1,.7-1.55h0a.35.35,0,0,1,.54.19l.38,1.92.23,0a.42.42,0,0,0,.34-.42V56.6l.09,0h0"/><path class="cls-1" d="M20.61,57.13l0,0"/><path class="cls-1" d="M26.47,59.79h0l0,0a.18.18,0,0,1-.1,0H26A2.65,2.65,0,0,1,25,59.7l-.11,0-.4-.17a1.22,1.22,0,0,0-.41-.14c-.37,0-.72.16-1.09.16h-.19l-.05,0-.16-.07a.75.75,0,0,1-.18-.12,14.38,14.38,0,0,1-1.8-2.14"/><path class="cls-1" d="M21.94,45l.06.25a.78.78,0,0,1,0,.2.75.75,0,0,1,0,.23l-.39,2v.06L21.17,50c.6.48,1.21.93,1.85,1.36a1.9,1.9,0,0,1,.91-.13,1.83,1.83,0,0,1,.46.08h0a2,2,0,0,1,.4.16,2.42,2.42,0,0,1,.45.28,3.73,3.73,0,0,1,.71.71l0,0a6.06,6.06,0,0,1,.43.64v0l.13.23.06.13v0l0,.1,0,.08h0l0,.06.08.12.08.14,0,.07a.83.83,0,0,1,.1.36h0a.69.69,0,0,1,0,.13v0h0v.73a5.86,5.86,0,0,1,0,1.92l0,.27c0,.13-.06.26-.1.39h0v0q0,.23,0,.46a4.6,4.6,0,0,1-.05.49"/><polyline class="cls-1" points="17.64 42.28 17.64 42.49 17.64 52.8"/><path class="cls-1" d="M24.24,31.22c-2.42.93-5.68,2.39-7.62,4.27a.46.46,0,0,0-.19.17,4.82,4.82,0,0,0-.63,1.42c-.32.66-.68,1.31-1.06,1.94a4.61,4.61,0,0,0-.54,1.1l-.08.27"/><path class="cls-1" d="M61.75,27.25a5.64,5.64,0,0,1,.26,7,5.36,5.36,0,0,1-8.46,0,5.64,5.64,0,0,1,.25-7L54.1,27a5,5,0,0,1,1.4-1,5.33,5.33,0,0,1,4.56,0A5.24,5.24,0,0,1,61.75,27.25Z"/><path class="cls-1" d="M60.06,26H63l.73-.08H66l.85-.08h2.59l.12,0a.75.75,0,0,1,.81.5,13.86,13.86,0,0,1,0,9.15.77.77,0,0,1-.81.51H66.84L66,35.89H63.71L63,35.82H60.06a5.35,5.35,0,0,1-4.56,0H52.57l-.16,0h-.1l-.53,0q-1.19-.16-2.39-.25h-.87q-1.34-.07-2.69,0l-.81.09q-1.22,0-2.44.17h-.64l-1.19.16h-4l-.65-.07H25.61a.71.71,0,0,1-.78-.61,36.65,36.65,0,0,1,0-8.77.69.69,0,0,1,.78-.6H36.06l.65-.08h4l1.19.16h.64q1.22.12,2.44.17l.81.11q1.35,0,2.69,0l.87,0q1.2-.09,2.39-.25l.53,0h.1l.16,0H55.5"/><path class="cls-1" d="M14.08,63.6h0v-.15"/><path class="cls-1" d="M16,68.83v0"/><line class="cls-1" x1="24.51" y1="64.29" x2="25.46" y2="63.66"/><path class="cls-1" d="M17.48,55.07c0-.37.17-1.9.17-2.27A104.69,104.69,0,0,1,20.44,42a13.14,13.14,0,0,1,1.66-3.56"/><path class="cls-1" d="M40.63,25.48h-15a1.09,1.09,0,0,0-1.08.94v0a33.11,33.11,0,0,0,0,8.85,1.09,1.09,0,0,0,1.08.94H40.79a39.21,39.21,0,0,1,11.46,0H55.4a5.87,5.87,0,0,0,4.76,0h9.4a1.09,1.09,0,0,0,1-.72,13.62,13.62,0,0,0,.78-5.74v-.12a13.45,13.45,0,0,0-.77-3.46,1.09,1.09,0,0,0-1-.72h-9.4a5.87,5.87,0,0,0-4.76,0H52.25a39.21,39.21,0,0,1-11.46,0Z"/><line class="cls-1" x1="14.17" y1="63.36" x2="15.91" y2="62.21"/><line class="cls-1" x1="14.1" y1="63.41" x2="14.17" y2="63.36"/><path class="cls-1" d="M14.1,63.41h0"/><line class="cls-1" x1="9.96" y1="61.3" x2="15.91" y2="62.21"/><line class="cls-1" x1="15.46" y1="62.51" x2="14.82" y2="62.93"/><line class="cls-1" x1="6.23" y1="61.5" x2="14.87" y2="62.82"/><line class="cls-1" x1="14.08" y1="63.6" x2="5.67" y2="62.32"/><line class="cls-1" x1="14.91" y1="62.87" x2="14.87" y2="62.82"/><line class="cls-1" x1="9.53" y1="61.58" x2="6.75" y2="61.16"/><line class="cls-1" x1="9.96" y1="61.3" x2="9.53" y2="61.58"/><line class="cls-1" x1="6.23" y1="61.5" x2="6.23" y2="61.5"/><path class="cls-1" d="M6.23,61.5h0"/><path class="cls-1" d="M6.75,61.16a.44.44,0,0,0-.33.06"/><line class="cls-1" x1="6.76" y1="61.15" x2="6.75" y2="61.16"/><path class="cls-1" d="M6.76,61.15h0"/><path class="cls-1" d="M6.23,61.5c-.43-.07-.6.31-.53.69"/><line class="cls-1" x1="14.94" y1="67.65" x2="14.94" y2="67.65"/><line class="cls-1" x1="5.72" y1="62.33" x2="5.7" y2="62.19"/><path class="cls-1" d="M5.2,62.55l.3-.2a.22.22,0,0,1,.17,0"/><path class="cls-1" d="M26.4,59.83h0"/><path class="cls-1" d="M26.69,59.53h0"/><path class="cls-1" d="M26.51,59.68h0"/><path class="cls-1" d="M26.49,59.75h0"/><path class="cls-1" d="M25,38.18l-.24.22"/><path class="cls-1" d="M61.87,36.23c.7,1,1.42,2,2.15,3s1.45,2,2.17,3c1.3,1.86,2.58,3.72,3.73,5.68a17.24,17.24,0,0,1,1.94,4.33h0A4.14,4.14,0,0,1,72,53.53v0s0,0,0,0a5.35,5.35,0,0,1-.11.55c-.13.51-.26,1-.37,1.52s-.19,1.06-.28,1.6-.18,1.07-.28,1.6-.24,1.06-.37,1.58-.27,1-.37,1.58a1.57,1.57,0,0,0,0,.43v.17h0v.08h0l0,0v.05h0v0l0,0h0v0h0l0,0h0l0,0,0,0h0l0,0,0,0,0,0,0,0,0,0h.05l.56.21h0l.45.17.07,0H72l.61-.06H73l0,0,0,0,0,0,0,0,0,0,0,0,0,0,0,0a2.73,2.73,0,0,0,.5-.72,30.52,30.52,0,0,0,1.52-3.63c.24-.61.46-1.23.66-1.86a6.08,6.08,0,0,0,.23-1c0-.33.07-.65.1-1,0-.09,0-.18,0-.27v-.2a.18.18,0,0,1,0-.07c0-.16,0-.32-.07-.48a16.44,16.44,0,0,0-1.45-4.33,39.51,39.51,0,0,0-2.2-4c-.67-1.09-1.77-2.79-2.49-3.85-.86-1.26-1.74-2.51-2.58-3.79-.21-.33-.64-1-1.12-1.88"/><path class="cls-1" d="M71,34.14q10.18-.16,20.34.09a.89.89,0,0,1,.62.28A.93.93,0,0,1,92,35.56c-.63,1.17-1.23,2.14-1.49,2.54-.84,1.28-1.72,2.52-2.58,3.79-.72,1.06-1.82,2.76-2.49,3.85a39.52,39.52,0,0,0-2.2,4,16.44,16.44,0,0,0-1.45,4.33c0,.16,0,.32-.07.48a.18.18,0,0,1,0,.07v.2c0,.09,0,.18,0,.27,0,.33.05.65.1,1a6.08,6.08,0,0,0,.23,1c.2.63.42,1.24.66,1.86a30.52,30.52,0,0,0,1.52,3.63,2.73,2.73,0,0,0,.5.72l0,0,0,0,0,0,0,0,0,0,0,0,0,0,0,0h.44l.61.06h.21l.07,0,.45-.17h0l.56-.21h.05l0,0,0,0,0,0,0,0,0,0h0l0,0,0,0h0l0,0h0v0h0l0,0v0h0v-.05l0,0h0v-.08h0v-.17a1.57,1.57,0,0,0,0-.43c-.11-.53-.24-1.06-.37-1.58s-.27-1-.37-1.58-.2-1.06-.28-1.6-.16-1.07-.28-1.6-.24-1-.37-1.52a5.35,5.35,0,0,1-.11-.55s0,0,0,0v0a4.14,4.14,0,0,1,.14-1.27h0a17.24,17.24,0,0,1,1.94-4.33c1.15-2,2.43-3.83,3.73-5.68.89-1.25,1.8-2.48,2.7-3.72s1.79-2.49,2.61-3.78c.15-.31.34-.31.74-.3,7.77.3,15.51.79,23.25,1.51,3.47.33,9.64,1.1,12.93,2.68a18,18,0,0,1,4.28,2.72,11.42,11.42,0,0,1,2.71,3.94A21,21,0,0,1,136.89,50c-.6.48-1.21.93-1.85,1.36a1.9,1.9,0,0,0-.91-.13,1.83,1.83,0,0,0-.46.08h0a2,2,0,0,0-.4.16,2.42,2.42,0,0,0-.45.28,3.73,3.73,0,0,0-.71.71l0,0a6.07,6.07,0,0,0-.43.64v0l-.13.23-.06.13v0l0,.1,0,.08h0l0,.06-.08.12-.08.14,0,.07a.83.83,0,0,0-.1.36h0a.69.69,0,0,0,0,.13v0h0v.73a5.86,5.86,0,0,0,0,1.92l0,.27c0,.13.06.26.1.39h0v0q0,.23,0,.46c0,.16,0,.33.05.49a2.43,2.43,0,0,0,.07.36v0a.93.93,0,0,0,.1.23l0,0,0,.06,0,0,.05.05,0,0h0l0,0a.18.18,0,0,0,.1,0h.35a2.65,2.65,0,0,0,.93-.13l.11,0,.4-.17a1.22,1.22,0,0,1,.41-.14c.37,0,.72.16,1.09.16h.19l.05,0,.16-.07a.75.75,0,0,0,.18-.12,14.38,14.38,0,0,0,1.8-2.14A25.26,25.26,0,0,0,140.18,55c1.85-1.65,3.71-3.9,3.95-6.6a7,7,0,0,0,0-6.63h0a5,5,0,0,0-.81-2.73c-.38-.63-.74-1.27-1.06-1.94a4.82,4.82,0,0,0-.63-1.42.46.46,0,0,0-.19-.17l-.16-.16h0a16.69,16.69,0,0,0-3.5-2.36h0A41.09,41.09,0,0,0,132,30.57l-.14,0A461.31,461.31,0,0,0,71,27.66"/><path class="cls-1" d="M131.66,59.83h0"/><path class="cls-1" d="M131.6,59.32h0"/><path class="cls-1" d="M131.37,59.53h0"/><path class="cls-1" d="M131.55,59.68h0"/><path class="cls-1" d="M131.57,59.75h0"/><path class="cls-1" d="M131.16,58.06h0"/><circle class="cls-1" cx="57.78" cy="30.92" r="2.1"/><path class="cls-1" d="M48.51,35.57l0-.08q-.14-.29-.26-.59a11.4,11.4,0,0,1,0-8q.13-.33.29-.64"/><line class="cls-1" x1="75.97" y1="56.52" x2="75.96" y2="56.52"/><path class="cls-1" d="M25,38.18a45,45,0,0,1,9.22-1.94"/><path class="cls-1" d="M36.7,25.83A21.12,21.12,0,0,0,36.7,36"/><path class="cls-1" d="M25.08,73.4l.07,0"/><path class="cls-1" d="M37.73,75h0"/><path class="cls-1" d="M26.9,58.06h0"/><path class="cls-1" d="M14.09,40.5l0-.17,0,.08c-.31,1-.62,2-.84,3.1v0a6.69,6.69,0,0,0-.18,1.52,12,12,0,0,0,.26,2.18,16,16,0,0,0,1.29,3.67"/><line class="cls-1" x1="23.77" y1="64.82" x2="23.77" y2="64.82"/><line class="cls-1" x1="25.05" y1="73.09" x2="25.05" y2="73.09"/><line class="cls-1" x1="25.08" y1="73.4" x2="25.08" y2="73.4"/><path class="cls-1" d="M13.8,67.44a1.66,1.66,0,0,0,.67,1.45,1,1,0,0,0,.78.23.66.66,0,0,0,.51-.59,1.66,1.66,0,0,0-.67-1.45,1,1,0,0,0-.78-.23A.66.66,0,0,0,13.8,67.44Z"/><path class="cls-1" d="M13.93,41.75h0"/><path class="cls-1" d="M66.84,36q.14-.25.26-.51"/><path class="cls-1" d="M36.06,35.89a21.82,21.82,0,0,1,0-10"/><path class="cls-1" d="M66,35.89a10.24,10.24,0,0,0,0-10"/><path class="cls-1" d="M63.71,25.91a8.08,8.08,0,0,1,0,10"/><path class="cls-1" d="M49.39,26.24a10.24,10.24,0,0,0,0,9.31"/><path class="cls-1" d="M51.78,26a8.09,8.09,0,0,0,0,9.81"/><path class="cls-1" d="M45.82,26.26a13.88,13.88,0,0,0,0,9.26"/><path class="cls-1" d="M45,26.16a14.94,14.94,0,0,0,0,9.46"/><path class="cls-1" d="M42.58,35.79a15.82,15.82,0,0,1,0-9.8"/><path class="cls-1" d="M41.94,35.79a16.5,16.5,0,0,1,0-9.79"/><line class="cls-1" x1="39.29" y1="74.44" x2="39.29" y2="74.44"/><line class="cls-1" x1="38.77" y1="74.79" x2="38.29" y2="74.71"/><path class="cls-1" d="M14.09,63.41s0,.08,0,.1"/><line class="cls-1" x1="23.58" y1="64.91" x2="23.58" y2="64.91"/><path class="cls-1" d="M66.84,25.83A10.72,10.72,0,0,1,67.4,27a11.54,11.54,0,0,1,0,7.68A10.66,10.66,0,0,1,66.84,36"/><path class="cls-1" d="M63,35.82A7.47,7.47,0,0,0,63,26"/><path class="cls-1" d="M52.57,26a7.47,7.47,0,0,0,0,9.82"/><path class="cls-1" d="M21.94,45q.38-1.35.8-2.69c.14-.45.3-.9.48-1.34a8.9,8.9,0,0,1,1.56-2.58A8.9,8.9,0,0,0,23.22,41c-.18.44-.34.89-.48,1.34a104.85,104.85,0,0,0-2.67,10.38v0l-.21,2.1c0,.08,0,.11-.08.13a.57.57,0,0,1-.17,0l-.35,0a2.75,2.75,0,0,0-.84,0,5.89,5.89,0,0,1-.92.1l-1.83-8.74v-.17a1.06,1.06,0,0,1,.13-.45l1.85-3.43v-1a18.64,18.64,0,0,1,4.45-2.81,18.28,18.28,0,0,1,2.81-.82l.65,0-.44.43-.33.3"/><path class="cls-1" d="M26.85,59a2.52,2.52,0,0,1-.07.36v0a.93.93,0,0,1-.1.23l0,0,0,.06,0,0-.05.05,0,0h0"/><path class="cls-1" d="M26.45,59.8Z"/><path class="cls-1" d="M20,53.77l1.28,6.57a.12.12,0,0,1,0,0,2,2,0,0,0,.12.33"/><path class="cls-1" d="M15.51,61.76l0-.47a.24.24,0,0,1,0-.05.59.59,0,0,1,.14-.28.52.52,0,0,1,.16-.13l0,0a2.48,2.48,0,0,1,1.2-.18l-1.63-8.35a7.19,7.19,0,0,1-.71-7.77h0a22.32,22.32,0,0,0,1.68-3.34h0c2.32-2.25,6.52-3.93,9.41-4.93"/><path class="cls-1" d="M22.73,61.58A6.1,6.1,0,0,1,23.85,63,6.1,6.1,0,0,0,22.73,61.58Z"/><path class="cls-1" d="M15.67,72l9.42,1.44,0-.07a1.92,1.92,0,0,0-1.3-1.15L16.23,71c-.57-.09-.78.37-.59.86Z"/><path class="cls-1" d="M23.64,65.3l12.69,1.94a.51.51,0,0,1,.37.48,24.64,24.64,0,0,0,1.29,7,.24.24,0,0,1-.06.29"/><path class="cls-1" d="M37.92,75h0l-.07,0h-.08L25.61,73.17l-.31.21-.07,0h-.07L15.65,72h0l0,0h0l0-.06,0-.14v-.11h-.06L6.76,70.3l-.09,0a.63.63,0,0,1-.34-.35h0a24.71,24.71,0,0,1-1.29-7H5a.43.43,0,0,1,0-.19l0-.06h0l0-.05h0l0,0h0a.23.23,0,0,1,.17,0l8.74,1.33v.05a1.56,1.56,0,0,0,0,.16,1.62,1.62,0,0,0,.21.44l0,0,.1.12h0a1.12,1.12,0,0,0,.64.37h0l7.53,1.15a.72.72,0,0,0,.4,0l.12-.06h0a.78.78,0,0,0,.18-.16h0l.05-.07,0,0,.07-.14,0-.08a1.45,1.45,0,0,0,.05-.22,0,0,0,0,1,0,0h0l.29-.19L36.63,67a.56.56,0,0,1,.41.45l1.29,7a.3.3,0,0,1-.1.31Z"/><path class="cls-1" d="M24.51,64.29h.07l12.61,1.92a1.13,1.13,0,0,1,.82.89l1.29,7c.07.38-.1.75-.53.69"/><path class="cls-1" d="M25.92,64.08l11.8,1.8a1.13,1.13,0,0,1,.82.89l1.29,7a.6.6,0,0,1-.2.62l-.53.35"/><polyline class="cls-1" points="25.92 64.08 26.89 63.44 33.65 64.47 33.8 65.28"/><path class="cls-1" d="M30,63.9a2.06,2.06,0,0,1,1.69-.43,3.21,3.21,0,0,1,.9.28l.19-.12a3.48,3.48,0,0,1,1.33.78.58.58,0,0,0,.34.73.26.26,0,0,0,.28-.05q.14.18.26.37"/><path class="cls-1" d="M26.38,63.77l-.07-.37L7.65,60.56a.4.4,0,0,0-.31,0l-.92.61-.53.35"/><path class="cls-1" d="M34.79,70.66a.55.55,0,0,1,.39.39.36.36,0,0,1,0,.28.22.22,0,0,1-.24.12.56.56,0,0,1-.4-.39.35.35,0,0,1,0-.28A.22.22,0,0,1,34.79,70.66Z"/><path class="cls-1" d="M15,67.27l-.34-.19a6.35,6.35,0,0,0-.18.71,4.13,4.13,0,0,1-.57-.41,1.93,1.93,0,0,0-.05.35,4.13,4.13,0,0,0,.57.41,3.65,3.65,0,0,0,0,.58,2.34,2.34,0,0,0,.34.19,3.65,3.65,0,0,1,0-.58,5.85,5.85,0,0,0,.69.29c0-.12,0-.23.05-.35a5.85,5.85,0,0,1-.69-.29A6.35,6.35,0,0,1,15,67.27Z"/><path class="cls-1" d="M23.53,65l-9.42-1.44v.09a1.59,1.59,0,0,0,.27.85,1.13,1.13,0,0,0,.72.5l7.53,1.15a.69.69,0,0,0,.69-.31,1.29,1.29,0,0,0,.2-.76Z"/><path class="cls-1" d="M23.53,65a.32.32,0,0,1,.11-.08h0l.07,0,1.74-1.15.38.06.47-.31"/></g></svg>