<svg xmlns="http://www.w3.org/2000/svg" viewBox="0 0 150 100"><defs><style>.cls-1{fill:none;stroke:#010101;stroke-linecap:round;stroke-linejoin:round;stroke-width:0.25px;}</style></defs><g id="Layer_16" data-name="Layer 16"><path class="cls-1" d="M63.382,37.549l.4-.422a7.57,7.57,0,0,0,0-9.96l-.476-.518"/><path class="cls-1" d="M64.108,26.649l.411.434a8.194,8.194,0,0,1,0,10.115l-.281.351"/><path class="cls-1" d="M66.6,37.549l.23-.351a10.383,10.383,0,0,0,0-10.115l-.278-.434"/><path class="cls-1" d="M67.5,26.649l.19.352a10.866,10.866,0,0,1,.567,1.225,11.7,11.7,0,0,1,.012,7.788,10.805,10.805,0,0,1-.579,1.253l-.159.282"/><path class="cls-1" d="M49.266,37.169l-.15-.294-.041-.084q-.142-.3-.265-.6a11.556,11.556,0,0,1,.014-8.146q.135-.33.292-.65l.2-.369"/><path class="cls-1" d="M50.264,26.962,50,27.422a10.377,10.377,0,0,0,0,9.438l.226.374"/><path class="cls-1" d="M53.7,26.649l-.466.518a7.57,7.57,0,0,0,0,9.96l.365.422"/><path class="cls-1" d="M52.841,26.671l-.414.5a8.2,8.2,0,0,0,0,9.947l.305.4"/><path class="cls-1" d="M46.537,27.084l-.147.355a14.07,14.07,0,0,0,0,9.391l.115.284"/><path class="cls-1" d="M45.682,27.063l-.11.269a15.143,15.143,0,0,0,0,9.592l.083.212"/><path class="cls-1" d="M43.168,37.3,43.1,37.1a16.042,16.042,0,0,1,0-9.939l.079-.263"/><path class="cls-1" d="M42.537,37.372l-.088-.274a16.724,16.724,0,0,1,0-9.927l.115-.341"/><path class="cls-1" d="M37.236,26.649l-.094.35a21.415,21.415,0,0,0,0,10.27l.063.28"/><path class="cls-1" d="M36.576,37.549l-.09-.351a22.117,22.117,0,0,1,0-10.115l.107-.434"/><path class="cls-1" d="M17.275,63.677l.02-.022a3.824,3.824,0,0,1,.521-.561,1.594,1.594,0,0,1,.3-.193,3.771,3.771,0,0,1,4.825.3l.038.04"/><path class="cls-1" d="M15.829,62.626a1.515,1.515,0,0,1-1.038-1.131l-.656-3.361a1.541,1.541,0,0,1,.714-1.572h0a.35.35,0,0,1,.543.193l.381,1.95a1.155,1.155,0,0,0,.238-.031.427.427,0,0,0,.341-.424l-.01-.053a.374.374,0,0,1,.093-.044h0"/><path class="cls-1" d="M20.829,58.74l.037.026"/><polyline class="cls-1" points="17.816 43.678 17.816 43.892 17.816 54.343"/><path class="cls-1" d="M24.5,32.472c-2.458.942-5.754,2.42-7.726,4.334a.469.469,0,0,0-.188.169,4.886,4.886,0,0,0-.639,1.437c-.327.673-.686,1.325-1.074,1.964a4.678,4.678,0,0,0-.546,1.115l-.086.276"/><path class="cls-1" d="M62.537,28.445a5.717,5.717,0,0,1,.266,7.072,5.435,5.435,0,0,1-8.574.025,5.713,5.713,0,0,1,.252-7.1q.177-.178.3-.292a5.073,5.073,0,0,1,1.416-.98,5.408,5.408,0,0,1,4.625,0A5.312,5.312,0,0,1,62.537,28.445Z"/><path class="cls-1" d="M14.207,65.3V65.29l0-.15"/><line class="cls-1" x1="24.78" y1="65.997" x2="25.742" y2="65.36"/><path class="cls-1" d="M17.648,56.646c.033-.372.169-1.929.169-2.3a106.133,106.133,0,0,1,2.833-10.95,13.324,13.324,0,0,1,1.682-3.61"/><path class="cls-1" d="M41.121,26.649H25.89a1.1,1.1,0,0,0-1.092.956v.019a33.57,33.57,0,0,0,0,8.968,1.1,1.1,0,0,0,1.092.956H41.121a1.1,1.1,0,0,0,.161-.012,39.135,39.135,0,0,1,11.622,0,1.1,1.1,0,0,0,.161.012h3.029a5.951,5.951,0,0,0,4.824,0h9.528a1.1,1.1,0,0,0,1.035-.725,13.8,13.8,0,0,0,.786-5.814l-.009-.123a13.633,13.633,0,0,0-.778-3.512,1.1,1.1,0,0,0-1.035-.725H60.918a5.951,5.951,0,0,0-4.824,0H53.065a1.1,1.1,0,0,0-.161.012,39.135,39.135,0,0,1-11.622,0A1.1,1.1,0,0,0,41.121,26.649Z"/><line class="cls-1" x1="14.293" y1="65.052" x2="16.058" y2="63.883"/><line class="cls-1" x1="14.223" y1="65.098" x2="14.293" y2="65.052"/><path class="cls-1" d="M14.223,65.1l-.011.009"/><line class="cls-1" x1="10.025" y1="62.963" x2="16.058" y2="63.883"/><line class="cls-1" x1="15.6" y1="64.188" x2="14.959" y2="64.613"/><line class="cls-1" x1="6.244" y1="63.171" x2="15.007" y2="64.507"/><line class="cls-1" x1="14.207" y1="65.297" x2="5.676" y2="63.996"/><line class="cls-1" x1="15.049" y1="64.553" x2="15.007" y2="64.507"/><line class="cls-1" x1="9.597" y1="63.247" x2="6.778" y2="62.817"/><line class="cls-1" x1="10.025" y1="62.963" x2="9.597" y2="63.247"/><line class="cls-1" x1="6.247" y1="63.169" x2="6.244" y2="63.171"/><path class="cls-1" d="M6.247,63.169v0"/><path class="cls-1" d="M6.778,62.817a.442.442,0,0,0-.339.065"/><line class="cls-1" x1="6.781" y1="62.816" x2="6.778" y2="62.817"/><path class="cls-1" d="M6.781,62.816v0"/><path class="cls-1" d="M6.244,63.171c-.435-.066-.608.315-.537.7"/><line class="cls-1" x1="15.072" y1="69.404" x2="15.072" y2="69.404"/><line class="cls-1" x1="5.732" y1="64.004" x2="5.706" y2="63.867"/><path class="cls-1" d="M26.693,61.476h0"/><path class="cls-1" d="M5.2,64.233l.3-.2A.219.219,0,0,1,5.676,64"/><path class="cls-1" d="M25.3,39.519q-.123.11-.242.224"/><path class="cls-1" d="M62.655,37.549c.706,1.031,1.44,2.04,2.178,3.048s1.471,2.018,2.2,3.035c1.322,1.881,2.618,3.773,3.783,5.76a17.481,17.481,0,0,1,1.966,4.39l0,.011a4.2,4.2,0,0,1,.139,1.289l0,.026c0,.009-.01.016,0,.026a5.425,5.425,0,0,1-.112.56c-.136.512-.264,1.026-.376,1.544-.116.537-.2,1.079-.282,1.621s-.178,1.083-.285,1.621c-.214,1.077-.542,2.126-.756,3.2a1.587,1.587,0,0,0-.033.44l0,.021.005.04a.346.346,0,0,0,.006.046.356.356,0,0,0,.008.042l0,.023,0,.005a.378.378,0,0,0,.01.043l.007.023.005.017,0,0a.421.421,0,0,0,.017.05l.007.016c0,.012.01.023.015.035l.007.014v0l.008.015.01.018.015.028v0l.014.022.012.019,0,0,0,0a.436.436,0,0,0,.026.035l0,0,.013.015.008.009.024.026.025.025.015.014.015.013.024.02.029.021.03.019a.508.508,0,0,0,.048.028l.032.015.033.014.019.007.567.216.028.011.453.173c.032.012.064.022.073.025l.027.007.017,0,.014,0,.016,0,.021,0h.071l.046,0,.618-.056.024,0h.064l.021,0,.036-.005.029-.006.027-.006.034-.01.036-.012.027-.011.026-.011.026-.012.025-.013.026-.014.021-.012.023-.014.031-.021.028-.02.023-.017.024-.019.026-.022.018-.016.024-.021.042-.04a2.77,2.77,0,0,0,.505-.733,30.943,30.943,0,0,0,1.54-3.681c.243-.62.47-1.245.669-1.881a7.232,7.232,0,0,0,.332-1.963c.006-.092.015-.183.024-.275l.014-.137.007-.069a.184.184,0,0,1,.007-.068c-.017-.163-.045-.324-.067-.486-.369-2.69-2.348-6.271-3.7-8.467q-1.217-1.981-2.525-3.9c-.87-1.281-1.767-2.544-2.614-3.842-.215-.333-.648-1.026-1.14-1.9"/><circle class="cls-1" cx="58.506" cy="32.167" r="2.125"/><line class="cls-1" x1="76.949" y1="58.113" x2="76.943" y2="58.113"/><path class="cls-1" d="M25.3,39.519a45.67,45.67,0,0,1,9.344-1.97"/><path class="cls-1" d="M25.361,75.227a.185.185,0,0,0,.069.038"/><path class="cls-1" d="M27.207,59.682h0"/><path class="cls-1" d="M38.186,76.872h0"/><path class="cls-1" d="M14.214,41.875c.015-.058.031-.116.049-.174-.008.029-.017.057-.024.086-.319,1.039-.63,2.077-.848,3.146l-.006.029a6.781,6.781,0,0,0-.178,1.541,12.164,12.164,0,0,0,.267,2.207,16.178,16.178,0,0,0,1.3,3.719"/><line class="cls-1" x1="24.034" y1="66.537" x2="24.034" y2="66.537"/><line class="cls-1" x1="25.361" y1="75.227" x2="25.361" y2="75.227"/><path class="cls-1" d="M13.916,69.192a1.68,1.68,0,0,0,.683,1.473,1.046,1.046,0,0,0,.792.23.666.666,0,0,0,.521-.6,1.68,1.68,0,0,0-.683-1.473,1.046,1.046,0,0,0-.792-.23A.666.666,0,0,0,13.916,69.192Z"/><line class="cls-1" x1="39.768" y1="76.283" x2="39.766" y2="76.283"/><line class="cls-1" x1="39.233" y1="76.637" x2="38.751" y2="76.564"/><path class="cls-1" d="M14.212,65.107c-.027.028.01.084.026.105"/><line class="cls-1" x1="23.839" y1="66.619" x2="23.839" y2="66.619"/><path class="cls-1" d="M22.176,46.447l.057.252a.787.787,0,0,1,.017.2.756.756,0,0,1-.019.23q-.2,1.01-.4,2.021l-.011.061q-.213,1.135-.425,2.271c.6.488,1.229.944,1.872,1.38a1.93,1.93,0,0,1,.922-.134,1.853,1.853,0,0,1,.463.077l.033.01a1.988,1.988,0,0,1,.4.158,2.458,2.458,0,0,1,.456.285,3.783,3.783,0,0,1,.722.725l.022.028a6.15,6.15,0,0,1,.435.652l.01.017c.045.078.089.156.131.236a1.431,1.431,0,0,1,.061.135l.014.036c.013.035.025.07.037.106l.049.078,0,.007a.691.691,0,0,1,.033.061l.079.126q.042.072.082.146l.041.07a.84.84,0,0,1,.1.365v.014a.7.7,0,0,1,.015.132l0,.034v.01l0,.741a5.944,5.944,0,0,1,0,1.947l-.047.27c-.028.135-.061.267-.1.4l0,.013-.008.027q-.01.231-.023.462a4.667,4.667,0,0,1-.052.5v0a2.554,2.554,0,0,1-.076.363l-.005.018a.946.946,0,0,1-.1.229c-.006.013-.013.026-.02.039a.324.324,0,0,1-.035.057.357.357,0,0,1-.029.036.311.311,0,0,1-.052.053.323.323,0,0,1-.044.038l-.019.013,0,0-.005,0a.325.325,0,0,1-.044.026.18.18,0,0,1-.1.018c-.12-.008-.239-.012-.359-.01a2.69,2.69,0,0,1-.944-.13l-.109-.04c-.137-.052-.269-.112-.4-.173a1.238,1.238,0,0,0-.412-.138c-.372.035-.727.16-1.107.159l-.052,0c-.024,0-.047,0-.071,0l-.036,0c-.012,0-.021.014-.035,0h0a.388.388,0,0,1-.051-.02q-.074-.03-.165-.075a.761.761,0,0,1-.183-.125,14.582,14.582,0,0,1-1.827-2.168"/><path class="cls-1" d="M22.176,46.447q.389-1.371.813-2.731c.143-.46.3-.913.483-1.36a8.633,8.633,0,0,1,1.584-2.616,8.633,8.633,0,0,0-1.584,2.616c-.181.447-.34.9-.483,1.36a106.3,106.3,0,0,0-2.71,10.522l-.009.036L20.053,56.4c.034.161-.154.151-.263.149a3.4,3.4,0,0,1-.356-.031,2.785,2.785,0,0,0-.851.025,5.97,5.97,0,0,1-.936.1l-1.85-8.86.011-.176a1.076,1.076,0,0,1,.132-.459l1.875-3.472V42.637a18.9,18.9,0,0,1,4.514-2.854,18.536,18.536,0,0,1,2.851-.83l.655.051c-.15.144-.3.293-.45.433-.113.1-.225.2-.334.305"/><path class="cls-1" d="M20.163,55.329l1.3,6.657a.118.118,0,0,1,0,.037,1.985,1.985,0,0,0,.118.337"/><path class="cls-1" d="M15.653,63.43l.029-.472a.248.248,0,0,1,0-.052.6.6,0,0,1,.142-.279.531.531,0,0,1,.159-.133l.036-.02a2.518,2.518,0,0,1,1.221-.183l-1.653-8.462a7.29,7.29,0,0,1-.717-7.879v0a22.626,22.626,0,0,0,1.7-3.387l.01-.014c2.348-2.279,6.615-3.987,9.54-5"/><path class="cls-1" d="M22.978,63.243a6.186,6.186,0,0,1,1.128,1.476A6.186,6.186,0,0,0,22.978,63.243Z"/><path class="cls-1" d="M15.813,73.771l9.548,1.456-.028-.072a1.946,1.946,0,0,0-1.321-1.168l-7.631-1.163c-.579-.088-.791.37-.6.876Z"/><path class="cls-1" d="M23.893,67.023l12.868,1.962a.519.519,0,0,1,.371.482,24.359,24.359,0,0,0,1.3,7.08.246.246,0,0,1-.065.292"/><path class="cls-1" d="M38.37,76.839l-.009,0-.025.011a.2.2,0,0,1-.076.019.04.04,0,0,1-.015,0,.545.545,0,0,0-.064,0l-.007,0L25.895,75l-.319.211-.07.047-.015.008a.079.079,0,0,1-.06,0L15.8,73.8h0l-.017-.043,0,0-.025-.065a1.285,1.285,0,0,1-.044-.138l-.01-.038c-.006-.025-.011-.051-.015-.076a.07.07,0,0,1-.057,0L6.783,72.083a.492.492,0,0,1-.09-.027.637.637,0,0,1-.345-.353l0-.008a24.436,24.436,0,0,1-1.307-7.1v0a.431.431,0,0,1,.033-.2.331.331,0,0,1,.031-.061l0-.006a.286.286,0,0,1,.044-.052l0,0,.01-.009a.257.257,0,0,1,.029-.022l.007,0A.232.232,0,0,1,5.37,64.2l8.864,1.352.011.053a1.585,1.585,0,0,0,.043.16,1.643,1.643,0,0,0,.218.441l.03.043a1.508,1.508,0,0,0,.1.118l0,0a1.047,1.047,0,0,0,.646.37l.019,0,7.631,1.163a.729.729,0,0,0,.407-.046.689.689,0,0,0,.121-.059l.009-.005a.789.789,0,0,0,.185-.164l.01-.013q.028-.034.052-.071l.02-.031a1.083,1.083,0,0,0,.071-.139l.023-.082a1.468,1.468,0,0,0,.055-.227.042.042,0,0,1,.011-.044l.008-.006.3-.2,12.869,1.962a.572.572,0,0,1,.416.452l1.3,7.08a.3.3,0,0,1-.1.318Z"/><path class="cls-1" d="M24.78,66l.072.011,12.784,1.949a1.143,1.143,0,0,1,.832.9l1.3,7.08c.07.381-.1.762-.537.7"/><path class="cls-1" d="M26.212,65.78,38.17,67.6a1.143,1.143,0,0,1,.832.9l1.3,7.08a.607.607,0,0,1-.2.63l-.535.354"/><polyline class="cls-1" points="26.212 65.78 27.196 65.128 34.043 66.172 34.194 66.997"/><path class="cls-1" d="M30.313,65.6a2.087,2.087,0,0,1,1.716-.438,3.259,3.259,0,0,1,.91.285l.189-.125a3.533,3.533,0,0,1,1.345.786.523.523,0,0,0,.1.565c.121.145.363.3.528.122q.138.183.259.378"/><path class="cls-1" d="M26.678,65.471,26.61,65.1,7.687,62.215a.4.4,0,0,0-.313.048l-.935.619-.535.354"/><path class="cls-1" d="M35.2,72.458a.562.562,0,0,1,.4.393c.063.205,0,.445-.251.407a.566.566,0,0,1-.4-.391C34.877,72.66,34.949,72.42,35.2,72.458Z"/><path class="cls-1" d="M15.181,69.015q-.171-.1-.346-.192a6.436,6.436,0,0,0-.181.724,4.191,4.191,0,0,1-.575-.415,1.957,1.957,0,0,0-.054.355,4.192,4.192,0,0,0,.575.415,3.7,3.7,0,0,0-.023.592,2.37,2.37,0,0,0,.346.192,3.7,3.7,0,0,1,.023-.592,5.933,5.933,0,0,0,.7.3c.023-.118.04-.236.054-.355a5.934,5.934,0,0,1-.7-.3A6.436,6.436,0,0,1,15.181,69.015Z"/><path class="cls-1" d="M23.786,66.669l-9.548-1.456,0,.089a1.4,1.4,0,0,0,1.01,1.374l7.631,1.163a.7.7,0,0,0,.7-.311,1.2,1.2,0,0,0,.205-.771Z"/><path class="cls-1" d="M23.786,66.669a.329.329,0,0,1,.107-.085l.015-.008.07-.047,1.764-1.168.387.059.481-.319"/><path class="cls-1" d="M71.908,35.423q10.316-.167,20.627.089a.9.9,0,0,1,.632.279.942.942,0,0,1,.068,1.08c-.636,1.191-1.243,2.165-1.511,2.58-.847,1.3-1.742,2.559-2.612,3.839s-1.714,2.582-2.526,3.9c-1.349,2.2-3.328,5.778-3.7,8.468-.023.162-.05.323-.067.486a.107.107,0,0,1,0,.04c.017.17.035.339.047.509a7.448,7.448,0,0,0,.5,2.48c.269.8.593,1.586.887,2.38a21.664,21.664,0,0,0,1.153,2.665,2.77,2.77,0,0,0,.505.733l.042.04.024.021.018.016.026.022.024.019.023.017.028.02.031.021.023.014.021.012.026.014.025.013.026.012.026.011.027.011.036.012.034.01.027.006.029.006.036.005.021,0h.064l.024,0,.618.056.046,0h.071l.021,0,.016,0,.014,0,.017,0,.027-.007c.009,0,.041-.013.073-.025l.453-.173.028-.011.567-.216.019-.007.033-.014.032-.015a.508.508,0,0,0,.048-.028l.03-.019.029-.021.024-.02.015-.013.015-.014.025-.025.024-.026.008-.009.013-.015,0,0a.436.436,0,0,0,.026-.035l0,0,0,0,.012-.019.014-.022v0l.015-.028.01-.018.008-.015v0l.007-.014c.006-.011.011-.023.015-.035l.007-.016a.421.421,0,0,0,.017-.05l0,0,.005-.017L89,64.345a.378.378,0,0,0,.01-.043l0-.005,0-.023a.356.356,0,0,0,.008-.042.346.346,0,0,0,.006-.046l.005-.04,0-.021a1.587,1.587,0,0,0-.033-.44c-.213-1.078-.541-2.126-.756-3.2-.107-.538-.2-1.079-.285-1.621s-.166-1.084-.282-1.621c-.112-.518-.241-1.032-.376-1.544a5.423,5.423,0,0,1-.112-.56c.008-.01,0-.017,0-.026l0-.026a4.2,4.2,0,0,1,.139-1.289l0-.011a17.48,17.48,0,0,1,1.966-4.39c1.165-1.987,2.46-3.879,3.783-5.76.9-1.265,1.821-2.517,2.734-3.773s1.811-2.523,2.649-3.834c.152-.311.349-.311.754-.3,7.874.3,15.727.8,23.573,1.535,3.519.331,9.774,1.116,13.1,2.714a18.26,18.26,0,0,1,4.337,2.756,11.576,11.576,0,0,1,2.749,4,21.247,21.247,0,0,1-4.268,4.753c-.6.488-1.229.944-1.872,1.38a1.93,1.93,0,0,0-.922-.134,1.853,1.853,0,0,0-.463.077l-.033.01a1.988,1.988,0,0,0-.4.158,2.458,2.458,0,0,0-.456.285,3.783,3.783,0,0,0-.722.725l-.022.028a6.15,6.15,0,0,0-.435.652l-.01.017c-.045.078-.089.156-.131.236a1.432,1.432,0,0,0-.061.135l-.014.036q-.02.052-.037.106l-.049.078,0,.007a.691.691,0,0,0-.033.061l-.079.126q-.042.072-.082.146l-.041.07a.84.84,0,0,0-.1.365v.014a.7.7,0,0,0-.015.132l0,.034v.01l0,.741a5.944,5.944,0,0,0,0,1.947l.047.27c.028.135.061.267.1.4l0,.013.008.027q.01.231.023.462c.01.166.028.331.051.5a2.466,2.466,0,0,0,.075.363l.005.018a.946.946,0,0,0,.1.229c.006.013.013.026.02.039a.324.324,0,0,0,.035.057.356.356,0,0,0,.029.036.311.311,0,0,0,.052.053.323.323,0,0,0,.044.038l.019.013,0,0,.005,0a.324.324,0,0,0,.044.026.179.179,0,0,0,.1.018h0c.12-.008.239-.012.359-.01a2.69,2.69,0,0,0,.944-.13l.109-.04c.137-.052.269-.112.4-.173a1.238,1.238,0,0,1,.412-.138c.372.035.727.16,1.107.159l.052,0c.024,0,.047,0,.071,0l.036,0c.012,0,.021.014.035,0h0a.388.388,0,0,0,.051-.02q.074-.03.165-.075a.761.761,0,0,0,.183-.125,14.583,14.583,0,0,0,1.827-2.168,25.606,25.606,0,0,0,2.806-2.205c1.871-1.671,3.76-3.956,4-6.688a7.084,7.084,0,0,0,.008-6.725l0-.005a5.049,5.049,0,0,0-.821-2.767c-.388-.639-.747-1.291-1.074-1.964a4.885,4.885,0,0,0-.639-1.437.469.469,0,0,0-.188-.169q-.082-.08-.166-.157l-.006-.006a16.153,16.153,0,0,0-3.552-2.391l-.028-.014a41.653,41.653,0,0,0-5.787-2.424.674.674,0,0,0-.141-.029,467.693,467.693,0,0,0-61.722-2.923"/></g></svg>