<?xml version="1.0" encoding="utf-8"?>
<!-- Generator: Adobe Illustrator 16.0.0, SVG Export Plug-In . SVG Version: 6.00 Build 0)  -->
<!DOCTYPE svg PUBLIC "-//W3C//DTD SVG 1.1//EN" "http://www.w3.org/Graphics/SVG/1.1/DTD/svg11.dtd">
<svg version="1.1" id="Layer_1" xmlns="http://www.w3.org/2000/svg" xmlns:xlink="http://www.w3.org/1999/xlink" x="0px" y="0px"
	 width="332px" height="208px" viewBox="0 0 332 208" enable-background="new 0 0 332 208" xml:space="preserve">
<path fill="#848484" d="M221.251,118.82c0.625-2.38,1.086-4.822,1.395-7.311l-9.252-3.753c0.074-1.087,0.127-2.18,0.127-3.283
	c0-1.35-0.068-2.678-0.182-3.998l9.219-3.737c-0.344-2.504-0.852-4.956-1.512-7.346l-9.996,0.074
	c-0.77-2.278-1.709-4.476-2.805-6.581l7.08-6.98c-1.285-2.183-2.713-4.268-4.271-6.25l-9.209,3.894
	c-1.543-1.753-3.211-3.391-4.994-4.895l3.871-9.165c-2.027-1.537-4.166-2.933-6.396-4.188l-7.016,7.117
	c-2.039-1-4.16-1.858-6.352-2.559l0.072-9.953c-2.465-0.646-5.002-1.119-7.584-1.428l-3.76,9.262
	c-0.994-0.061-1.994-0.103-3.004-0.103c-1.246,0-2.479,0.06-3.703,0.156l-3.744-9.229c-2.602,0.345-5.145,0.86-7.621,1.548
	l0.072,9.992c-2.109,0.712-4.148,1.568-6.111,2.56l-6.996-7.1c-2.264,1.304-4.426,2.761-6.477,4.355l3.885,9.195
	c-1.66,1.44-3.215,2.995-4.656,4.657l-9.195-3.887c-1.596,2.05-3.051,4.215-4.354,6.479l7.098,6.996
	c-0.992,1.962-1.85,4.003-2.562,6.11l-9.992-0.072c-0.686,2.477-1.203,5.019-1.547,7.619l9.23,3.745
	c-0.096,1.225-0.162,2.46-0.162,3.71c0,1.007,0.045,2.004,0.107,2.997l-9.266,3.759c0.311,2.586,0.783,5.118,1.432,7.584
	l9.951-0.072c0.699,2.195,1.559,4.318,2.561,6.354l-7.119,7.019c1.258,2.226,2.654,4.366,4.191,6.395l9.164-3.874
	c1.506,1.788,3.141,3.455,4.893,4.997l-3.891,9.209c1.98,1.559,4.066,2.987,6.248,4.271l6.979-7.082
	c2.107,1.099,4.307,2.035,6.584,2.808l-0.072,9.991c2.389,0.662,4.836,1.171,7.342,1.517l3.742-9.22
	c1.316,0.11,2.646,0.183,3.99,0.183c1.109,0,2.203-0.053,3.289-0.13l3.754,9.253c2.49-0.311,4.934-0.771,7.309-1.396l-0.07-9.954
	c2.365-0.753,4.639-1.697,6.826-2.803l6.998,7.1c2.148-1.237,4.211-2.607,6.168-4.107l-3.881-9.176
	c1.881-1.604,3.629-3.354,5.232-5.234l9.178,3.88c1.502-1.961,2.871-4.022,4.109-6.17l-7.1-6.997
	c1.104-2.185,2.047-4.462,2.805-6.827L221.251,118.82z"/>
<circle fill="#CCCCCC" cx="166.333" cy="104.581" r="27.284"/>
<polygon fill="#212121" points="159.367,116.955 152.118,104.456 159.367,91.955 173.866,91.955 181.115,104.456 173.866,116.955 
	"/>
<circle fill="#FFFFFF" cx="171.333" cy="96.289" r="1.833"/>
<g>
	<path d="M218.418,28.659v23.597c0,1.239-1.04,2.199-2.239,2.199c-1.24,0-2.2-0.96-2.2-2.199V32.579l-1.6,0.92
		c-0.359,0.239-0.76,0.319-1.119,0.319c-0.761,0-1.48-0.399-1.88-1.119c-0.68-1-0.32-2.4,0.72-3l4.919-2.92
		c0.04-0.04,0.12-0.04,0.16-0.079c0.08,0,0.12-0.08,0.2-0.12c0.08,0,0.16-0.04,0.239-0.04c0.04-0.04,0.12-0.04,0.16-0.04
		c0.08-0.04,0.2-0.04,0.28-0.04c0.04,0,0.08,0,0.12,0h0.04c0.12,0,0.2,0,0.279,0c0.04,0.04,0.12,0.04,0.16,0.04
		c0.12,0,0.16,0.04,0.24,0.08c0.04,0,0.12,0,0.16,0.04c0.12,0.08,0.16,0.119,0.24,0.119c0.039,0.04,0.079,0.08,0.159,0.12
		c0.04,0.04,0.12,0.08,0.16,0.12c0.08,0.04,0.12,0.12,0.16,0.16s0.08,0.08,0.12,0.16c0.04,0.04,0.12,0.12,0.16,0.16l0.04,0.08
		c0,0.04,0.04,0.079,0.04,0.119c0.039,0.08,0.079,0.12,0.079,0.2c0.04,0.08,0.04,0.16,0.08,0.2c0,0.08,0.04,0.16,0.04,0.2
		c0,0.12,0,0.199,0.08,0.279C218.418,28.579,218.418,28.619,218.418,28.659z"/>
	<path d="M241.576,52.256c0,1.239-0.96,2.199-2.2,2.199h-14.157c0,0,0,0-0.04,0h-0.04c-0.6,0-1.24-0.24-1.64-0.72
		c-0.84-0.92-0.76-2.279,0.12-3.12l11.838-10.718c1.16-1.04,1.68-2.399,1.68-3.839c0-1.28-0.44-2.48-1.319-3.479
		c-1.04-1.16-2.44-1.68-3.84-1.68c-1.24,0-2.479,0.439-3.479,1.319l-1.239,1.12c-0.92,0.84-2.28,0.76-3.12-0.16
		c-0.8-0.92-0.76-2.279,0.16-3.119l1.24-1.12c1.799-1.68,4.159-2.479,6.438-2.479c2.6,0,5.239,1.08,7.119,3.159
		c1.68,1.8,2.479,4.159,2.479,6.439c0,2.6-1.08,5.238-3.16,7.118l-7.559,6.839h8.519C240.616,50.016,241.576,51.016,241.576,52.256z
		"/>
</g>
</svg>
